<svg width="198" height="178" viewBox="0 0 198 178" fill="none" xmlns="http://www.w3.org/2000/svg">
<path d="M56.1685 68.3603L28.4188 11.6239C23.6873 15.4735 12.499 25.0973 16.9839 35.8761C21.0844 45.7311 37.1817 78.5786 44.2793 92.9503M55.8082 118.642C53.5759 123.304 51.5123 127.603 49.7119 131.345L48.9226 132.885C52.895 137.45 55.6261 143.363 55.6261 149.823C55.6261 164.28 43.6215 176 28.813 176C14.0046 176 2 164.28 2 149.823C2 135.366 14.0046 123.646 28.813 123.646C29.0169 123.646 29.2202 123.648 29.423 123.653L83.2281 12.3938C88.7484 15.4735 98.471 25.0973 94.6631 35.1062C91.9903 42.1315 79.3454 69.162 67.1874 94.7743M55.8082 118.642L63.1253 132.5C58.949 137.116 56.4147 143.18 56.4147 149.823C56.4147 164.28 68.4193 176 83.2277 176C98.0362 176 110.041 164.28 110.041 149.823C110.041 135.366 98.0362 123.646 83.2277 123.646C82.8313 123.646 82.4369 123.654 82.0446 123.671L67.1874 94.7743M55.8082 118.642C59.3075 111.332 63.2215 103.129 67.1874 94.7743M196 2H169.187M196 175.615H169.187M169.187 2H144.74C138.825 2 131.333 8.15929 131.333 15.4735C131.333 22.5633 131.202 116.204 131.333 162.142C131.333 167.531 135.671 175.615 146.317 175.615H169.187M169.187 2V18.1681M169.187 175.615V159.832M169.187 18.1681H196M169.187 18.1681V34.3363M169.187 34.3363H196M169.187 34.3363V49.7345M169.187 49.7345H196M169.187 49.7345V65.9027M169.187 65.9027H196M169.187 65.9027V81.3009M169.187 81.3009H196M169.187 81.3009V97.0841M169.187 97.0841H196M169.187 97.0841V112.867M169.187 112.867H196M169.187 112.867V128.265M169.187 128.265H196M169.187 128.265V144.049M169.187 144.049H196M169.187 144.049V159.832M169.187 159.832H196M39.8536 149.438C39.8536 155.178 35.0871 159.832 29.2072 159.832C23.3274 159.832 18.5609 155.178 18.5609 149.438C18.5609 143.698 23.3274 139.044 29.2072 139.044C35.0871 139.044 39.8536 143.698 39.8536 149.438ZM93.4797 149.438C93.4797 155.178 88.7131 159.832 82.8333 159.832C76.9535 159.832 72.187 155.178 72.187 149.438C72.187 143.698 76.9535 139.044 82.8333 139.044C88.7131 139.044 93.4797 143.698 93.4797 149.438Z" stroke="#F9F2F2" stroke-width="4" stroke-linecap="round" stroke-dasharray="0.1 0.1"/>
</svg>
