<svg width="223" height="253" viewBox="0 0 223 253" fill="none" xmlns="http://www.w3.org/2000/svg">
<path d="M87 186.632L87.918 189.488L90 188.819V186.632H87ZM25.5 116.632H22.5V116.713L22.5043 116.793L25.5 116.632ZM66.5 68.632L66.389 65.634L63.5 65.741V68.632H66.5ZM135.5 114.632H138.5V114.324L138.437 114.022L135.5 114.632ZM6 252.632V226.132H0V252.632H6ZM6 226.132C6 223.987 6.60253 220.49 8.40546 217.332C10.1593 214.259 13.0041 211.556 17.6286 210.565L16.3714 204.699C9.79589 206.108 5.64066 210.072 3.19454 214.357C0.797467 218.557 0 223.111 0 226.132H6ZM17.6286 210.565C29.0154 208.125 69.3368 195.461 87.918 189.488L86.082 183.776C67.3299 189.803 27.3846 202.339 16.3714 204.699L17.6286 210.565ZM90 186.632V176.632H84V186.632H90ZM87 173.632C77.556 173.632 63.4454 170.415 51.4585 161.648C39.5901 152.968 29.6952 138.782 28.4957 116.471L22.5043 116.793C23.8048 140.982 34.6599 156.796 47.9165 166.491C61.0546 176.099 76.444 179.632 87 179.632V173.632ZM28.5 116.632V83.632H22.5V116.632H28.5ZM28.5 83.632C28.5 58.1255 38.5607 38.9251 53.5528 25.9977C68.6055 13.0182 88.772 6.24946 109.036 6.00677C129.3 5.76409 149.436 12.0487 164.458 24.8817C179.415 37.6594 189.5 57.0915 189.5 83.632H195.5C195.5 55.4225 184.71 34.2921 168.355 20.3197C152.064 6.40271 130.45 -0.250124 108.964 0.00720174C87.478 0.264525 65.8945 7.43333 49.6347 21.4537C33.3143 35.5264 22.5 56.3885 22.5 83.632H28.5ZM189.5 83.632V252.632H195.5V83.632H189.5ZM90 176.632V164.132H84V176.632H90ZM88.4185 161.488C82.3294 158.221 69.5 146.388 69.5 126.132H63.5C63.5 149.075 78.0039 162.709 85.5815 166.775L88.4185 161.488ZM69.5 126.132C69.5 126.09 69.5 126.048 69.5 126.005C69.5 125.963 69.5 125.921 69.5 125.879C69.5 125.836 69.5 125.794 69.5 125.752C69.5 125.71 69.5 125.667 69.5 125.625C69.5 125.583 69.5 125.54 69.5 125.498C69.5 125.456 69.5 125.413 69.5 125.371C69.5 125.328 69.5 125.286 69.5 125.244C69.5 125.201 69.5 125.159 69.5 125.116C69.5 125.074 69.5 125.031 69.5 124.989C69.5 124.946 69.5 124.904 69.5 124.861C69.5 124.819 69.5 124.776 69.5 124.734C69.5 124.691 69.5 124.649 69.5 124.606C69.5 124.564 69.5 124.521 69.5 124.478C69.5 124.436 69.5 124.393 69.5 124.35C69.5 124.308 69.5 124.265 69.5 124.223C69.5 124.18 69.5 124.137 69.5 124.095C69.5 124.052 69.5 124.009 69.5 123.966C69.5 123.924 69.5 123.881 69.5 123.838C69.5 123.795 69.5 123.753 69.5 123.71C69.5 123.667 69.5 123.624 69.5 123.581C69.5 123.539 69.5 123.496 69.5 123.453C69.5 123.41 69.5 123.367 69.5 123.324C69.5 123.282 69.5 123.239 69.5 123.196C69.5 123.153 69.5 123.11 69.5 123.067C69.5 123.024 69.5 122.981 69.5 122.938C69.5 122.895 69.5 122.852 69.5 122.809C69.5 122.767 69.5 122.724 69.5 122.681C69.5 122.638 69.5 122.595 69.5 122.552C69.5 122.508 69.5 122.465 69.5 122.422C69.5 122.379 69.5 122.336 69.5 122.293C69.5 122.25 69.5 122.207 69.5 122.164C69.5 122.121 69.5 122.078 69.5 122.035C69.5 121.992 69.5 121.948 69.5 121.905C69.5 121.862 69.5 121.819 69.5 121.776C69.5 121.733 69.5 121.689 69.5 121.646C69.5 121.603 69.5 121.56 69.5 121.517C69.5 121.473 69.5 121.43 69.5 121.387C69.5 121.344 69.5 121.3 69.5 121.257C69.5 121.214 69.5 121.171 69.5 121.127C69.5 121.084 69.5 121.041 69.5 120.998C69.5 120.954 69.5 120.911 69.5 120.868C69.5 120.824 69.5 120.781 69.5 120.738C69.5 120.694 69.5 120.651 69.5 120.608C69.5 120.564 69.5 120.521 69.5 120.477C69.5 120.434 69.5 120.391 69.5 120.347C69.5 120.304 69.5 120.26 69.5 120.217C69.5 120.174 69.5 120.13 69.5 120.087C69.5 120.043 69.5 120 69.5 119.956C69.5 119.913 69.5 119.869 69.5 119.826C69.5 119.782 69.5 119.739 69.5 119.695C69.5 119.652 69.5 119.608 69.5 119.565C69.5 119.521 69.5 119.478 69.5 119.434C69.5 119.391 69.5 119.347 69.5 119.304C69.5 119.26 69.5 119.216 69.5 119.173C69.5 119.129 69.5 119.086 69.5 119.042C69.5 118.998 69.5 118.955 69.5 118.911C69.5 118.868 69.5 118.824 69.5 118.78C69.5 118.737 69.5 118.693 69.5 118.649C69.5 118.606 69.5 118.562 69.5 118.519C69.5 118.475 69.5 118.431 69.5 118.387C69.5 118.344 69.5 118.3 69.5 118.256C69.5 118.213 69.5 118.169 69.5 118.125C69.5 118.082 69.5 118.038 69.5 117.994C69.5 117.95 69.5 117.907 69.5 117.863C69.5 117.819 69.5 117.776 69.5 117.732C69.5 117.688 69.5 117.644 69.5 117.601C69.5 117.557 69.5 117.513 69.5 117.469C69.5 117.425 69.5 117.382 69.5 117.338C69.5 117.294 69.5 117.25 69.5 117.206C69.5 117.163 69.5 117.119 69.5 117.075C69.5 117.031 69.5 116.987 69.5 116.944C69.5 116.9 69.5 116.856 69.5 116.812C69.5 116.768 69.5 116.724 69.5 116.68C69.5 116.637 69.5 116.593 69.5 116.549C69.5 116.505 69.5 116.461 69.5 116.417C69.5 116.373 69.5 116.33 69.5 116.286C69.5 116.242 69.5 116.198 69.5 116.154C69.5 116.11 69.5 116.066 69.5 116.022C69.5 115.978 69.5 115.934 69.5 115.891C69.5 115.847 69.5 115.803 69.5 115.759C69.5 115.715 69.5 115.671 69.5 115.627C69.5 115.583 69.5 115.539 69.5 115.495C69.5 115.451 69.5 115.407 69.5 115.363C69.5 115.319 69.5 115.275 69.5 115.231C69.5 115.187 69.5 115.144 69.5 115.1C69.5 115.056 69.5 115.012 69.5 114.968C69.5 114.924 69.5 114.88 69.5 114.836C69.5 114.792 69.5 114.748 69.5 114.704C69.5 114.66 69.5 114.616 69.5 114.572C69.5 114.528 69.5 114.484 69.5 114.44C69.5 114.396 69.5 114.352 69.5 114.308C69.5 114.264 69.5 114.22 69.5 114.176C69.5 114.132 69.5 114.088 69.5 114.044C69.5 114 69.5 113.956 69.5 113.912C69.5 113.867 69.5 113.823 69.5 113.779C69.5 113.735 69.5 113.691 69.5 113.647C69.5 113.603 69.5 113.559 69.5 113.515C69.5 113.471 69.5 113.427 69.5 113.383C69.5 113.339 69.5 113.295 69.5 113.251C69.5 113.207 69.5 113.163 69.5 113.119C69.5 113.075 69.5 113.031 69.5 112.987C69.5 112.943 69.5 112.898 69.5 112.854C69.5 112.81 69.5 112.766 69.5 112.722C69.5 112.678 69.5 112.634 69.5 112.59C69.5 112.546 69.5 112.502 69.5 112.458C69.5 112.414 69.5 112.37 69.5 112.326C69.5 112.282 69.5 112.238 69.5 112.193C69.5 112.149 69.5 112.105 69.5 112.061C69.5 112.017 69.5 111.973 69.5 111.929C69.5 111.885 69.5 111.841 69.5 111.797C69.5 111.753 69.5 111.709 69.5 111.665C69.5 111.621 69.5 111.576 69.5 111.532C69.5 111.488 69.5 111.444 69.5 111.4C69.5 111.356 69.5 111.312 69.5 111.268C69.5 111.224 69.5 111.18 69.5 111.136C69.5 111.092 69.5 111.048 69.5 111.004C69.5 110.96 69.5 110.915 69.5 110.871C69.5 110.827 69.5 110.783 69.5 110.739C69.5 110.695 69.5 110.651 69.5 110.607C69.5 110.563 69.5 110.519 69.5 110.475C69.5 110.431 69.5 110.387 69.5 110.343C69.5 110.299 69.5 110.255 69.5 110.211C69.5 110.167 69.5 110.122 69.5 110.078C69.5 110.034 69.5 109.99 69.5 109.946C69.5 109.902 69.5 109.858 69.5 109.814C69.5 109.77 69.5 109.726 69.5 109.682C69.5 109.638 69.5 109.594 69.5 109.55C69.5 109.506 69.5 109.462 69.5 109.418C69.5 109.374 69.5 109.33 69.5 109.286C69.5 109.242 69.5 109.198 69.5 109.154C69.5 109.11 69.5 109.066 69.5 109.022C69.5 108.978 69.5 108.934 69.5 108.89C69.5 108.846 69.5 108.802 69.5 108.758C69.5 108.714 69.5 108.67 69.5 108.626C69.5 108.582 69.5 108.538 69.5 108.494C69.5 108.45 69.5 108.406 69.5 108.362C69.5 108.318 69.5 108.274 69.5 108.23C69.5 108.186 69.5 108.142 69.5 108.098C69.5 108.054 69.5 108.01 69.5 107.966C69.5 107.922 69.5 107.878 69.5 107.835C69.5 107.791 69.5 107.747 69.5 107.703C69.5 107.659 69.5 107.615 69.5 107.571C69.5 107.527 69.5 107.483 69.5 107.439C69.5 107.395 69.5 107.351 69.5 107.308C69.5 107.264 69.5 107.22 69.5 107.176C69.5 107.132 69.5 107.088 69.5 107.044C69.5 107 69.5 106.956 69.5 106.913C69.5 106.869 69.5 106.825 69.5 106.781C69.5 106.737 69.5 106.693 69.5 106.649C69.5 106.606 69.5 106.562 69.5 106.518C69.5 106.474 69.5 106.43 69.5 106.386C69.5 106.343 69.5 106.299 69.5 106.255C69.5 106.211 69.5 106.167 69.5 106.124C69.5 106.08 69.5 106.036 69.5 105.992C69.5 105.949 69.5 105.905 69.5 105.861C69.5 105.817 69.5 105.773 69.5 105.73C69.5 105.686 69.5 105.642 69.5 105.599C69.5 105.555 69.5 105.511 69.5 105.467C69.5 105.424 69.5 105.38 69.5 105.336C69.5 105.292 69.5 105.249 69.5 105.205C69.5 105.161 69.5 105.118 69.5 105.074C69.5 105.03 69.5 104.987 69.5 104.943C69.5 104.899 69.5 104.856 69.5 104.812C69.5 104.768 69.5 104.725 69.5 104.681C69.5 104.638 69.5 104.594 69.5 104.55C69.5 104.507 69.5 104.463 69.5 104.419C69.5 104.376 69.5 104.332 69.5 104.289C69.5 104.245 69.5 104.202 69.5 104.158C69.5 104.114 69.5 104.071 69.5 104.027C69.5 103.984 69.5 103.94 69.5 103.897C69.5 103.853 69.5 103.81 69.5 103.766C69.5 103.723 69.5 103.679 69.5 103.636C69.5 103.592 69.5 103.549 69.5 103.505C69.5 103.462 69.5 103.418 69.5 103.375C69.5 103.331 69.5 103.288 69.5 103.245C69.5 103.201 69.5 103.158 69.5 103.114C69.5 103.071 69.5 103.028 69.5 102.984C69.5 102.941 69.5 102.897 69.5 102.854C69.5 102.811 69.5 102.767 69.5 102.724C69.5 102.681 69.5 102.637 69.5 102.594C69.5 102.551 69.5 102.507 69.5 102.464C69.5 102.421 69.5 102.377 69.5 102.334C69.5 102.291 69.5 102.248 69.5 102.204C69.5 102.161 69.5 102.118 69.5 102.075C69.5 102.031 69.5 101.988 69.5 101.945C69.5 101.902 69.5 101.859 69.5 101.815C69.5 101.772 69.5 101.729 69.5 101.686C69.5 101.643 69.5 101.599 69.5 101.556C69.5 101.513 69.5 101.47 69.5 101.427C69.5 101.384 69.5 101.341 69.5 101.298C69.5 101.255 69.5 101.211 69.5 101.168C69.5 101.125 69.5 101.082 69.5 101.039C69.5 100.996 69.5 100.953 69.5 100.91C69.5 100.867 69.5 100.824 69.5 100.781C69.5 100.738 69.5 100.695 69.5 100.652C69.5 100.609 69.5 100.566 69.5 100.523C69.5 100.48 69.5 100.437 69.5 100.394C69.5 100.352 69.5 100.309 69.5 100.266C69.5 100.223 69.5 100.18 69.5 100.137C69.5 100.094 69.5 100.051 69.5 100.009C69.5 99.9658 69.5 99.9229 69.5 99.8801C69.5 99.8373 69.5 99.7945 69.5 99.7518C69.5 99.709 69.5 99.6662 69.5 99.6235C69.5 99.5807 69.5 99.538 69.5 99.4953C69.5 99.4525 69.5 99.4098 69.5 99.3671C69.5 99.3244 69.5 99.2818 69.5 99.2391C69.5 99.1964 69.5 99.1538 69.5 99.1112C69.5 99.0685 69.5 99.0259 69.5 98.9833C69.5 98.9407 69.5 98.8981 69.5 98.8555C69.5 98.813 69.5 98.7704 69.5 98.7279C69.5 98.6853 69.5 98.6428 69.5 98.6003C69.5 98.5578 69.5 98.5153 69.5 98.4728C69.5 98.4303 69.5 98.3879 69.5 98.3454C69.5 98.303 69.5 98.2605 69.5 98.2181C69.5 98.1757 69.5 98.1333 69.5 98.0909C69.5 98.0485 69.5 98.0062 69.5 97.9638C69.5 97.9214 69.5 97.8791 69.5 97.8368C69.5 97.7945 69.5 97.7522 69.5 97.7099C69.5 97.6676 69.5 97.6253 69.5 97.5831C69.5 97.5408 69.5 97.4986 69.5 97.4564C69.5 97.4141 69.5 97.3719 69.5 97.3297C69.5 97.2876 69.5 97.2454 69.5 97.2032C69.5 97.1611 69.5 97.119 69.5 97.0768C69.5 97.0347 69.5 96.9926 69.5 96.9505C69.5 96.9085 69.5 96.8664 69.5 96.8243C69.5 96.7823 69.5 96.7403 69.5 96.6983C69.5 96.6562 69.5 96.6142 69.5 96.5723C69.5 96.5303 69.5 96.4883 69.5 96.4464C69.5 96.4045 69.5 96.3625 69.5 96.3206C69.5 96.2787 69.5 96.2368 69.5 96.195C69.5 96.1531 69.5 96.1113 69.5 96.0694C69.5 96.0276 69.5 95.9858 69.5 95.944C69.5 95.9022 69.5 95.8604 69.5 95.8187C69.5 95.7769 69.5 95.7352 69.5 95.6935C69.5 95.6518 69.5 95.6101 69.5 95.5684C69.5 95.5267 69.5 95.485 69.5 95.4434C69.5 95.4018 69.5 95.3601 69.5 95.3185C69.5 95.2769 69.5 95.2354 69.5 95.1938C69.5 95.1522 69.5 95.1107 69.5 95.0692C69.5 95.0276 69.5 94.9861 69.5 94.9447C69.5 94.9032 69.5 94.8617 69.5 94.8203C69.5 94.7788 69.5 94.7374 69.5 94.696C69.5 94.6546 69.5 94.6132 69.5 94.5719C69.5 94.5305 69.5 94.4892 69.5 94.4478C69.5 94.4065 69.5 94.3652 69.5 94.3239C69.5 94.2827 69.5 94.2414 69.5 94.2002C69.5 94.1589 69.5 94.1177 69.5 94.0765C69.5 94.0353 69.5 93.9941 69.5 93.953C69.5 93.9118 69.5 93.8707 69.5 93.8296C69.5 93.7885 69.5 93.7474 69.5 93.7063C69.5 93.6653 69.5 93.6242 69.5 93.5832C69.5 93.5422 69.5 93.5012 69.5 93.4602C69.5 93.4192 69.5 93.3782 69.5 93.3373C69.5 93.2964 69.5 93.2554 69.5 93.2146C69.5 93.1737 69.5 93.1328 69.5 93.0919C69.5 93.0511 69.5 93.0103 69.5 92.9695C69.5 92.9287 69.5 92.8879 69.5 92.8471C69.5 92.8064 69.5 92.7656 69.5 92.7249C69.5 92.6842 69.5 92.6435 69.5 92.6028C69.5 92.5622 69.5 92.5215 69.5 92.4809C69.5 92.4403 69.5 92.3997 69.5 92.3591C69.5 92.3185 69.5 92.278 69.5 92.2374C69.5 92.1969 69.5 92.1564 69.5 92.1159C69.5 92.0754 69.5 92.035 69.5 91.9945C69.5 91.9541 69.5 91.9137 69.5 91.8733C69.5 91.8329 69.5 91.7926 69.5 91.7522C69.5 91.7119 69.5 91.6716 69.5 91.6313C69.5 91.591 69.5 91.5507 69.5 91.5105C69.5 91.4702 69.5 91.43 69.5 91.3898C69.5 91.3496 69.5 91.3095 69.5 91.2693C69.5 91.2292 69.5 91.189 69.5 91.1489C69.5 91.1088 69.5 91.0688 69.5 91.0287C69.5 90.9887 69.5 90.9487 69.5 90.9087C69.5 90.8687 69.5 90.8287 69.5 90.7888C69.5 90.7488 69.5 90.7089 69.5 90.669C69.5 90.6291 69.5 90.5892 69.5 90.5494C69.5 90.5095 69.5 90.4697 69.5 90.4299C69.5 90.3901 69.5 90.3504 69.5 90.3106C69.5 90.2709 69.5 90.2312 69.5 90.1915C69.5 90.1518 69.5 90.1121 69.5 90.0725C69.5 90.0328 69.5 89.9932 69.5 89.9536C69.5 89.9141 69.5 89.8745 69.5 89.835C69.5 89.7954 69.5 89.7559 69.5 89.7164C69.5 89.677 69.5 89.6375 69.5 89.5981C69.5 89.5587 69.5 89.5193 69.5 89.4799C69.5 89.4405 69.5 89.4012 69.5 89.3619C69.5 89.3225 69.5 89.2832 69.5 89.244C69.5 89.2047 69.5 89.1655 69.5 89.1263C69.5 89.0871 69.5 89.0479 69.5 89.0087C69.5 88.9696 69.5 88.9304 69.5 88.8913C69.5 88.8522 69.5 88.8132 69.5 88.7741C69.5 88.7351 69.5 88.6961 69.5 88.6571C69.5 88.6181 69.5 88.5791 69.5 88.5402C69.5 88.5013 69.5 88.4624 69.5 88.4235C69.5 88.3846 69.5 88.3458 69.5 88.3069C69.5 88.2681 69.5 88.2293 69.5 88.1906C69.5 88.1518 69.5 88.1131 69.5 88.0744C69.5 88.0357 69.5 87.997 69.5 87.9583C69.5 87.9197 69.5 87.8811 69.5 87.8425C69.5 87.8039 69.5 87.7653 69.5 87.7268C69.5 87.6883 69.5 87.6498 69.5 87.6113C69.5 87.5728 69.5 87.5344 69.5 87.496C69.5 87.4576 69.5 87.4192 69.5 87.3808C69.5 87.3425 69.5 87.3042 69.5 87.2659C69.5 87.2276 69.5 87.1893 69.5 87.1511C69.5 87.1128 69.5 87.0746 69.5 87.0365C69.5 86.9983 69.5 86.9601 69.5 86.922C69.5 86.8839 69.5 86.8458 69.5 86.8078C69.5 86.7697 69.5 86.7317 69.5 86.6937C69.5 86.6557 69.5 86.6178 69.5 86.5798C69.5 86.5419 69.5 86.504 69.5 86.4661C69.5 86.4283 69.5 86.3904 69.5 86.3526C69.5 86.3148 69.5 86.277 69.5 86.2393C69.5 86.2015 69.5 86.1638 69.5 86.1261C69.5 86.0885 69.5 86.0508 69.5 86.0132C69.5 85.9756 69.5 85.938 69.5 85.9004C69.5 85.8629 69.5 85.8254 69.5 85.7879C69.5 85.7504 69.5 85.7129 69.5 85.6755C69.5 85.638 69.5 85.6007 69.5 85.5633C69.5 85.5259 69.5 85.4886 69.5 85.4513C69.5 85.414 69.5 85.3767 69.5 85.3395C69.5 85.3023 69.5 85.2651 69.5 85.2279C69.5 85.1907 69.5 85.1536 69.5 85.1165C69.5 85.0794 69.5 85.0423 69.5 85.0053C69.5 84.9682 69.5 84.9312 69.5 84.8942C69.5 84.8573 69.5 84.8203 69.5 84.7834C69.5 84.7465 69.5 84.7096 69.5 84.6728C69.5 84.636 69.5 84.5992 69.5 84.5624C69.5 84.5256 69.5 84.4889 69.5 84.4522C69.5 84.4155 69.5 84.3788 69.5 84.3422C69.5 84.3055 69.5 84.2689 69.5 84.2323C69.5 84.1958 69.5 84.1592 69.5 84.1227C69.5 84.0862 69.5 84.0498 69.5 84.0133C69.5 83.9769 69.5 83.9405 69.5 83.9041C69.5 83.8678 69.5 83.8314 69.5 83.7951C69.5 83.7588 69.5 83.7226 69.5 83.6864C69.5 83.6501 69.5 83.6139 69.5 83.5778C69.5 83.5416 69.5 83.5055 69.5 83.4694C69.5 83.4333 69.5 83.3973 69.5 83.3613C69.5 83.3253 69.5 83.2893 69.5 83.2533C69.5 83.2174 69.5 83.1815 69.5 83.1456C69.5 83.1097 69.5 83.0739 69.5 83.0381C69.5 83.0023 69.5 82.9665 69.5 82.9308C69.5 82.895 69.5 82.8594 69.5 82.8237C69.5 82.788 69.5 82.7524 69.5 82.7168C69.5 82.6812 69.5 82.6457 69.5 82.6102C69.5 82.5747 69.5 82.5392 69.5 82.5037C69.5 82.4683 69.5 82.4329 69.5 82.3975C69.5 82.3621 69.5 82.3268 69.5 82.2915C69.5 82.2562 69.5 82.221 69.5 82.1857C69.5 82.1505 69.5 82.1153 69.5 82.0802C69.5 82.045 69.5 82.0099 69.5 81.9749C69.5 81.9398 69.5 81.9047 69.5 81.8697C69.5 81.8347 69.5 81.7998 69.5 81.7649C69.5 81.7299 69.5 81.695 69.5 81.6602C69.5 81.6254 69.5 81.5905 69.5 81.5558C69.5 81.521 69.5 81.4863 69.5 81.4516C69.5 81.4169 69.5 81.3822 69.5 81.3476C69.5 81.313 69.5 81.2784 69.5 81.2438C69.5 81.2093 69.5 81.1748 69.5 81.1403C69.5 81.1058 69.5 81.0714 69.5 81.037C69.5 81.0026 69.5 80.9683 69.5 80.934C69.5 80.8997 69.5 80.8654 69.5 80.8312C69.5 80.7969 69.5 80.7627 69.5 80.7286C69.5 80.6944 69.5 80.6603 69.5 80.6262C69.5 80.5921 69.5 80.5581 69.5 80.5241C69.5 80.4901 69.5 80.4561 69.5 80.4222C69.5 80.3883 69.5 80.3544 69.5 80.3206C69.5 80.2867 69.5 80.2529 69.5 80.2192C69.5 80.1854 69.5 80.1517 69.5 80.118C69.5 80.0843 69.5 80.0507 69.5 80.0171C69.5 79.9835 69.5 79.9499 69.5 79.9164C69.5 79.8828 69.5 79.8494 69.5 79.8159C69.5 79.7825 69.5 79.7491 69.5 79.7157C69.5 79.6824 69.5 79.649 69.5 79.6158C69.5 79.5825 69.5 79.5492 69.5 79.5161C69.5 79.4829 69.5 79.4497 69.5 79.4166C69.5 79.3835 69.5 79.3504 69.5 79.3174C69.5 79.2843 69.5 79.2513 69.5 79.2184C69.5 79.1854 69.5 79.1525 69.5 79.1197C69.5 79.0868 69.5 79.054 69.5 79.0212C69.5 78.9884 69.5 78.9557 69.5 78.923C69.5 78.8903 69.5 78.8576 69.5 78.825C69.5 78.7924 69.5 78.7598 69.5 78.7273C69.5 78.6947 69.5 78.6622 69.5 78.6298C69.5 78.5974 69.5 78.5649 69.5 78.5326C69.5 78.5002 69.5 78.4679 69.5 78.4356C69.5 78.4034 69.5 78.3711 69.5 78.3389C69.5 78.3067 69.5 78.2746 69.5 78.2425C69.5 78.2104 69.5 78.1783 69.5 78.1463C69.5 78.1143 69.5 78.0823 69.5 78.0504C69.5 78.0184 69.5 77.9865 69.5 77.9547C69.5 77.9228 69.5 77.891 69.5 77.8593C69.5 77.8275 69.5 77.7958 69.5 77.7641C69.5 77.7325 69.5 77.7008 69.5 77.6692C69.5 77.6377 69.5 77.6061 69.5 77.5746C69.5 77.5431 69.5 77.5117 69.5 77.4803C69.5 77.4488 69.5 77.4175 69.5 77.3862C69.5 77.3548 69.5 77.3236 69.5 77.2923C69.5 77.2611 69.5 77.2299 69.5 77.1988C69.5 77.1676 69.5 77.1365 69.5 77.1055C69.5 77.0744 69.5 77.0434 69.5 77.0125C69.5 76.9815 69.5 76.9506 69.5 76.9197C69.5 76.8888 69.5 76.858 69.5 76.8272C69.5 76.7964 69.5 76.7657 69.5 76.735C69.5 76.7043 69.5 76.6737 69.5 76.6431C69.5 76.6125 69.5 76.5819 69.5 76.5514C69.5 76.5209 69.5 76.4904 69.5 76.46C69.5 76.4296 69.5 76.3992 69.5 76.3689C69.5 76.3386 69.5 76.3083 69.5 76.2781C69.5 76.2478 69.5 76.2176 69.5 76.1875C69.5 76.1574 69.5 76.1273 69.5 76.0972C69.5 76.0672 69.5 76.0372 69.5 76.0072C69.5 75.9772 69.5 75.9473 69.5 75.9175C69.5 75.8876 69.5 75.8578 69.5 75.828C69.5 75.7983 69.5 75.7685 69.5 75.7389C69.5 75.7092 69.5 75.6796 69.5 75.65C69.5 75.6204 69.5 75.5909 69.5 75.5614C69.5 75.5319 69.5 75.5025 69.5 75.4731C69.5 75.4437 69.5 75.4143 69.5 75.3851C69.5 75.3558 69.5 75.3265 69.5 75.2973C69.5 75.2681 69.5 75.239 69.5 75.2099C69.5 75.1808 69.5 75.1517 69.5 75.1227C69.5 75.0937 69.5 75.0647 69.5 75.0358C69.5 75.0069 69.5 74.978 69.5 74.9492C69.5 74.9204 69.5 74.8917 69.5 74.8629C69.5 74.8342 69.5 74.8056 69.5 74.7769C69.5 74.7483 69.5 74.7197 69.5 74.6912C69.5 74.6627 69.5 74.6342 69.5 74.6058C69.5 74.5774 69.5 74.549 69.5 74.5207C69.5 74.4924 69.5 74.4641 69.5 74.4359C69.5 74.4076 69.5 74.3795 69.5 74.3513C69.5 74.3232 69.5 74.2951 69.5 74.2671C69.5 74.2391 69.5 74.2111 69.5 74.1832C69.5 74.1552 69.5 74.1274 69.5 74.0995C69.5 74.0717 69.5 74.0439 69.5 74.0162C69.5 73.9885 69.5 73.9608 69.5 73.9332C69.5 73.9055 69.5 73.878 69.5 73.8504C69.5 73.8229 69.5 73.7954 69.5 73.768C69.5 73.7406 69.5 73.7132 69.5 73.6859C69.5 73.6586 69.5 73.6313 69.5 73.6041C69.5 73.5769 69.5 73.5497 69.5 73.5226C69.5 73.4954 69.5 73.4684 69.5 73.4414C69.5 73.4143 69.5 73.3874 69.5 73.3605C69.5 73.3335 69.5 73.3067 69.5 73.2799C69.5 73.2531 69.5 73.2263 69.5 73.1996C69.5 73.1729 69.5 73.1462 69.5 73.1196C69.5 73.093 69.5 73.0665 69.5 73.04C69.5 73.0135 69.5 72.987 69.5 72.9606C69.5 72.9342 69.5 72.9079 69.5 72.8816C69.5 72.8553 69.5 72.8291 69.5 72.8029C69.5 72.7767 69.5 72.7506 69.5 72.7245C69.5 72.6984 69.5 72.6724 69.5 72.6464C69.5 72.6204 69.5 72.5945 69.5 72.5686C69.5 72.5427 69.5 72.5169 69.5 72.4912C69.5 72.4654 69.5 72.4397 69.5 72.414C69.5 72.3884 69.5 72.3628 69.5 72.3372C69.5 72.3117 69.5 72.2862 69.5 72.2607C69.5 72.2353 69.5 72.2099 69.5 72.1846C69.5 72.1592 69.5 72.1339 69.5 72.1087C69.5 72.0835 69.5 72.0583 69.5 72.0332C69.5 72.0081 69.5 71.983 69.5 71.958C69.5 71.933 69.5 71.908 69.5 71.8831C69.5 71.8582 69.5 71.8333 69.5 71.8086C69.5 71.7838 69.5 71.759 69.5 71.7343C69.5 71.7096 69.5 71.685 69.5 71.6604C69.5 71.6359 69.5 71.6113 69.5 71.5869C69.5 71.5624 69.5 71.538 69.5 71.5136C69.5 71.4893 69.5 71.465 69.5 71.4407C69.5 71.4165 69.5 71.3923 69.5 71.3682C69.5 71.344 69.5 71.3199 69.5 71.2959C69.5 71.2719 69.5 71.2479 69.5 71.224C69.5 71.2001 69.5 71.1762 69.5 71.1524C69.5 71.1286 69.5 71.1049 69.5 71.0812C69.5 71.0575 69.5 71.0339 69.5 71.0103C69.5 70.9867 69.5 70.9632 69.5 70.9397C69.5 70.9163 69.5 70.8929 69.5 70.8695C69.5 70.8462 69.5 70.8229 69.5 70.7996C69.5 70.7764 69.5 70.7532 69.5 70.7301C69.5 70.707 69.5 70.6839 69.5 70.6609C69.5 70.6379 69.5 70.6149 69.5 70.592C69.5 70.5691 69.5 70.5463 69.5 70.5235C69.5 70.5007 69.5 70.478 69.5 70.4553C69.5 70.4327 69.5 70.4101 69.5 70.3875C69.5 70.3649 69.5 70.3425 69.5 70.32C69.5 70.2976 69.5 70.2752 69.5 70.2529C69.5 70.2306 69.5 70.2083 69.5 70.1861C69.5 70.1639 69.5 70.1417 69.5 70.1196C69.5 70.0976 69.5 70.0755 69.5 70.0536C69.5 70.0316 69.5 70.0097 69.5 69.9878C69.5 69.966 69.5 69.9442 69.5 69.9224C69.5 69.9007 69.5 69.879 69.5 69.8574C69.5 69.8358 69.5 69.8142 69.5 69.7927C69.5 69.7712 69.5 69.7497 69.5 69.7284C69.5 69.707 69.5 69.6856 69.5 69.6644C69.5 69.6431 69.5 69.6219 69.5 69.6008C69.5 69.5796 69.5 69.5585 69.5 69.5375C69.5 69.5165 69.5 69.4955 69.5 69.4746C69.5 69.4537 69.5 69.4328 69.5 69.412C69.5 69.3912 69.5 69.3705 69.5 69.3498C69.5 69.3292 69.5 69.3086 69.5 69.288C69.5 69.2675 69.5 69.247 69.5 69.2266C69.5 69.2061 69.5 69.1858 69.5 69.1654C69.5 69.1451 69.5 69.1249 69.5 69.1047C69.5 69.0845 69.5 69.0644 69.5 69.0443C69.5 69.0243 69.5 69.0043 69.5 68.9843C69.5 68.9644 69.5 68.9445 69.5 68.9247C69.5 68.9048 69.5 68.8851 69.5 68.8654C69.5 68.8457 69.5 68.8261 69.5 68.8065C69.5 68.7869 69.5 68.7674 69.5 68.7479C69.5 68.7285 69.5 68.7091 69.5 68.6898C69.5 68.6704 69.5 68.6512 69.5 68.632H63.5C63.5 68.6512 63.5 68.6704 63.5 68.6898C63.5 68.7091 63.5 68.7285 63.5 68.7479C63.5 68.7674 63.5 68.7869 63.5 68.8065C63.5 68.8261 63.5 68.8457 63.5 68.8654C63.5 68.8851 63.5 68.9048 63.5 68.9247C63.5 68.9445 63.5 68.9644 63.5 68.9843C63.5 69.0043 63.5 69.0243 63.5 69.0443C63.5 69.0644 63.5 69.0845 63.5 69.1047C63.5 69.1249 63.5 69.1451 63.5 69.1654C63.5 69.1858 63.5 69.2061 63.5 69.2266C63.5 69.247 63.5 69.2675 63.5 69.288C63.5 69.3086 63.5 69.3292 63.5 69.3498C63.5 69.3705 63.5 69.3912 63.5 69.412C63.5 69.4328 63.5 69.4537 63.5 69.4746C63.5 69.4955 63.5 69.5165 63.5 69.5375C63.5 69.5585 63.5 69.5796 63.5 69.6008C63.5 69.6219 63.5 69.6431 63.5 69.6644C63.5 69.6856 63.5 69.707 63.5 69.7284C63.5 69.7497 63.5 69.7712 63.5 69.7927C63.5 69.8142 63.5 69.8358 63.5 69.8574C63.5 69.879 63.5 69.9007 63.5 69.9224C63.5 69.9442 63.5 69.966 63.5 69.9878C63.5 70.0097 63.5 70.0316 63.5 70.0536C63.5 70.0755 63.5 70.0976 63.5 70.1196C63.5 70.1417 63.5 70.1639 63.5 70.1861C63.5 70.2083 63.5 70.2306 63.5 70.2529C63.5 70.2752 63.5 70.2976 63.5 70.32C63.5 70.3425 63.5 70.3649 63.5 70.3875C63.5 70.4101 63.5 70.4327 63.5 70.4553C63.5 70.478 63.5 70.5007 63.5 70.5235C63.5 70.5463 63.5 70.5691 63.5 70.592C63.5 70.6149 63.5 70.6379 63.5 70.6609C63.5 70.6839 63.5 70.707 63.5 70.7301C63.5 70.7532 63.5 70.7764 63.5 70.7996C63.5 70.8229 63.5 70.8462 63.5 70.8695C63.5 70.8929 63.5 70.9163 63.5 70.9397C63.5 70.9632 63.5 70.9867 63.5 71.0103C63.5 71.0339 63.5 71.0575 63.5 71.0812C63.5 71.1049 63.5 71.1286 63.5 71.1524C63.5 71.1762 63.5 71.2001 63.5 71.224C63.5 71.2479 63.5 71.2719 63.5 71.2959C63.5 71.3199 63.5 71.344 63.5 71.3682C63.5 71.3923 63.5 71.4165 63.5 71.4407C63.5 71.465 63.5 71.4893 63.5 71.5136C63.5 71.538 63.5 71.5624 63.5 71.5869C63.5 71.6113 63.5 71.6359 63.5 71.6604C63.5 71.685 63.5 71.7096 63.5 71.7343C63.5 71.759 63.5 71.7838 63.5 71.8086C63.5 71.8333 63.5 71.8582 63.5 71.8831C63.5 71.908 63.5 71.933 63.5 71.958C63.5 71.983 63.5 72.0081 63.5 72.0332C63.5 72.0583 63.5 72.0835 63.5 72.1087C63.5 72.1339 63.5 72.1592 63.5 72.1846C63.5 72.2099 63.5 72.2353 63.5 72.2607C63.5 72.2862 63.5 72.3117 63.5 72.3372C63.5 72.3628 63.5 72.3884 63.5 72.414C63.5 72.4397 63.5 72.4654 63.5 72.4912C63.5 72.5169 63.5 72.5427 63.5 72.5686C63.5 72.5945 63.5 72.6204 63.5 72.6464C63.5 72.6724 63.5 72.6984 63.5 72.7245C63.5 72.7506 63.5 72.7767 63.5 72.8029C63.5 72.8291 63.5 72.8553 63.5 72.8816C63.5 72.9079 63.5 72.9342 63.5 72.9606C63.5 72.987 63.5 73.0135 63.5 73.04C63.5 73.0665 63.5 73.093 63.5 73.1196C63.5 73.1462 63.5 73.1729 63.5 73.1996C63.5 73.2263 63.5 73.2531 63.5 73.2799C63.5 73.3067 63.5 73.3335 63.5 73.3605C63.5 73.3874 63.5 73.4143 63.5 73.4414C63.5 73.4684 63.5 73.4954 63.5 73.5226C63.5 73.5497 63.5 73.5769 63.5 73.6041C63.5 73.6313 63.5 73.6586 63.5 73.6859C63.5 73.7132 63.5 73.7406 63.5 73.768C63.5 73.7954 63.5 73.8229 63.5 73.8504C63.5 73.878 63.5 73.9055 63.5 73.9332C63.5 73.9608 63.5 73.9885 63.5 74.0162C63.5 74.0439 63.5 74.0717 63.5 74.0995C63.5 74.1274 63.5 74.1552 63.5 74.1832C63.5 74.2111 63.5 74.2391 63.5 74.2671C63.5 74.2951 63.5 74.3232 63.5 74.3513C63.5 74.3795 63.5 74.4076 63.5 74.4359C63.5 74.4641 63.5 74.4924 63.5 74.5207C63.5 74.549 63.5 74.5774 63.5 74.6058C63.5 74.6342 63.5 74.6627 63.5 74.6912C63.5 74.7197 63.5 74.7483 63.5 74.7769C63.5 74.8056 63.5 74.8342 63.5 74.8629C63.5 74.8917 63.5 74.9204 63.5 74.9492C63.5 74.978 63.5 75.0069 63.5 75.0358C63.5 75.0647 63.5 75.0937 63.5 75.1227C63.5 75.1517 63.5 75.1808 63.5 75.2099C63.5 75.239 63.5 75.2681 63.5 75.2973C63.5 75.3265 63.5 75.3558 63.5 75.3851C63.5 75.4143 63.5 75.4437 63.5 75.4731C63.5 75.5025 63.5 75.5319 63.5 75.5614C63.5 75.5909 63.5 75.6204 63.5 75.65C63.5 75.6796 63.5 75.7092 63.5 75.7389C63.5 75.7685 63.5 75.7983 63.5 75.828C63.5 75.8578 63.5 75.8876 63.5 75.9175C63.5 75.9473 63.5 75.9772 63.5 76.0072C63.5 76.0372 63.5 76.0672 63.5 76.0972C63.5 76.1273 63.5 76.1574 63.5 76.1875C63.5 76.2176 63.5 76.2478 63.5 76.2781C63.5 76.3083 63.5 76.3386 63.5 76.3689C63.5 76.3992 63.5 76.4296 63.5 76.46C63.5 76.4904 63.5 76.5209 63.5 76.5514C63.5 76.5819 63.5 76.6125 63.5 76.6431C63.5 76.6737 63.5 76.7043 63.5 76.735C63.5 76.7657 63.5 76.7964 63.5 76.8272C63.5 76.858 63.5 76.8888 63.5 76.9197C63.5 76.9506 63.5 76.9815 63.5 77.0125C63.5 77.0434 63.5 77.0744 63.5 77.1055C63.5 77.1365 63.5 77.1676 63.5 77.1988C63.5 77.2299 63.5 77.2611 63.5 77.2923C63.5 77.3236 63.5 77.3548 63.5 77.3862C63.5 77.4175 63.5 77.4488 63.5 77.4803C63.5 77.5117 63.5 77.5431 63.5 77.5746C63.5 77.6061 63.5 77.6377 63.5 77.6692C63.5 77.7008 63.5 77.7325 63.5 77.7641C63.5 77.7958 63.5 77.8275 63.5 77.8593C63.5 77.891 63.5 77.9228 63.5 77.9547C63.5 77.9865 63.5 78.0184 63.5 78.0504C63.5 78.0823 63.5 78.1143 63.5 78.1463C63.5 78.1783 63.5 78.2104 63.5 78.2425C63.5 78.2746 63.5 78.3067 63.5 78.3389C63.5 78.3711 63.5 78.4034 63.5 78.4356C63.5 78.4679 63.5 78.5002 63.5 78.5326C63.5 78.5649 63.5 78.5974 63.5 78.6298C63.5 78.6622 63.5 78.6947 63.5 78.7273C63.5 78.7598 63.5 78.7924 63.5 78.825C63.5 78.8576 63.5 78.8903 63.5 78.923C63.5 78.9557 63.5 78.9884 63.5 79.0212C63.5 79.054 63.5 79.0868 63.5 79.1197C63.5 79.1525 63.5 79.1854 63.5 79.2184C63.5 79.2513 63.5 79.2843 63.5 79.3174C63.5 79.3504 63.5 79.3835 63.5 79.4166C63.5 79.4497 63.5 79.4829 63.5 79.5161C63.5 79.5492 63.5 79.5825 63.5 79.6158C63.5 79.649 63.5 79.6824 63.5 79.7157C63.5 79.7491 63.5 79.7825 63.5 79.8159C63.5 79.8494 63.5 79.8828 63.5 79.9164C63.5 79.9499 63.5 79.9835 63.5 80.0171C63.5 80.0507 63.5 80.0843 63.5 80.118C63.5 80.1517 63.5 80.1854 63.5 80.2192C63.5 80.2529 63.5 80.2867 63.5 80.3206C63.5 80.3544 63.5 80.3883 63.5 80.4222C63.5 80.4561 63.5 80.4901 63.5 80.5241C63.5 80.5581 63.5 80.5921 63.5 80.6262C63.5 80.6603 63.5 80.6944 63.5 80.7286C63.5 80.7627 63.5 80.7969 63.5 80.8312C63.5 80.8654 63.5 80.8997 63.5 80.934C63.5 80.9683 63.5 81.0026 63.5 81.037C63.5 81.0714 63.5 81.1058 63.5 81.1403C63.5 81.1748 63.5 81.2093 63.5 81.2438C63.5 81.2784 63.5 81.313 63.5 81.3476C63.5 81.3822 63.5 81.4169 63.5 81.4516C63.5 81.4863 63.5 81.521 63.5 81.5558C63.5 81.5905 63.5 81.6254 63.5 81.6602C63.5 81.695 63.5 81.7299 63.5 81.7649C63.5 81.7998 63.5 81.8347 63.5 81.8697C63.5 81.9047 63.5 81.9398 63.5 81.9749C63.5 82.0099 63.5 82.045 63.5 82.0802C63.5 82.1153 63.5 82.1505 63.5 82.1857C63.5 82.221 63.5 82.2562 63.5 82.2915C63.5 82.3268 63.5 82.3621 63.5 82.3975C63.5 82.4329 63.5 82.4683 63.5 82.5037C63.5 82.5392 63.5 82.5747 63.5 82.6102C63.5 82.6457 63.5 82.6812 63.5 82.7168C63.5 82.7524 63.5 82.788 63.5 82.8237C63.5 82.8594 63.5 82.895 63.5 82.9308C63.5 82.9665 63.5 83.0023 63.5 83.0381C63.5 83.0739 63.5 83.1097 63.5 83.1456C63.5 83.1815 63.5 83.2174 63.5 83.2533C63.5 83.2893 63.5 83.3253 63.5 83.3613C63.5 83.3973 63.5 83.4333 63.5 83.4694C63.5 83.5055 63.5 83.5416 63.5 83.5778C63.5 83.6139 63.5 83.6501 63.5 83.6864C63.5 83.7226 63.5 83.7588 63.5 83.7951C63.5 83.8314 63.5 83.8678 63.5 83.9041C63.5 83.9405 63.5 83.9769 63.5 84.0133C63.5 84.0498 63.5 84.0862 63.5 84.1227C63.5 84.1592 63.5 84.1958 63.5 84.2323C63.5 84.2689 63.5 84.3055 63.5 84.3422C63.5 84.3788 63.5 84.4155 63.5 84.4522C63.5 84.4889 63.5 84.5256 63.5 84.5624C63.5 84.5992 63.5 84.636 63.5 84.6728C63.5 84.7096 63.5 84.7465 63.5 84.7834C63.5 84.8203 63.5 84.8573 63.5 84.8942C63.5 84.9312 63.5 84.9682 63.5 85.0053C63.5 85.0423 63.5 85.0794 63.5 85.1165C63.5 85.1536 63.5 85.1907 63.5 85.2279C63.5 85.2651 63.5 85.3023 63.5 85.3395C63.5 85.3767 63.5 85.414 63.5 85.4513C63.5 85.4886 63.5 85.5259 63.5 85.5633C63.5 85.6007 63.5 85.638 63.5 85.6755C63.5 85.7129 63.5 85.7504 63.5 85.7879C63.5 85.8254 63.5 85.8629 63.5 85.9004C63.5 85.938 63.5 85.9756 63.5 86.0132C63.5 86.0508 63.5 86.0885 63.5 86.1261C63.5 86.1638 63.5 86.2015 63.5 86.2393C63.5 86.277 63.5 86.3148 63.5 86.3526C63.5 86.3904 63.5 86.4283 63.5 86.4661C63.5 86.504 63.5 86.5419 63.5 86.5798C63.5 86.6178 63.5 86.6557 63.5 86.6937C63.5 86.7317 63.5 86.7697 63.5 86.8078C63.5 86.8458 63.5 86.8839 63.5 86.922C63.5 86.9601 63.5 86.9983 63.5 87.0365C63.5 87.0746 63.5 87.1128 63.5 87.1511C63.5 87.1893 63.5 87.2276 63.5 87.2659C63.5 87.3042 63.5 87.3425 63.5 87.3808C63.5 87.4192 63.5 87.4576 63.5 87.496C63.5 87.5344 63.5 87.5728 63.5 87.6113C63.5 87.6498 63.5 87.6883 63.5 87.7268C63.5 87.7653 63.5 87.8039 63.5 87.8425C63.5 87.8811 63.5 87.9197 63.5 87.9583C63.5 87.997 63.5 88.0357 63.5 88.0744C63.5 88.1131 63.5 88.1518 63.5 88.1906C63.5 88.2293 63.5 88.2681 63.5 88.3069C63.5 88.3458 63.5 88.3846 63.5 88.4235C63.5 88.4624 63.5 88.5013 63.5 88.5402C63.5 88.5791 63.5 88.6181 63.5 88.6571C63.5 88.6961 63.5 88.7351 63.5 88.7741C63.5 88.8132 63.5 88.8522 63.5 88.8913C63.5 88.9304 63.5 88.9696 63.5 89.0087C63.5 89.0479 63.5 89.0871 63.5 89.1263C63.5 89.1655 63.5 89.2047 63.5 89.244C63.5 89.2832 63.5 89.3225 63.5 89.3619C63.5 89.4012 63.5 89.4405 63.5 89.4799C63.5 89.5193 63.5 89.5587 63.5 89.5981C63.5 89.6375 63.5 89.677 63.5 89.7164C63.5 89.7559 63.5 89.7954 63.5 89.835C63.5 89.8745 63.5 89.9141 63.5 89.9536C63.5 89.9932 63.5 90.0328 63.5 90.0725C63.5 90.1121 63.5 90.1518 63.5 90.1915C63.5 90.2312 63.5 90.2709 63.5 90.3106C63.5 90.3504 63.5 90.3901 63.5 90.4299C63.5 90.4697 63.5 90.5095 63.5 90.5494C63.5 90.5892 63.5 90.6291 63.5 90.669C63.5 90.7089 63.5 90.7488 63.5 90.7888C63.5 90.8287 63.5 90.8687 63.5 90.9087C63.5 90.9487 63.5 90.9887 63.5 91.0287C63.5 91.0688 63.5 91.1088 63.5 91.1489C63.5 91.189 63.5 91.2292 63.5 91.2693C63.5 91.3095 63.5 91.3496 63.5 91.3898C63.5 91.43 63.5 91.4702 63.5 91.5105C63.5 91.5507 63.5 91.591 63.5 91.6313C63.5 91.6716 63.5 91.7119 63.5 91.7522C63.5 91.7926 63.5 91.8329 63.5 91.8733C63.5 91.9137 63.5 91.9541 63.5 91.9945C63.5 92.035 63.5 92.0754 63.5 92.1159C63.5 92.1564 63.5 92.1969 63.5 92.2374C63.5 92.278 63.5 92.3185 63.5 92.3591C63.5 92.3997 63.5 92.4403 63.5 92.4809C63.5 92.5215 63.5 92.5622 63.5 92.6028C63.5 92.6435 63.5 92.6842 63.5 92.7249C63.5 92.7656 63.5 92.8064 63.5 92.8471C63.5 92.8879 63.5 92.9287 63.5 92.9695C63.5 93.0103 63.5 93.0511 63.5 93.0919C63.5 93.1328 63.5 93.1737 63.5 93.2146C63.5 93.2554 63.5 93.2964 63.5 93.3373C63.5 93.3782 63.5 93.4192 63.5 93.4602C63.5 93.5012 63.5 93.5422 63.5 93.5832C63.5 93.6242 63.5 93.6653 63.5 93.7063C63.5 93.7474 63.5 93.7885 63.5 93.8296C63.5 93.8707 63.5 93.9118 63.5 93.953C63.5 93.9941 63.5 94.0353 63.5 94.0765C63.5 94.1177 63.5 94.1589 63.5 94.2002C63.5 94.2414 63.5 94.2827 63.5 94.3239C63.5 94.3652 63.5 94.4065 63.5 94.4478C63.5 94.4892 63.5 94.5305 63.5 94.5719C63.5 94.6132 63.5 94.6546 63.5 94.696C63.5 94.7374 63.5 94.7788 63.5 94.8203C63.5 94.8617 63.5 94.9032 63.5 94.9447C63.5 94.9861 63.5 95.0276 63.5 95.0692C63.5 95.1107 63.5 95.1522 63.5 95.1938C63.5 95.2354 63.5 95.2769 63.5 95.3185C63.5 95.3601 63.5 95.4018 63.5 95.4434C63.5 95.485 63.5 95.5267 63.5 95.5684C63.5 95.6101 63.5 95.6518 63.5 95.6935C63.5 95.7352 63.5 95.7769 63.5 95.8187C63.5 95.8604 63.5 95.9022 63.5 95.944C63.5 95.9858 63.5 96.0276 63.5 96.0694C63.5 96.1113 63.5 96.1531 63.5 96.195C63.5 96.2368 63.5 96.2787 63.5 96.3206C63.5 96.3625 63.5 96.4045 63.5 96.4464C63.5 96.4883 63.5 96.5303 63.5 96.5723C63.5 96.6142 63.5 96.6562 63.5 96.6983C63.5 96.7403 63.5 96.7823 63.5 96.8243C63.5 96.8664 63.5 96.9085 63.5 96.9505C63.5 96.9926 63.5 97.0347 63.5 97.0768C63.5 97.119 63.5 97.1611 63.5 97.2032C63.5 97.2454 63.5 97.2876 63.5 97.3297C63.5 97.3719 63.5 97.4141 63.5 97.4564C63.5 97.4986 63.5 97.5408 63.5 97.5831C63.5 97.6253 63.5 97.6676 63.5 97.7099C63.5 97.7522 63.5 97.7945 63.5 97.8368C63.5 97.8791 63.5 97.9214 63.5 97.9638C63.5 98.0062 63.5 98.0485 63.5 98.0909C63.5 98.1333 63.5 98.1757 63.5 98.2181C63.5 98.2605 63.5 98.303 63.5 98.3454C63.5 98.3879 63.5 98.4303 63.5 98.4728C63.5 98.5153 63.5 98.5578 63.5 98.6003C63.5 98.6428 63.5 98.6853 63.5 98.7279C63.5 98.7704 63.5 98.813 63.5 98.8555C63.5 98.8981 63.5 98.9407 63.5 98.9833C63.5 99.0259 63.5 99.0685 63.5 99.1112C63.5 99.1538 63.5 99.1964 63.5 99.2391C63.5 99.2818 63.5 99.3244 63.5 99.3671C63.5 99.4098 63.5 99.4525 63.5 99.4953C63.5 99.538 63.5 99.5807 63.5 99.6235C63.5 99.6662 63.5 99.709 63.5 99.7518C63.5 99.7945 63.5 99.8373 63.5 99.8801C63.5 99.9229 63.5 99.9658 63.5 100.009C63.5 100.051 63.5 100.094 63.5 100.137C63.5 100.18 63.5 100.223 63.5 100.266C63.5 100.309 63.5 100.352 63.5 100.394C63.5 100.437 63.5 100.48 63.5 100.523C63.5 100.566 63.5 100.609 63.5 100.652C63.5 100.695 63.5 100.738 63.5 100.781C63.5 100.824 63.5 100.867 63.5 100.91C63.5 100.953 63.5 100.996 63.5 101.039C63.5 101.082 63.5 101.125 63.5 101.168C63.5 101.211 63.5 101.255 63.5 101.298C63.5 101.341 63.5 101.384 63.5 101.427C63.5 101.47 63.5 101.513 63.5 101.556C63.5 101.599 63.5 101.643 63.5 101.686C63.5 101.729 63.5 101.772 63.5 101.815C63.5 101.859 63.5 101.902 63.5 101.945C63.5 101.988 63.5 102.031 63.5 102.075C63.5 102.118 63.5 102.161 63.5 102.204C63.5 102.248 63.5 102.291 63.5 102.334C63.5 102.377 63.5 102.421 63.5 102.464C63.5 102.507 63.5 102.551 63.5 102.594C63.5 102.637 63.5 102.681 63.5 102.724C63.5 102.767 63.5 102.811 63.5 102.854C63.5 102.897 63.5 102.941 63.5 102.984C63.5 103.028 63.5 103.071 63.5 103.114C63.5 103.158 63.5 103.201 63.5 103.245C63.5 103.288 63.5 103.331 63.5 103.375C63.5 103.418 63.5 103.462 63.5 103.505C63.5 103.549 63.5 103.592 63.5 103.636C63.5 103.679 63.5 103.723 63.5 103.766C63.5 103.81 63.5 103.853 63.5 103.897C63.5 103.94 63.5 103.984 63.5 104.027C63.5 104.071 63.5 104.114 63.5 104.158C63.5 104.202 63.5 104.245 63.5 104.289C63.5 104.332 63.5 104.376 63.5 104.419C63.5 104.463 63.5 104.507 63.5 104.55C63.5 104.594 63.5 104.638 63.5 104.681C63.5 104.725 63.5 104.768 63.5 104.812C63.5 104.856 63.5 104.899 63.5 104.943C63.5 104.987 63.5 105.03 63.5 105.074C63.5 105.118 63.5 105.161 63.5 105.205C63.5 105.249 63.5 105.292 63.5 105.336C63.5 105.38 63.5 105.424 63.5 105.467C63.5 105.511 63.5 105.555 63.5 105.599C63.5 105.642 63.5 105.686 63.5 105.73C63.5 105.773 63.5 105.817 63.5 105.861C63.5 105.905 63.5 105.949 63.5 105.992C63.5 106.036 63.5 106.08 63.5 106.124C63.5 106.167 63.5 106.211 63.5 106.255C63.5 106.299 63.5 106.343 63.5 106.386C63.5 106.43 63.5 106.474 63.5 106.518C63.5 106.562 63.5 106.606 63.5 106.649C63.5 106.693 63.5 106.737 63.5 106.781C63.5 106.825 63.5 106.869 63.5 106.913C63.5 106.956 63.5 107 63.5 107.044C63.5 107.088 63.5 107.132 63.5 107.176C63.5 107.22 63.5 107.264 63.5 107.308C63.5 107.351 63.5 107.395 63.5 107.439C63.5 107.483 63.5 107.527 63.5 107.571C63.5 107.615 63.5 107.659 63.5 107.703C63.5 107.747 63.5 107.791 63.5 107.835C63.5 107.878 63.5 107.922 63.5 107.966C63.5 108.01 63.5 108.054 63.5 108.098C63.5 108.142 63.5 108.186 63.5 108.23C63.5 108.274 63.5 108.318 63.5 108.362C63.5 108.406 63.5 108.45 63.5 108.494C63.5 108.538 63.5 108.582 63.5 108.626C63.5 108.67 63.5 108.714 63.5 108.758C63.5 108.802 63.5 108.846 63.5 108.89C63.5 108.934 63.5 108.978 63.5 109.022C63.5 109.066 63.5 109.11 63.5 109.154C63.5 109.198 63.5 109.242 63.5 109.286C63.5 109.33 63.5 109.374 63.5 109.418C63.5 109.462 63.5 109.506 63.5 109.55C63.5 109.594 63.5 109.638 63.5 109.682C63.5 109.726 63.5 109.77 63.5 109.814C63.5 109.858 63.5 109.902 63.5 109.946C63.5 109.99 63.5 110.034 63.5 110.078C63.5 110.122 63.5 110.167 63.5 110.211C63.5 110.255 63.5 110.299 63.5 110.343C63.5 110.387 63.5 110.431 63.5 110.475C63.5 110.519 63.5 110.563 63.5 110.607C63.5 110.651 63.5 110.695 63.5 110.739C63.5 110.783 63.5 110.827 63.5 110.871C63.5 110.915 63.5 110.96 63.5 111.004C63.5 111.048 63.5 111.092 63.5 111.136C63.5 111.18 63.5 111.224 63.5 111.268C63.5 111.312 63.5 111.356 63.5 111.4C63.5 111.444 63.5 111.488 63.5 111.532C63.5 111.576 63.5 111.621 63.5 111.665C63.5 111.709 63.5 111.753 63.5 111.797C63.5 111.841 63.5 111.885 63.5 111.929C63.5 111.973 63.5 112.017 63.5 112.061C63.5 112.105 63.5 112.149 63.5 112.193C63.5 112.238 63.5 112.282 63.5 112.326C63.5 112.37 63.5 112.414 63.5 112.458C63.5 112.502 63.5 112.546 63.5 112.59C63.5 112.634 63.5 112.678 63.5 112.722C63.5 112.766 63.5 112.81 63.5 112.854C63.5 112.898 63.5 112.943 63.5 112.987C63.5 113.031 63.5 113.075 63.5 113.119C63.5 113.163 63.5 113.207 63.5 113.251C63.5 113.295 63.5 113.339 63.5 113.383C63.5 113.427 63.5 113.471 63.5 113.515C63.5 113.559 63.5 113.603 63.5 113.647C63.5 113.691 63.5 113.735 63.5 113.779C63.5 113.823 63.5 113.867 63.5 113.912C63.5 113.956 63.5 114 63.5 114.044C63.5 114.088 63.5 114.132 63.5 114.176C63.5 114.22 63.5 114.264 63.5 114.308C63.5 114.352 63.5 114.396 63.5 114.44C63.5 114.484 63.5 114.528 63.5 114.572C63.5 114.616 63.5 114.66 63.5 114.704C63.5 114.748 63.5 114.792 63.5 114.836C63.5 114.88 63.5 114.924 63.5 114.968C63.5 115.012 63.5 115.056 63.5 115.1C63.5 115.144 63.5 115.187 63.5 115.231C63.5 115.275 63.5 115.319 63.5 115.363C63.5 115.407 63.5 115.451 63.5 115.495C63.5 115.539 63.5 115.583 63.5 115.627C63.5 115.671 63.5 115.715 63.5 115.759C63.5 115.803 63.5 115.847 63.5 115.891C63.5 115.934 63.5 115.978 63.5 116.022C63.5 116.066 63.5 116.11 63.5 116.154C63.5 116.198 63.5 116.242 63.5 116.286C63.5 116.33 63.5 116.373 63.5 116.417C63.5 116.461 63.5 116.505 63.5 116.549C63.5 116.593 63.5 116.637 63.5 116.68C63.5 116.724 63.5 116.768 63.5 116.812C63.5 116.856 63.5 116.9 63.5 116.944C63.5 116.987 63.5 117.031 63.5 117.075C63.5 117.119 63.5 117.163 63.5 117.206C63.5 117.25 63.5 117.294 63.5 117.338C63.5 117.382 63.5 117.425 63.5 117.469C63.5 117.513 63.5 117.557 63.5 117.601C63.5 117.644 63.5 117.688 63.5 117.732C63.5 117.776 63.5 117.819 63.5 117.863C63.5 117.907 63.5 117.95 63.5 117.994C63.5 118.038 63.5 118.082 63.5 118.125C63.5 118.169 63.5 118.213 63.5 118.256C63.5 118.3 63.5 118.344 63.5 118.387C63.5 118.431 63.5 118.475 63.5 118.519C63.5 118.562 63.5 118.606 63.5 118.649C63.5 118.693 63.5 118.737 63.5 118.78C63.5 118.824 63.5 118.868 63.5 118.911C63.5 118.955 63.5 118.998 63.5 119.042C63.5 119.086 63.5 119.129 63.5 119.173C63.5 119.216 63.5 119.26 63.5 119.304C63.5 119.347 63.5 119.391 63.5 119.434C63.5 119.478 63.5 119.521 63.5 119.565C63.5 119.608 63.5 119.652 63.5 119.695C63.5 119.739 63.5 119.782 63.5 119.826C63.5 119.869 63.5 119.913 63.5 119.956C63.5 120 63.5 120.043 63.5 120.087C63.5 120.13 63.5 120.174 63.5 120.217C63.5 120.26 63.5 120.304 63.5 120.347C63.5 120.391 63.5 120.434 63.5 120.477C63.5 120.521 63.5 120.564 63.5 120.608C63.5 120.651 63.5 120.694 63.5 120.738C63.5 120.781 63.5 120.824 63.5 120.868C63.5 120.911 63.5 120.954 63.5 120.998C63.5 121.041 63.5 121.084 63.5 121.127C63.5 121.171 63.5 121.214 63.5 121.257C63.5 121.3 63.5 121.344 63.5 121.387C63.5 121.43 63.5 121.473 63.5 121.517C63.5 121.56 63.5 121.603 63.5 121.646C63.5 121.689 63.5 121.733 63.5 121.776C63.5 121.819 63.5 121.862 63.5 121.905C63.5 121.948 63.5 121.992 63.5 122.035C63.5 122.078 63.5 122.121 63.5 122.164C63.5 122.207 63.5 122.25 63.5 122.293C63.5 122.336 63.5 122.379 63.5 122.422C63.5 122.465 63.5 122.508 63.5 122.552C63.5 122.595 63.5 122.638 63.5 122.681C63.5 122.724 63.5 122.767 63.5 122.809C63.5 122.852 63.5 122.895 63.5 122.938C63.5 122.981 63.5 123.024 63.5 123.067C63.5 123.11 63.5 123.153 63.5 123.196C63.5 123.239 63.5 123.282 63.5 123.324C63.5 123.367 63.5 123.41 63.5 123.453C63.5 123.496 63.5 123.539 63.5 123.581C63.5 123.624 63.5 123.667 63.5 123.71C63.5 123.753 63.5 123.795 63.5 123.838C63.5 123.881 63.5 123.924 63.5 123.966C63.5 124.009 63.5 124.052 63.5 124.095C63.5 124.137 63.5 124.18 63.5 124.223C63.5 124.265 63.5 124.308 63.5 124.35C63.5 124.393 63.5 124.436 63.5 124.478C63.5 124.521 63.5 124.564 63.5 124.606C63.5 124.649 63.5 124.691 63.5 124.734C63.5 124.776 63.5 124.819 63.5 124.861C63.5 124.904 63.5 124.946 63.5 124.989C63.5 125.031 63.5 125.074 63.5 125.116C63.5 125.159 63.5 125.201 63.5 125.244C63.5 125.286 63.5 125.328 63.5 125.371C63.5 125.413 63.5 125.456 63.5 125.498C63.5 125.54 63.5 125.583 63.5 125.625C63.5 125.667 63.5 125.71 63.5 125.752C63.5 125.794 63.5 125.836 63.5 125.879C63.5 125.921 63.5 125.963 63.5 126.005C63.5 126.048 63.5 126.09 63.5 126.132H69.5ZM66.611 71.6299C86.3172 70.9 101.498 75.6476 112.359 83.557C123.215 91.4631 129.953 102.669 132.563 115.242L138.437 114.022C135.547 100.095 128.035 87.5508 115.891 78.7069C103.752 69.8664 87.1828 64.8639 66.389 65.634L66.611 71.6299ZM132.5 114.632V164.132H138.5V114.632H132.5ZM132.5 164.132V252.632H138.5V164.132H132.5ZM85.5815 166.775C99.0592 174.007 120.904 178.556 137.274 166.551L133.726 161.713C120.096 171.708 101.032 168.257 88.4185 161.488L85.5815 166.775Z" fill="#F9F2F2"/>
<path d="M174 125.132V252.632" stroke="#F9F2F2" stroke-width="6"/>
<path d="M155 165.132V252.632" stroke="#F9F2F2" stroke-width="6"/>
<path d="M220 252.632V224.632C220 219.132 216.5 211.632 207.5 207.632" stroke="#F9F2F2" stroke-width="6"/>
</svg>
