<svg width="197" height="201" viewBox="0 0 197 201" fill="none" xmlns="http://www.w3.org/2000/svg">
<path d="M26.875 37.9198C51.5732 13.9859 105.909 1.43058 144.192 42.2357M30.5797 113.252C31.8146 106.581 37.1659 98.2243 51.9849 93.6338C74.2133 86.748 88.209 80.2938 80.3879 51.6519M17.4075 48.5131C9.99824 57.1449 3 75.1932 3 87.7485V131.3C3 156.41 24.817 186.622 51.9851 186.229M131.431 160.334C123.198 174.851 101.382 198 80.7997 198C65.1575 198 49.9269 185.052 43.3407 179.167C38.0717 174.459 36.7545 167.266 36.7545 164.258C36.7545 152.088 35.9312 140.324 47.0454 126.592C56.1014 115.402 80.388 108.151 94.3837 97.165C97.6644 94.5898 100.173 92.0787 102.073 89.7103M99.735 48.5131C102.479 52.9598 107.556 63.1087 107.556 69.7002C107.556 76.2918 107.556 77.1549 107.556 76.7626C107.556 79.7527 106.36 84.3687 102.073 89.7103M65.5691 126.592C61.8644 127.376 55.1958 127.926 49.9269 126.984M98.5001 126.984C100.695 127.899 107.556 129.181 117.435 126.984M70.0971 168.573C72.1553 170.535 80.388 172.889 92.7372 169.358M102.073 89.7103C112.176 110.113 131.892 112.336 140.075 111.29C140.075 120.445 139.499 140.245 137.194 146.209M194 3L166.42 50.4748M166.42 50.4748L183.297 59.1066C184.532 59.8913 188.031 61.4608 186.179 64.992C184.532 68.1308 182.474 71.008 181.651 72.0543C180.541 73.4651 177.864 75.0362 174.241 72.839C170.619 70.6419 152.15 61.1992 143.369 56.7525M166.42 50.4748C162.304 48.5131 154.376 44.1461 151.19 42.6278C147.897 41.0584 145.165 43.1979 144.192 44.5895C143.219 45.9811 142.134 47.336 140.487 50.4748C138.921 53.4613 141.517 55.8147 143.369 56.7525M143.369 56.7525C138.566 61.1992 128.614 72.159 125.668 76.3702C124.982 77.2857 124.186 79.4306 126.491 80.6861C128.797 81.9417 151.327 93.503 162.304 99.1268C163.813 99.9115 167.281 100.304 168.478 97.165C169.796 93.7123 173.967 80.8169 175.888 74.8008M145.427 76.3702L138.017 85.3944M157.776 82.2555L154.071 93.6338M164.774 101.481V128.946C164.774 142.678 161.892 164.258 147.073 176.421C144.466 178.644 137.194 183.561 128.961 185.445C121.14 188.191 119.905 182.698 120.42 175.243" stroke="#F9F2F2" stroke-width="5" stroke-linecap="round" stroke-dasharray="0.1 0.1"/>
</svg>
