<svg xmlns="http://www.w3.org/2000/svg" width="36" height="60" viewBox="0 0 36 60"><path d="M22.75,26.87v-.06a4.68,4.68,0,0,0,3-4.54A4.79,4.79,0,0,0,23.38,18c-1.24-.74-3.62-.74-5.43-.74H10.51V37.57h9.91c4.08,0,6.23-2.84,6.23-5.82A4.64,4.64,0,0,0,22.75,26.87Zm-9.51-7.3H18.7c2.35,0,4.36.4,4.36,3.21,0,2.13-1.26,3.24-4.36,3.24H13.24ZM20.08,35.3H13.24v-7h6.23c2.3,0,4.45.74,4.45,3.38A3.49,3.49,0,0,1,20.08,35.3Z" style="fill:var(--svg-clr)"></path><path d="M18,9.67A17.77,17.77,0,1,0,18,45.2,17.77,17.77,0,1,0,18,9.67Zm0,33.2A15.42,15.42,0,1,1,18,12a15.42,15.42,0,1,1,0,30.84Z" style="fill:var(--svg-clr)"></path><rect x="0.1" y="48.95" width="35.87" height="2.33" style="fill:var(--svg-clr)"></rect><path d="M35.28,45.47a1.16,1.16,0,0,0-.42-.08,1.2,1.2,0,0,0-.42.08,1.33,1.33,0,0,0-.34.22,1.13,1.13,0,0,0-.23.34,1,1,0,0,0,0,.84,1,1,0,0,0,.23.33,1.13,1.13,0,0,0,.34.23,1.2,1.2,0,0,0,.42.08,1.16,1.16,0,0,0,.42-.08,1.11,1.11,0,0,0,.57-.56,1.14,1.14,0,0,0,0-.84,1.36,1.36,0,0,0-.23-.34A1.33,1.33,0,0,0,35.28,45.47Zm.46,1a1,1,0,0,1-.25.64.87.87,0,0,1-.28.19.91.91,0,0,1-.7,0,.77.77,0,0,1-.28-.19.71.71,0,0,1-.18-.29.84.84,0,0,1-.07-.35.86.86,0,0,1,.07-.36.75.75,0,0,1,.18-.28.77.77,0,0,1,.28-.19.91.91,0,0,1,.7,0,.87.87,0,0,1,.28.19.9.9,0,0,1,.18.28A.86.86,0,0,1,35.74,46.45Z" style="fill:var(--svg-clr)"></path><path d="M35.27,46.43a.31.31,0,0,0,.1-.25.33.33,0,0,0-.11-.26.5.5,0,0,0-.33-.09h-.49v1.24h.2v-.54h.2l.35.54h.2L35,46.52A.43.43,0,0,0,35.27,46.43Zm-.43,0h-.2V46H35l.09,0a.13.13,0,0,1,.07.06.22.22,0,0,1,0,.1.18.18,0,0,1,0,.11.11.11,0,0,1-.07.06.38.38,0,0,1-.1,0Z" style="fill:var(--svg-clr)"></path><path d="M.85,5.75a2.78,2.78,0,0,0,1,.7,3.37,3.37,0,0,0,1.34.26,3.21,3.21,0,0,0,1.1-.18A2.72,2.72,0,0,0,5.16,6a2.64,2.64,0,0,0,.6-.83A3.07,3.07,0,0,0,6,4.09H4.66a1.78,1.78,0,0,1-.45,1,1.32,1.32,0,0,1-1,.39,1.74,1.74,0,0,1-.82-.18,1.7,1.7,0,0,1-.54-.49,2.28,2.28,0,0,1-.31-.69,3.39,3.39,0,0,1-.09-.78,3.62,3.62,0,0,1,.09-.82,2.28,2.28,0,0,1,.31-.71,1.59,1.59,0,0,1,.54-.49,1.74,1.74,0,0,1,.82-.18,1.38,1.38,0,0,1,.5.08,1.7,1.7,0,0,1,.44.24,1.47,1.47,0,0,1,.31.35,1.23,1.23,0,0,1,.17.45H6a2.8,2.8,0,0,0-.31-1A2.28,2.28,0,0,0,5.06.6,2.62,2.62,0,0,0,4.2.15a3.33,3.33,0,0,0-1-.15A3.37,3.37,0,0,0,1.85.26,2.7,2.7,0,0,0,.85,1,3,3,0,0,0,.22,2.05,3.88,3.88,0,0,0,0,3.39a3.7,3.7,0,0,0,.22,1.3A2.9,2.9,0,0,0,.85,5.75Z" style="fill:var(--svg-clr)"></path><path d="M6.94,6a2.19,2.19,0,0,0,.75.5,2.87,2.87,0,0,0,1,.17,2.46,2.46,0,0,0,1.36-.36,2.12,2.12,0,0,0,.84-1.19H9.75a.79.79,0,0,1-.34.41,1.23,1.23,0,0,1-.67.19,1.15,1.15,0,0,1-.84-.28,1.31,1.31,0,0,1-.32-.9H11a2.94,2.94,0,0,0-.09-1,2.45,2.45,0,0,0-.41-.88A2.2,2.2,0,0,0,9.74,2,2.32,2.32,0,0,0,8.69,1.8a2.5,2.5,0,0,0-1,.18A2.28,2.28,0,0,0,7,2.5a2.11,2.11,0,0,0-.49.78,2.58,2.58,0,0,0-.18,1,2.86,2.86,0,0,0,.17,1A2.27,2.27,0,0,0,6.94,6Zm.7-2.57a.93.93,0,0,1,.18-.32.92.92,0,0,1,.32-.26,1.15,1.15,0,0,1,.52-.1.91.91,0,0,1,.7.25,1.5,1.5,0,0,1,.32.73H7.58A2,2,0,0,1,7.64,3.44Z" style="fill:var(--svg-clr)"></path><path d="M12.84,4.47a2.15,2.15,0,0,1,.07-.58,1.19,1.19,0,0,1,.21-.47,1,1,0,0,1,.4-.32A1.32,1.32,0,0,1,14.11,3h.25l.22,0V1.84a1,1,0,0,0-.28,0,1.55,1.55,0,0,0-.48.07,1.62,1.62,0,0,0-.42.2,1.79,1.79,0,0,0-.36.31,1.85,1.85,0,0,0-.24.4h0V1.92H11.55V6.56h1.29Z" style="fill:var(--svg-clr)"></path><path d="M15.8,5.51a1.16,1.16,0,0,0,.11.57.87.87,0,0,0,.33.33,1.3,1.3,0,0,0,.47.16,3.48,3.48,0,0,0,.57,0h.39l.36,0v-1l-.19,0h-.21a.61.61,0,0,1-.44-.11.62.62,0,0,1-.11-.43V2.77h1V1.92h-1V.53H15.8V1.92H15v.85h.79Z" style="fill:var(--svg-clr)"></path><rect x="18.78" y="1.92" width="1.29" height="4.64" style="fill:var(--svg-clr)"></rect><rect x="18.78" y="0.15" width="1.29" height="1.05" style="fill:var(--svg-clr)"></rect><path d="M21.35,6.56h1.29V2.77h.89V1.92h-.89V1.64a.59.59,0,0,1,.12-.41.48.48,0,0,1,.37-.12,3.64,3.64,0,0,1,.48,0V.19l-.34,0-.34,0a1.56,1.56,0,0,0-1.18.4,1.34,1.34,0,0,0-.4,1v.36h-.77v.85h.77Z" style="fill:var(--svg-clr)"></path><rect x="24.41" y="0.15" width="1.29" height="1.05" style="fill:var(--svg-clr)"></rect><rect x="24.41" y="1.92" width="1.29" height="4.64" style="fill:var(--svg-clr)"></rect><path d="M26.77,6a2.29,2.29,0,0,0,.75.5,2.87,2.87,0,0,0,1,.17,2.5,2.5,0,0,0,1.37-.36,2.16,2.16,0,0,0,.83-1.19H29.59a.87.87,0,0,1-.35.41,1.23,1.23,0,0,1-.67.19,1.17,1.17,0,0,1-.84-.28,1.26,1.26,0,0,1-.31-.9H30.8a2.94,2.94,0,0,0-.09-1,2.45,2.45,0,0,0-.41-.88A2.2,2.2,0,0,0,29.57,2a2.32,2.32,0,0,0-1.05-.22,2.54,2.54,0,0,0-1,.18,2.28,2.28,0,0,0-.76.52,2.25,2.25,0,0,0-.49.78,2.57,2.57,0,0,0-.17,1,2.86,2.86,0,0,0,.16,1A2.44,2.44,0,0,0,26.77,6Zm.7-2.57a1.14,1.14,0,0,1,.18-.32A.92.92,0,0,1,28,2.86a1.15,1.15,0,0,1,.52-.1.89.89,0,0,1,.7.25,1.41,1.41,0,0,1,.32.73H27.42A1.17,1.17,0,0,1,27.47,3.44Z" style="fill:var(--svg-clr)"></path><path d="M31.71,5.93a1.87,1.87,0,0,0,.66.55,2,2,0,0,0,.92.2,2,2,0,0,0,.83-.17,1.3,1.3,0,0,0,.6-.54h0v.59H36V.15H34.67V2.49h0A1.36,1.36,0,0,0,34.06,2a1.81,1.81,0,0,0-.79-.17,1.91,1.91,0,0,0-1.56.73,2.08,2.08,0,0,0-.39.77,3,3,0,0,0-.13.9,3.24,3.24,0,0,0,.13.94A2.17,2.17,0,0,0,31.71,5.93Zm.82-2.24a1.72,1.72,0,0,1,.19-.48,1.23,1.23,0,0,1,.35-.33,1.13,1.13,0,0,1,.54-.12,1.07,1.07,0,0,1,.53.12,1.19,1.19,0,0,1,.34.33,1.15,1.15,0,0,1,.18.47,2.44,2.44,0,0,1,.06.55,2.6,2.6,0,0,1-.06.56,1.26,1.26,0,0,1-.18.48.9.9,0,0,1-.34.33,1,1,0,0,1-.53.13.92.92,0,0,1-.51-.13,1.17,1.17,0,0,1-.36-.34,1.48,1.48,0,0,1-.2-.48,2.48,2.48,0,0,1-.06-.54A2.45,2.45,0,0,1,32.53,3.69Z" style="fill:var(--svg-clr)"></path><path d="M2.24,58.12c-.9,0-1.24-.76-1.24-1.51s.34-1.55,1.24-1.55a1,1,0,0,1,1,.79h1a1.86,1.86,0,0,0-2-1.62,2.37,2.37,0,0,0,0,4.73,1.92,1.92,0,0,0,2-1.85h-1A1,1,0,0,1,2.24,58.12Z" style="fill:var(--svg-clr)"></path><path d="M6.35,55.49a1.73,1.73,0,0,0,0,3.45,1.73,1.73,0,0,0,0-3.45Zm0,2.77c-.61,0-.8-.52-.8-1s.19-1,.8-1,.81.52.81,1S7,58.26,6.35,58.26Z" style="fill:var(--svg-clr)"></path><path d="M9.5,56.18h0v-.61H8.63v3.27h.9V57.37c0-.57.23-1,.9-1a1.69,1.69,0,0,1,.33,0v-.83a.69.69,0,0,0-.2,0A1.18,1.18,0,0,0,9.5,56.18Z" style="fill:var(--svg-clr)"></path><path d="M13,55.49A1.09,1.09,0,0,0,12,56h0v-.42h-.86V60H12V58.44h0a1.17,1.17,0,0,0,1,.5,1.51,1.51,0,0,0,1.45-1.69C14.47,56.32,14,55.49,13,55.49Zm-.19,2.77c-.59,0-.79-.5-.79-1s.19-1,.78-1,.8.53.8,1S13.38,58.26,12.78,58.26Z" style="fill:var(--svg-clr)"></path><path d="M16.47,55.49a1.73,1.73,0,0,0,0,3.45,1.73,1.73,0,0,0,0-3.45Zm0,2.77c-.62,0-.8-.52-.8-1s.18-1,.8-1,.8.52.8,1S17.09,58.26,16.47,58.26Z" style="fill:var(--svg-clr)"></path><path d="M19.62,56.18h0v-.61h-.87v3.27h.91V57.37c0-.57.23-1,.9-1a1.51,1.51,0,0,1,.32,0v-.83a.58.58,0,0,0-.19,0A1.17,1.17,0,0,0,19.62,56.18Z" style="fill:var(--svg-clr)"></path><path d="M24.15,56.42c0-.78-.8-.93-1.45-.93s-1.51.25-1.56,1.1h.91c0-.36.26-.5.6-.5s.59.06.59.44-.52.35-1.08.44S21,57.22,21,58s.5,1,1.12,1a1.53,1.53,0,0,0,1.12-.41,1.13,1.13,0,0,0,.06.32h.92a1.72,1.72,0,0,1-.11-.73Zm-.91,1.16a.68.68,0,0,1-.74.76c-.29,0-.55-.09-.55-.42s.25-.43.53-.48a1.83,1.83,0,0,0,.76-.19Z" style="fill:var(--svg-clr)"></path><path d="M26,54.6h-.91v1h-.55v.6h.55v1.93c0,.65.49.78,1.05.78a4.58,4.58,0,0,0,.53,0v-.71l-.28,0c-.31,0-.39-.08-.39-.38V56.18h.67v-.6H26Z" style="fill:var(--svg-clr)"></path><rect x="27.33" y="54.33" width="0.91" height="0.74" style="fill:var(--svg-clr)"></rect><rect x="27.33" y="55.58" width="0.91" height="3.27" style="fill:var(--svg-clr)"></rect><path d="M30.56,55.49a1.73,1.73,0,1,0,1.71,1.73A1.61,1.61,0,0,0,30.56,55.49Zm0,2.77c-.62,0-.8-.52-.8-1s.18-1,.8-1,.8.52.8,1S31.18,58.26,30.56,58.26Z" style="fill:var(--svg-clr)"></path><path d="M34.75,55.49a1.18,1.18,0,0,0-1,.55h0v-.46h-.86v3.27h.91V57.14c0-.67.21-.94.7-.94s.58.27.58.8v1.85H36v-2C36,56,35.72,55.49,34.75,55.49Z" style="fill:var(--svg-clr)"></path></svg>