<svg width="245" height="251" viewBox="0 0 245 251" fill="none" xmlns="http://www.w3.org/2000/svg">
<path d="M24.5 52V21.5C24.5 16.5 27.5 9 36.5 9H53.5C59.5 9 65 15.5 65 21.5V52M24.5 52H65M24.5 52C13 62 3 83.5 3 96.5V220.5C2.99998 225 5.5 232 14 232H59.0263M65 52C73.5 60 86.5 81 86.5 93V146.438M86.5 146.438V146.5M86.5 146.438C71.6094 149.961 59.466 159.627 53.5 174M86.5 146.438C99.0643 143.464 113.585 144.864 128 151.5C136.5 155.413 144.5 156 144.5 142C144.5 138 143 133.7 139 128.5C163 128.5 177.5 153.5 177.5 174M59.0263 232C65.0073 239.341 71.1608 244.735 76 247.5H146C170 232 173 214.5 178.5 205C182 202.5 183 202 187 199.5C200.171 191.268 201.667 179 202 174H177.5M59.0263 232C47.7041 218.103 37 197.229 37 174H53.5M53.5 174H177.5M157 56.0615L151.5 58C159.5 83.5 175 100 189.5 105L242 225L211 97.5C212.5 86.5 229 75.5 212.5 36.5L207 38.4385M157 56.0615L143.5 20.5M157 56.0615L174 50.0697M174 50.0697L160.5 14M174 50.0697L190.5 44.2541M190.5 44.2541L177.5 8.5M190.5 44.2541L207 38.4385M207 38.4385L194.5 3" stroke="#F9F2F2" stroke-width="6" stroke-linecap="round" stroke-linejoin="round" stroke-dasharray="0.1 0.1"/>
</svg>
