<svg width="162" height="138" viewBox="0 0 162 138" fill="none" xmlns="http://www.w3.org/2000/svg">
<path d="M16.0001 28.3933V11.5276C16.0001 8.76271 18.0001 4.6154 24.0001 4.6154H35.3334C39.3334 4.6154 43.0001 8.20974 43.0001 11.5276V28.3933M16.0001 28.3933H43.0001M16.0001 28.3933C8.33341 33.9231 1.66675 45.8121 1.66675 53.0007V121.57C1.66674 124.058 3.33341 127.929 9.00008 127.929H39.0176M43.0001 28.3933C48.6667 32.8171 57.3334 44.4296 57.3334 51.0653V80.615M57.3334 80.615V80.6495M57.3334 80.615C47.4064 82.5635 39.3108 87.9086 35.3334 95.8563M57.3334 80.615C65.7096 78.9709 75.3898 79.745 85.0001 83.4144C90.6668 85.578 96.0001 85.9028 96.0001 78.1611C96.0001 75.9492 95.0001 73.5714 92.3334 70.696C108.333 70.696 118 84.5203 118 95.8563M39.0176 127.929C43.005 131.988 47.1073 134.971 50.3334 136.5H97.0001C113 127.929 115 118.252 118.667 112.999C121 111.616 121.667 111.34 124.333 109.957C133.114 105.405 134.111 98.6212 134.333 95.8563H118M39.0176 127.929C31.4695 120.244 24.3334 108.701 24.3334 95.8563H35.3334M35.3334 95.8563H118M104.333 30.6392L100.667 31.7112C106 45.8121 116.333 54.9362 126 57.701L161 124.058L140.333 53.5537C141.333 47.471 152.333 41.3883 141.333 19.8222L137.667 20.8942M104.333 30.6392L95.3334 10.9746M104.333 30.6392L115.667 27.3259M115.667 27.3259L106.667 7.38028M115.667 27.3259L126.667 24.11M126.667 24.11L118 4.33891M126.667 24.11L137.667 20.8942M137.667 20.8942L129.333 1.29755" stroke="white" stroke-width="2" stroke-linecap="round" stroke-linejoin="round" stroke-dasharray="0.1 0.1"/>
</svg>
