<svg width="217" height="208" viewBox="0 0 217 208" fill="none" xmlns="http://www.w3.org/2000/svg">
<path d="M22.3803 127.176C25.3755 123.14 33.1631 116.03 46.1924 114.637C66.4103 112.475 70.0046 97.7752 70.9032 96.4782C71.8017 95.1811 92.9182 101.666 96.5125 114.637C98.0338 120.127 100.556 125.014 102.802 127.176M82.5846 117.664C65.0625 124.149 37.2067 129.77 25.9746 123.308M109.092 58.4545L87.976 78.3429L134.252 123.308L154.92 103.852M109.092 58.4545L121.313 70.5604M109.092 58.4545L105.049 54.5632C108.194 51.5367 117.988 44.1867 128.412 44.1867C138.835 44.1867 143.238 44.1867 145.934 44.1867C150.427 44.1867 158.514 41.5925 163.905 36.4043C168.848 31.6483 188.616 12.6246 198.5 4.40989C205.24 -1.19108 217.82 11.3277 212.878 16.9483L178.283 50.2397C175.587 53.2662 170.645 58.8869 170.645 65.8046C170.645 72.7568 171.012 80.0723 170.645 83.9635C170.195 88.7195 165.882 101.604 159.413 108.176L154.92 103.852M154.92 103.852L132.661 81.8017M109.542 81.8017L121.313 70.5604M121.313 70.5604L132.661 81.8017M120.325 92.6106L132.661 81.8017M131.107 103.42L142.789 92.6106M34.0615 205H109.092C112.237 205 114.933 205 117.18 202.838C126.315 192.606 140.542 174.735 140.542 150.955C140.542 147.929 136.05 138.849 128.861 138.849C126.588 138.849 50.9846 140.002 13.3944 140.146C9.99178 140.159 3.51007 144.47 3.06078 151.387C2.47157 160.46 5.93359 181.651 23.7279 200.676C27.7717 205 31.8151 205 34.0615 205Z" stroke="#F9F2F2" stroke-width="5" stroke-linecap="round" stroke-linejoin="round" stroke-dasharray="0.1 0.1"/>
</svg>
