<svg width="214" height="204" viewBox="0 0 214 204" fill="none" xmlns="http://www.w3.org/2000/svg">
<path d="M21.0805 125.176C24.0757 121.14 31.8633 114.03 44.8926 112.637C65.1105 110.475 68.7048 95.7752 69.6034 94.4782C70.5019 93.1811 91.6184 99.6665 95.2127 112.637C96.734 118.127 99.2562 123.014 101.503 125.176M81.2848 115.664C63.7626 122.149 35.9069 127.77 24.6748 121.308M107.793 56.4545L86.6762 76.3429L132.953 121.308L153.62 101.852M107.793 56.4545L120.013 68.5604M107.793 56.4545L103.749 52.5632C106.894 49.5367 116.689 42.1867 127.112 42.1867C137.535 42.1867 141.938 42.1867 144.634 42.1867C149.127 42.1867 157.214 39.5925 162.606 34.4043C167.548 29.6483 187.316 10.6246 197.201 2.40989C203.94 -3.19108 216.52 9.32765 211.578 14.9483L176.983 48.2397C174.287 51.2662 169.345 56.8869 169.345 63.8046C169.345 70.7568 169.712 78.0723 169.345 81.9635C168.896 86.7195 164.582 99.6037 158.113 106.176L153.62 101.852M153.62 101.852L131.361 79.8017M108.242 79.8017L120.013 68.5604M120.013 68.5604L131.361 79.8017M119.025 90.6106L131.361 79.8017M129.808 101.42L141.489 90.6106M32.7617 203H107.792C110.938 203 113.633 203 115.88 200.838C125.015 190.606 139.243 172.735 139.243 148.955C139.243 145.929 134.75 136.849 127.561 136.849C125.288 136.849 49.6848 138.002 12.0946 138.146C8.69197 138.159 2.21027 142.47 1.76098 149.387C1.17176 158.46 4.63378 179.651 22.4281 198.676C26.4719 203 30.5153 203 32.7617 203Z" stroke="#F9F2F2" stroke-width="2" stroke-linecap="round" stroke-linejoin="round" stroke-dasharray="0.1 0.1"/>
</svg>
