<svg width="111" height="168" viewBox="0 0 111 168" fill="none" xmlns="http://www.w3.org/2000/svg">
<path d="M55.8687 58.6731L28.119 1.93671C23.3875 5.78626 12.1992 15.4102 16.6841 26.1889C20.7846 36.0439 36.8819 68.8914 43.9795 83.2631M55.5084 108.954C53.2761 113.617 51.2125 117.916 49.412 121.658L48.6228 123.198C52.5952 127.763 55.3263 133.676 55.3263 140.136C55.3263 154.593 43.3217 166.313 28.5132 166.313C13.7048 166.313 1.7002 154.593 1.7002 140.136C1.7002 125.679 13.7048 113.959 28.5132 113.959C28.7171 113.959 28.9204 113.961 29.1232 113.965L82.9283 2.70662C88.4486 5.78626 98.1712 15.4102 94.3633 25.419C91.6905 32.4443 79.0456 59.4748 66.8876 85.0872M55.5084 108.954L62.8254 122.813C58.6492 127.428 56.1149 133.493 56.1149 140.136C56.1149 154.593 68.1195 166.313 82.9279 166.313C97.7363 166.313 109.741 154.593 109.741 140.136C109.741 125.679 97.7363 113.959 82.9279 113.959C82.5315 113.959 82.137 113.967 81.7448 113.984L66.8876 85.0872M55.5084 108.954C59.0077 101.645 62.9217 93.4416 66.8876 85.0872M39.5538 139.751C39.5538 145.491 34.7873 150.145 28.9074 150.145C23.0276 150.145 18.2611 145.491 18.2611 139.751C18.2611 134.011 23.0276 129.357 28.9074 129.357C34.7873 129.357 39.5538 134.011 39.5538 139.751ZM93.1799 139.751C93.1799 145.491 88.4133 150.145 82.5335 150.145C76.6537 150.145 71.8872 145.491 71.8872 139.751C71.8872 134.011 76.6537 129.357 82.5335 129.357C88.4133 129.357 93.1799 134.011 93.1799 139.751Z" stroke="#F9F2F2" stroke-width="2" stroke-linecap="round" stroke-dasharray="0.1 0.1"/>
</svg>
