<svg width="197" height="176" viewBox="0 0 197 176" fill="none" xmlns="http://www.w3.org/2000/svg">
<path d="M55.8687 67.3603L28.119 10.6239C23.3875 14.4735 12.1992 24.0973 16.6841 34.8761C20.7846 44.7311 36.8819 77.5786 43.9795 91.9503M55.5084 117.642C53.2761 122.304 51.2125 126.603 49.412 130.345L48.6228 131.885C52.5952 136.45 55.3263 142.363 55.3263 148.823C55.3263 163.28 43.3217 175 28.5132 175C13.7048 175 1.7002 163.28 1.7002 148.823C1.7002 134.366 13.7048 122.646 28.5132 122.646C28.7171 122.646 28.9204 122.648 29.1232 122.653L82.9283 11.3938C88.4486 14.4735 98.1712 24.0973 94.3633 34.1062C91.6905 41.1315 79.0456 68.162 66.8876 93.7743M55.5084 117.642L62.8254 131.5C58.6492 136.116 56.1149 142.18 56.1149 148.823C56.1149 163.28 68.1195 175 82.9279 175C97.7363 175 109.741 163.28 109.741 148.823C109.741 134.366 97.7363 122.646 82.9279 122.646C82.5315 122.646 82.137 122.654 81.7448 122.671L66.8876 93.7743M55.5084 117.642C59.0077 110.332 62.9217 102.129 66.8876 93.7743M195.7 1H168.887M195.7 174.615H168.887M168.887 1H144.44C138.525 1 131.033 7.15929 131.033 14.4735C131.033 21.5633 130.902 115.204 131.033 161.142C131.033 166.531 135.371 174.615 146.017 174.615H168.887M168.887 1V17.1681M168.887 174.615V158.832M168.887 17.1681H195.7M168.887 17.1681V33.3363M168.887 33.3363H195.7M168.887 33.3363V48.7345M168.887 48.7345H195.7M168.887 48.7345V64.9027M168.887 64.9027H195.7M168.887 64.9027V80.3009M168.887 80.3009H195.7M168.887 80.3009V96.0841M168.887 96.0841H195.7M168.887 96.0841V111.867M168.887 111.867H195.7M168.887 111.867V127.265M168.887 127.265H195.7M168.887 127.265V143.049M168.887 143.049H195.7M168.887 143.049V158.832M168.887 158.832H195.7M39.5538 148.438C39.5538 154.178 34.7873 158.832 28.9074 158.832C23.0276 158.832 18.2611 154.178 18.2611 148.438C18.2611 142.698 23.0276 138.044 28.9074 138.044C34.7873 138.044 39.5538 142.698 39.5538 148.438ZM93.1799 148.438C93.1799 154.178 88.4133 158.832 82.5335 158.832C76.6537 158.832 71.8872 154.178 71.8872 148.438C71.8872 142.698 76.6537 138.044 82.5335 138.044C88.4133 138.044 93.1799 142.698 93.1799 148.438Z" stroke="#F9F2F2" stroke-width="1.3" stroke-linecap="round" stroke-dasharray="0.1 0.1"/>
</svg>
