<svg width="152" height="185" viewBox="0 0 152 185" fill="none" xmlns="http://www.w3.org/2000/svg">
<path d="M59.4005 136.518L59.7233 137.464L60.4005 137.233V136.518H59.4005ZM16.9166 85.2042H15.9166V85.2295L15.9179 85.2548L16.9166 85.2042ZM45.2392 50.0178L45.1999 49.0186L44.2392 49.0564V50.0178H45.2392ZM92.904 83.7381H93.904V83.6412L93.8854 83.5461L92.904 83.7381ZM2.37378 184.899V165.473H0.373779V184.899H2.37378ZM2.37378 165.473C2.37378 163.716 2.829 160.933 4.18869 158.406C5.53475 155.903 7.74023 153.689 11.2666 152.887L10.8232 150.937C6.61267 151.894 3.98259 154.567 2.42732 157.458C0.885669 160.324 0.373779 163.443 0.373779 165.473H2.37378ZM11.2666 152.887C19.0689 151.113 46.8584 141.852 59.7233 137.464L59.0777 135.571C46.1529 139.98 18.4947 149.192 10.8232 150.937L11.2666 152.887ZM60.4005 136.518V129.187H58.4005V136.518H60.4005ZM59.4005 128.187C52.6916 128.187 42.7238 125.774 34.2383 119.188C25.7902 112.632 18.7641 101.906 17.9154 85.1536L15.9179 85.2548C16.7962 102.589 24.1041 113.855 33.0121 120.768C41.8829 127.653 52.2935 130.187 59.4005 130.187V128.187ZM17.9166 85.2042V61.0136H15.9166V85.2042H17.9166ZM17.9166 61.0136C17.9166 41.9479 25.0177 27.5358 35.6171 17.8371C46.2329 8.12344 60.4098 3.09188 74.6107 2.91141C88.8111 2.73093 102.977 7.40151 113.582 17.0155C124.171 26.6145 131.279 41.2038 131.279 61.0136H133.279C133.279 40.6889 125.968 25.5439 114.925 15.5338C103.9 5.53875 89.2254 0.725507 74.5852 0.911567C59.9455 1.09762 45.2817 6.28294 34.267 16.3616C23.236 26.4552 15.9166 41.4109 15.9166 61.0136H17.9166ZM131.279 61.0136V184.899H133.279V61.0136H131.279ZM60.4005 129.187V120.024H58.4005V129.187H60.4005ZM59.8953 119.155C55.4333 116.614 46.2392 107.585 46.2392 92.1682H44.2392C44.2392 108.419 53.9268 118.058 58.9057 120.893L59.8953 119.155ZM46.2392 92.1682C46.2392 92.1372 46.2392 92.1063 46.2392 92.0753C46.2392 92.0444 46.2392 92.0134 46.2392 91.9825C46.2392 91.9515 46.2392 91.9205 46.2392 91.8895C46.2392 91.8585 46.2392 91.8275 46.2392 91.7965C46.2392 91.7654 46.2392 91.7344 46.2392 91.7033C46.2392 91.6723 46.2392 91.6412 46.2392 91.6102C46.2392 91.5791 46.2392 91.548 46.2392 91.5169C46.2392 91.4858 46.2392 91.4547 46.2392 91.4236C46.2392 91.3925 46.2392 91.3614 46.2392 91.3302C46.2392 91.2991 46.2392 91.2679 46.2392 91.2368C46.2392 91.2056 46.2392 91.1744 46.2392 91.1432C46.2392 91.112 46.2392 91.0808 46.2392 91.0496C46.2392 91.0184 46.2392 90.9872 46.2392 90.956C46.2392 90.9247 46.2392 90.8935 46.2392 90.8622C46.2392 90.831 46.2392 90.7997 46.2392 90.7685C46.2392 90.7372 46.2392 90.7059 46.2392 90.6746C46.2392 90.6433 46.2392 90.612 46.2392 90.5807C46.2392 90.5494 46.2392 90.518 46.2392 90.4867C46.2392 90.4554 46.2392 90.424 46.2392 90.3926C46.2392 90.3613 46.2392 90.3299 46.2392 90.2985C46.2392 90.2672 46.2392 90.2358 46.2392 90.2044C46.2392 90.173 46.2392 90.1416 46.2392 90.1101C46.2392 90.0787 46.2392 90.0473 46.2392 90.0158C46.2392 89.9844 46.2392 89.953 46.2392 89.9215C46.2392 89.89 46.2392 89.8586 46.2392 89.8271C46.2392 89.7956 46.2392 89.7641 46.2392 89.7326C46.2392 89.7011 46.2392 89.6696 46.2392 89.6381C46.2392 89.6066 46.2392 89.5751 46.2392 89.5435C46.2392 89.512 46.2392 89.4804 46.2392 89.4489C46.2392 89.4173 46.2392 89.3858 46.2392 89.3542C46.2392 89.3226 46.2392 89.291 46.2392 89.2594C46.2392 89.2278 46.2392 89.1962 46.2392 89.1646C46.2392 89.133 46.2392 89.1014 46.2392 89.0698C46.2392 89.0382 46.2392 89.0065 46.2392 88.9749C46.2392 88.9432 46.2392 88.9116 46.2392 88.8799C46.2392 88.8483 46.2392 88.8166 46.2392 88.7849C46.2392 88.7532 46.2392 88.7215 46.2392 88.6898C46.2392 88.6582 46.2392 88.6265 46.2392 88.5947C46.2392 88.563 46.2392 88.5313 46.2392 88.4996C46.2392 88.4679 46.2392 88.4361 46.2392 88.4044C46.2392 88.3726 46.2392 88.3409 46.2392 88.3091C46.2392 88.2774 46.2392 88.2456 46.2392 88.2138C46.2392 88.182 46.2392 88.1503 46.2392 88.1185C46.2392 88.0867 46.2392 88.0549 46.2392 88.0231C46.2392 87.9913 46.2392 87.9595 46.2392 87.9276C46.2392 87.8958 46.2392 87.864 46.2392 87.8321C46.2392 87.8003 46.2392 87.7685 46.2392 87.7366C46.2392 87.7048 46.2392 87.6729 46.2392 87.641C46.2392 87.6092 46.2392 87.5773 46.2392 87.5454C46.2392 87.5136 46.2392 87.4817 46.2392 87.4498C46.2392 87.4179 46.2392 87.386 46.2392 87.3541C46.2392 87.3222 46.2392 87.2903 46.2392 87.2583C46.2392 87.2264 46.2392 87.1945 46.2392 87.1626C46.2392 87.1306 46.2392 87.0987 46.2392 87.0668C46.2392 87.0348 46.2392 87.0029 46.2392 86.9709C46.2392 86.9389 46.2392 86.907 46.2392 86.875C46.2392 86.843 46.2392 86.8111 46.2392 86.7791C46.2392 86.7471 46.2392 86.7151 46.2392 86.6831C46.2392 86.6511 46.2392 86.6191 46.2392 86.5871C46.2392 86.5551 46.2392 86.5231 46.2392 86.4911C46.2392 86.4591 46.2392 86.427 46.2392 86.395C46.2392 86.363 46.2392 86.331 46.2392 86.2989C46.2392 86.2669 46.2392 86.2348 46.2392 86.2028C46.2392 86.1707 46.2392 86.1387 46.2392 86.1066C46.2392 86.0745 46.2392 86.0425 46.2392 86.0104C46.2392 85.9783 46.2392 85.9463 46.2392 85.9142C46.2392 85.8821 46.2392 85.85 46.2392 85.8179C46.2392 85.7858 46.2392 85.7537 46.2392 85.7216C46.2392 85.6895 46.2392 85.6574 46.2392 85.6253C46.2392 85.5932 46.2392 85.5611 46.2392 85.529C46.2392 85.4968 46.2392 85.4647 46.2392 85.4326C46.2392 85.4005 46.2392 85.3683 46.2392 85.3362C46.2392 85.3041 46.2392 85.2719 46.2392 85.2398C46.2392 85.2076 46.2392 85.1755 46.2392 85.1433C46.2392 85.1112 46.2392 85.079 46.2392 85.0468C46.2392 85.0147 46.2392 84.9825 46.2392 84.9503C46.2392 84.9182 46.2392 84.886 46.2392 84.8538C46.2392 84.8216 46.2392 84.7894 46.2392 84.7573C46.2392 84.7251 46.2392 84.6929 46.2392 84.6607C46.2392 84.6285 46.2392 84.5963 46.2392 84.5641C46.2392 84.5319 46.2392 84.4997 46.2392 84.4675C46.2392 84.4353 46.2392 84.4031 46.2392 84.3709C46.2392 84.3386 46.2392 84.3064 46.2392 84.2742C46.2392 84.242 46.2392 84.2098 46.2392 84.1775C46.2392 84.1453 46.2392 84.1131 46.2392 84.0808C46.2392 84.0486 46.2392 84.0164 46.2392 83.9841C46.2392 83.9519 46.2392 83.9197 46.2392 83.8874C46.2392 83.8552 46.2392 83.8229 46.2392 83.7907C46.2392 83.7584 46.2392 83.7262 46.2392 83.6939C46.2392 83.6617 46.2392 83.6294 46.2392 83.5972C46.2392 83.5649 46.2392 83.5326 46.2392 83.5004C46.2392 83.4681 46.2392 83.4359 46.2392 83.4036C46.2392 83.3713 46.2392 83.3391 46.2392 83.3068C46.2392 83.2745 46.2392 83.2422 46.2392 83.21C46.2392 83.1777 46.2392 83.1454 46.2392 83.1131C46.2392 83.0809 46.2392 83.0486 46.2392 83.0163C46.2392 82.984 46.2392 82.9517 46.2392 82.9194C46.2392 82.8872 46.2392 82.8549 46.2392 82.8226C46.2392 82.7903 46.2392 82.758 46.2392 82.7257C46.2392 82.6934 46.2392 82.6611 46.2392 82.6288C46.2392 82.5965 46.2392 82.5643 46.2392 82.532C46.2392 82.4997 46.2392 82.4674 46.2392 82.4351C46.2392 82.4028 46.2392 82.3705 46.2392 82.3382C46.2392 82.3059 46.2392 82.2736 46.2392 82.2413C46.2392 82.209 46.2392 82.1767 46.2392 82.1444C46.2392 82.1121 46.2392 82.0798 46.2392 82.0475C46.2392 82.0152 46.2392 81.9829 46.2392 81.9506C46.2392 81.9182 46.2392 81.8859 46.2392 81.8536C46.2392 81.8213 46.2392 81.789 46.2392 81.7567C46.2392 81.7244 46.2392 81.6921 46.2392 81.6598C46.2392 81.6275 46.2392 81.5952 46.2392 81.5629C46.2392 81.5306 46.2392 81.4983 46.2392 81.466C46.2392 81.4337 46.2392 81.4014 46.2392 81.3691C46.2392 81.3368 46.2392 81.3045 46.2392 81.2721C46.2392 81.2398 46.2392 81.2075 46.2392 81.1752C46.2392 81.1429 46.2392 81.1106 46.2392 81.0783C46.2392 81.046 46.2392 81.0137 46.2392 80.9814C46.2392 80.9491 46.2392 80.9168 46.2392 80.8845C46.2392 80.8522 46.2392 80.8199 46.2392 80.7876C46.2392 80.7553 46.2392 80.723 46.2392 80.6907C46.2392 80.6584 46.2392 80.6262 46.2392 80.5939C46.2392 80.5616 46.2392 80.5293 46.2392 80.497C46.2392 80.4647 46.2392 80.4324 46.2392 80.4001C46.2392 80.3678 46.2392 80.3355 46.2392 80.3033C46.2392 80.271 46.2392 80.2387 46.2392 80.2064C46.2392 80.1741 46.2392 80.1418 46.2392 80.1096C46.2392 80.0773 46.2392 80.045 46.2392 80.0127C46.2392 79.9805 46.2392 79.9482 46.2392 79.9159C46.2392 79.8837 46.2392 79.8514 46.2392 79.8191C46.2392 79.7868 46.2392 79.7546 46.2392 79.7223C46.2392 79.6901 46.2392 79.6578 46.2392 79.6255C46.2392 79.5933 46.2392 79.561 46.2392 79.5288C46.2392 79.4965 46.2392 79.4643 46.2392 79.432C46.2392 79.3998 46.2392 79.3675 46.2392 79.3353C46.2392 79.303 46.2392 79.2708 46.2392 79.2386C46.2392 79.2063 46.2392 79.1741 46.2392 79.1419C46.2392 79.1096 46.2392 79.0774 46.2392 79.0452C46.2392 79.0129 46.2392 78.9807 46.2392 78.9485C46.2392 78.9163 46.2392 78.8841 46.2392 78.8519C46.2392 78.8196 46.2392 78.7874 46.2392 78.7552C46.2392 78.723 46.2392 78.6908 46.2392 78.6586C46.2392 78.6264 46.2392 78.5942 46.2392 78.562C46.2392 78.5298 46.2392 78.4976 46.2392 78.4655C46.2392 78.4333 46.2392 78.4011 46.2392 78.3689C46.2392 78.3367 46.2392 78.3046 46.2392 78.2724C46.2392 78.2402 46.2392 78.208 46.2392 78.1759C46.2392 78.1437 46.2392 78.1116 46.2392 78.0794C46.2392 78.0473 46.2392 78.0151 46.2392 77.983C46.2392 77.9508 46.2392 77.9187 46.2392 77.8865C46.2392 77.8544 46.2392 77.8223 46.2392 77.7901C46.2392 77.758 46.2392 77.7259 46.2392 77.6938C46.2392 77.6616 46.2392 77.6295 46.2392 77.5974C46.2392 77.5653 46.2392 77.5332 46.2392 77.5011C46.2392 77.469 46.2392 77.4369 46.2392 77.4048C46.2392 77.3727 46.2392 77.3406 46.2392 77.3085C46.2392 77.2765 46.2392 77.2444 46.2392 77.2123C46.2392 77.1802 46.2392 77.1482 46.2392 77.1161C46.2392 77.0841 46.2392 77.052 46.2392 77.02C46.2392 76.9879 46.2392 76.9559 46.2392 76.9238C46.2392 76.8918 46.2392 76.8597 46.2392 76.8277C46.2392 76.7957 46.2392 76.7637 46.2392 76.7317C46.2392 76.6996 46.2392 76.6676 46.2392 76.6356C46.2392 76.6036 46.2392 76.5716 46.2392 76.5396C46.2392 76.5076 46.2392 76.4756 46.2392 76.4437C46.2392 76.4117 46.2392 76.3797 46.2392 76.3477C46.2392 76.3158 46.2392 76.2838 46.2392 76.2518C46.2392 76.2199 46.2392 76.1879 46.2392 76.156C46.2392 76.124 46.2392 76.0921 46.2392 76.0602C46.2392 76.0282 46.2392 75.9963 46.2392 75.9644C46.2392 75.9325 46.2392 75.9006 46.2392 75.8687C46.2392 75.8368 46.2392 75.8049 46.2392 75.773C46.2392 75.7411 46.2392 75.7092 46.2392 75.6773C46.2392 75.6454 46.2392 75.6136 46.2392 75.5817C46.2392 75.5498 46.2392 75.518 46.2392 75.4861C46.2392 75.4543 46.2392 75.4224 46.2392 75.3906C46.2392 75.3588 46.2392 75.3269 46.2392 75.2951C46.2392 75.2633 46.2392 75.2315 46.2392 75.1997C46.2392 75.1679 46.2392 75.1361 46.2392 75.1043C46.2392 75.0725 46.2392 75.0407 46.2392 75.009C46.2392 74.9772 46.2392 74.9454 46.2392 74.9137C46.2392 74.8819 46.2392 74.8501 46.2392 74.8184C46.2392 74.7867 46.2392 74.7549 46.2392 74.7232C46.2392 74.6915 46.2392 74.6597 46.2392 74.628C46.2392 74.5963 46.2392 74.5646 46.2392 74.5329C46.2392 74.5012 46.2392 74.4695 46.2392 74.4379C46.2392 74.4062 46.2392 74.3745 46.2392 74.3429C46.2392 74.3112 46.2392 74.2795 46.2392 74.2479C46.2392 74.2163 46.2392 74.1846 46.2392 74.153C46.2392 74.1214 46.2392 74.0898 46.2392 74.0581C46.2392 74.0265 46.2392 73.9949 46.2392 73.9633C46.2392 73.9318 46.2392 73.9002 46.2392 73.8686C46.2392 73.837 46.2392 73.8055 46.2392 73.7739C46.2392 73.7424 46.2392 73.7108 46.2392 73.6793C46.2392 73.6477 46.2392 73.6162 46.2392 73.5847C46.2392 73.5532 46.2392 73.5217 46.2392 73.4902C46.2392 73.4587 46.2392 73.4272 46.2392 73.3957C46.2392 73.3642 46.2392 73.3328 46.2392 73.3013C46.2392 73.2698 46.2392 73.2384 46.2392 73.207C46.2392 73.1755 46.2392 73.1441 46.2392 73.1127C46.2392 73.0813 46.2392 73.0498 46.2392 73.0184C46.2392 72.987 46.2392 72.9557 46.2392 72.9243C46.2392 72.8929 46.2392 72.8615 46.2392 72.8302C46.2392 72.7988 46.2392 72.7675 46.2392 72.7361C46.2392 72.7048 46.2392 72.6735 46.2392 72.6421C46.2392 72.6108 46.2392 72.5795 46.2392 72.5482C46.2392 72.5169 46.2392 72.4856 46.2392 72.4544C46.2392 72.4231 46.2392 72.3918 46.2392 72.3606C46.2392 72.3293 46.2392 72.2981 46.2392 72.2669C46.2392 72.2356 46.2392 72.2044 46.2392 72.1732C46.2392 72.142 46.2392 72.1108 46.2392 72.0796C46.2392 72.0484 46.2392 72.0172 46.2392 71.9861C46.2392 71.9549 46.2392 71.9238 46.2392 71.8926C46.2392 71.8615 46.2392 71.8304 46.2392 71.7992C46.2392 71.7681 46.2392 71.737 46.2392 71.7059C46.2392 71.6748 46.2392 71.6438 46.2392 71.6127C46.2392 71.5816 46.2392 71.5506 46.2392 71.5195C46.2392 71.4885 46.2392 71.4574 46.2392 71.4264C46.2392 71.3954 46.2392 71.3644 46.2392 71.3334C46.2392 71.3024 46.2392 71.2714 46.2392 71.2404C46.2392 71.2094 46.2392 71.1785 46.2392 71.1475C46.2392 71.1166 46.2392 71.0856 46.2392 71.0547C46.2392 71.0238 46.2392 70.9929 46.2392 70.962C46.2392 70.9311 46.2392 70.9002 46.2392 70.8693C46.2392 70.8384 46.2392 70.8076 46.2392 70.7767C46.2392 70.7459 46.2392 70.7151 46.2392 70.6842C46.2392 70.6534 46.2392 70.6226 46.2392 70.5918C46.2392 70.561 46.2392 70.5302 46.2392 70.4994C46.2392 70.4687 46.2392 70.4379 46.2392 70.4072C46.2392 70.3764 46.2392 70.3457 46.2392 70.315C46.2392 70.2843 46.2392 70.2536 46.2392 70.2229C46.2392 70.1922 46.2392 70.1615 46.2392 70.1308C46.2392 70.1002 46.2392 70.0695 46.2392 70.0389C46.2392 70.0083 46.2392 69.9776 46.2392 69.947C46.2392 69.9164 46.2392 69.8858 46.2392 69.8552C46.2392 69.8247 46.2392 69.7941 46.2392 69.7635C46.2392 69.733 46.2392 69.7025 46.2392 69.6719C46.2392 69.6414 46.2392 69.6109 46.2392 69.5804C46.2392 69.5499 46.2392 69.5194 46.2392 69.489C46.2392 69.4585 46.2392 69.428 46.2392 69.3976C46.2392 69.3672 46.2392 69.3367 46.2392 69.3063C46.2392 69.2759 46.2392 69.2455 46.2392 69.2151C46.2392 69.1848 46.2392 69.1544 46.2392 69.124C46.2392 69.0937 46.2392 69.0634 46.2392 69.033C46.2392 69.0027 46.2392 68.9724 46.2392 68.9421C46.2392 68.9118 46.2392 68.8816 46.2392 68.8513C46.2392 68.821 46.2392 68.7908 46.2392 68.7606C46.2392 68.7303 46.2392 68.7001 46.2392 68.6699C46.2392 68.6397 46.2392 68.6095 46.2392 68.5794C46.2392 68.5492 46.2392 68.5191 46.2392 68.4889C46.2392 68.4588 46.2392 68.4287 46.2392 68.3986C46.2392 68.3685 46.2392 68.3384 46.2392 68.3083C46.2392 68.2782 46.2392 68.2482 46.2392 68.2181C46.2392 68.1881 46.2392 68.1581 46.2392 68.1281C46.2392 68.098 46.2392 68.068 46.2392 68.0381C46.2392 68.0081 46.2392 67.9781 46.2392 67.9482C46.2392 67.9182 46.2392 67.8883 46.2392 67.8584C46.2392 67.8285 46.2392 67.7986 46.2392 67.7687C46.2392 67.7388 46.2392 67.709 46.2392 67.6791C46.2392 67.6493 46.2392 67.6195 46.2392 67.5897C46.2392 67.5598 46.2392 67.53 46.2392 67.5003C46.2392 67.4705 46.2392 67.4407 46.2392 67.411C46.2392 67.3812 46.2392 67.3515 46.2392 67.3218C46.2392 67.2921 46.2392 67.2624 46.2392 67.2327C46.2392 67.2031 46.2392 67.1734 46.2392 67.1438C46.2392 67.1141 46.2392 67.0845 46.2392 67.0549C46.2392 67.0253 46.2392 66.9957 46.2392 66.9661C46.2392 66.9365 46.2392 66.907 46.2392 66.8775C46.2392 66.8479 46.2392 66.8184 46.2392 66.7889C46.2392 66.7594 46.2392 66.7299 46.2392 66.7005C46.2392 66.671 46.2392 66.6415 46.2392 66.6121C46.2392 66.5827 46.2392 66.5533 46.2392 66.5239C46.2392 66.4945 46.2392 66.4651 46.2392 66.4358C46.2392 66.4064 46.2392 66.3771 46.2392 66.3477C46.2392 66.3184 46.2392 66.2891 46.2392 66.2598C46.2392 66.2306 46.2392 66.2013 46.2392 66.1721C46.2392 66.1428 46.2392 66.1136 46.2392 66.0844C46.2392 66.0552 46.2392 66.026 46.2392 65.9968C46.2392 65.9676 46.2392 65.9385 46.2392 65.9094C46.2392 65.8802 46.2392 65.8511 46.2392 65.822C46.2392 65.7929 46.2392 65.7638 46.2392 65.7348C46.2392 65.7057 46.2392 65.6767 46.2392 65.6477C46.2392 65.6187 46.2392 65.5897 46.2392 65.5607C46.2392 65.5317 46.2392 65.5027 46.2392 65.4738C46.2392 65.4449 46.2392 65.4159 46.2392 65.387C46.2392 65.3581 46.2392 65.3292 46.2392 65.3004C46.2392 65.2715 46.2392 65.2427 46.2392 65.2139C46.2392 65.185 46.2392 65.1562 46.2392 65.1275C46.2392 65.0987 46.2392 65.0699 46.2392 65.0412C46.2392 65.0124 46.2392 64.9837 46.2392 64.955C46.2392 64.9263 46.2392 64.8976 46.2392 64.8689C46.2392 64.8403 46.2392 64.8116 46.2392 64.783C46.2392 64.7544 46.2392 64.7258 46.2392 64.6972C46.2392 64.6686 46.2392 64.6401 46.2392 64.6115C46.2392 64.583 46.2392 64.5545 46.2392 64.526C46.2392 64.4975 46.2392 64.469 46.2392 64.4406C46.2392 64.4121 46.2392 64.3837 46.2392 64.3552C46.2392 64.3268 46.2392 64.2984 46.2392 64.2701C46.2392 64.2417 46.2392 64.2133 46.2392 64.185C46.2392 64.1567 46.2392 64.1284 46.2392 64.1001C46.2392 64.0718 46.2392 64.0435 46.2392 64.0153C46.2392 63.987 46.2392 63.9588 46.2392 63.9306C46.2392 63.9024 46.2392 63.8742 46.2392 63.8461C46.2392 63.8179 46.2392 63.7898 46.2392 63.7617C46.2392 63.7336 46.2392 63.7055 46.2392 63.6774C46.2392 63.6493 46.2392 63.6213 46.2392 63.5932C46.2392 63.5652 46.2392 63.5372 46.2392 63.5092C46.2392 63.4812 46.2392 63.4533 46.2392 63.4253C46.2392 63.3974 46.2392 63.3695 46.2392 63.3416C46.2392 63.3137 46.2392 63.2858 46.2392 63.258C46.2392 63.2301 46.2392 63.2023 46.2392 63.1745C46.2392 63.1467 46.2392 63.1189 46.2392 63.0911C46.2392 63.0634 46.2392 63.0356 46.2392 63.0079C46.2392 62.9802 46.2392 62.9525 46.2392 62.9249C46.2392 62.8972 46.2392 62.8695 46.2392 62.8419C46.2392 62.8143 46.2392 62.7867 46.2392 62.7591C46.2392 62.7315 46.2392 62.704 46.2392 62.6765C46.2392 62.6489 46.2392 62.6214 46.2392 62.5939C46.2392 62.5665 46.2392 62.539 46.2392 62.5116C46.2392 62.4841 46.2392 62.4567 46.2392 62.4293C46.2392 62.4019 46.2392 62.3746 46.2392 62.3472C46.2392 62.3199 46.2392 62.2926 46.2392 62.2653C46.2392 62.238 46.2392 62.2107 46.2392 62.1835C46.2392 62.1562 46.2392 62.129 46.2392 62.1018C46.2392 62.0746 46.2392 62.0474 46.2392 62.0203C46.2392 61.9931 46.2392 61.966 46.2392 61.9389C46.2392 61.9118 46.2392 61.8847 46.2392 61.8576C46.2392 61.8306 46.2392 61.8036 46.2392 61.7766C46.2392 61.7495 46.2392 61.7226 46.2392 61.6956C46.2392 61.6687 46.2392 61.6417 46.2392 61.6148C46.2392 61.5879 46.2392 61.561 46.2392 61.5342C46.2392 61.5073 46.2392 61.4805 46.2392 61.4537C46.2392 61.4269 46.2392 61.4001 46.2392 61.3733C46.2392 61.3466 46.2392 61.3198 46.2392 61.2931C46.2392 61.2664 46.2392 61.2397 46.2392 61.2131C46.2392 61.1864 46.2392 61.1598 46.2392 61.1332C46.2392 61.1066 46.2392 61.08 46.2392 61.0534C46.2392 61.0269 46.2392 61.0004 46.2392 60.9739C46.2392 60.9473 46.2392 60.9209 46.2392 60.8944C46.2392 60.868 46.2392 60.8415 46.2392 60.8151C46.2392 60.7887 46.2392 60.7624 46.2392 60.736C46.2392 60.7097 46.2392 60.6833 46.2392 60.657C46.2392 60.6307 46.2392 60.6045 46.2392 60.5782C46.2392 60.552 46.2392 60.5258 46.2392 60.4996C46.2392 60.4734 46.2392 60.4472 46.2392 60.4211C46.2392 60.3949 46.2392 60.3688 46.2392 60.3427C46.2392 60.3166 46.2392 60.2906 46.2392 60.2645C46.2392 60.2385 46.2392 60.2125 46.2392 60.1865C46.2392 60.1605 46.2392 60.1346 46.2392 60.1087C46.2392 60.0827 46.2392 60.0568 46.2392 60.031C46.2392 60.0051 46.2392 59.9792 46.2392 59.9534C46.2392 59.9276 46.2392 59.9018 46.2392 59.876C46.2392 59.8503 46.2392 59.8245 46.2392 59.7988C46.2392 59.7731 46.2392 59.7474 46.2392 59.7218C46.2392 59.6961 46.2392 59.6705 46.2392 59.6449C46.2392 59.6193 46.2392 59.5937 46.2392 59.5682C46.2392 59.5426 46.2392 59.5171 46.2392 59.4916C46.2392 59.4661 46.2392 59.4407 46.2392 59.4152C46.2392 59.3898 46.2392 59.3644 46.2392 59.339C46.2392 59.3136 46.2392 59.2883 46.2392 59.263C46.2392 59.2376 46.2392 59.2123 46.2392 59.1871C46.2392 59.1618 46.2392 59.1366 46.2392 59.1114C46.2392 59.0861 46.2392 59.061 46.2392 59.0358C46.2392 59.0107 46.2392 58.9855 46.2392 58.9604C46.2392 58.9353 46.2392 58.9103 46.2392 58.8852C46.2392 58.8602 46.2392 58.8352 46.2392 58.8102C46.2392 58.7852 46.2392 58.7603 46.2392 58.7353C46.2392 58.7104 46.2392 58.6855 46.2392 58.6607C46.2392 58.6358 46.2392 58.611 46.2392 58.5861C46.2392 58.5613 46.2392 58.5366 46.2392 58.5118C46.2392 58.4871 46.2392 58.4623 46.2392 58.4376C46.2392 58.413 46.2392 58.3883 46.2392 58.3637C46.2392 58.339 46.2392 58.3144 46.2392 58.2899C46.2392 58.2653 46.2392 58.2407 46.2392 58.2162C46.2392 58.1917 46.2392 58.1672 46.2392 58.1428C46.2392 58.1183 46.2392 58.0939 46.2392 58.0695C46.2392 58.0451 46.2392 58.0207 46.2392 57.9964C46.2392 57.9721 46.2392 57.9478 46.2392 57.9235C46.2392 57.8992 46.2392 57.875 46.2392 57.8508C46.2392 57.8265 46.2392 57.8024 46.2392 57.7782C46.2392 57.754 46.2392 57.7299 46.2392 57.7058C46.2392 57.6817 46.2392 57.6577 46.2392 57.6336C46.2392 57.6096 46.2392 57.5856 46.2392 57.5616C46.2392 57.5377 46.2392 57.5137 46.2392 57.4898C46.2392 57.4659 46.2392 57.442 46.2392 57.4182C46.2392 57.3943 46.2392 57.3705 46.2392 57.3467C46.2392 57.3229 46.2392 57.2992 46.2392 57.2755C46.2392 57.2517 46.2392 57.2281 46.2392 57.2044C46.2392 57.1807 46.2392 57.1571 46.2392 57.1335C46.2392 57.1099 46.2392 57.0863 46.2392 57.0628C46.2392 57.0393 46.2392 57.0158 46.2392 56.9923C46.2392 56.9688 46.2392 56.9454 46.2392 56.922C46.2392 56.8986 46.2392 56.8752 46.2392 56.8518C46.2392 56.8285 46.2392 56.8052 46.2392 56.7819C46.2392 56.7586 46.2392 56.7354 46.2392 56.7122C46.2392 56.6889 46.2392 56.6658 46.2392 56.6426C46.2392 56.6194 46.2392 56.5963 46.2392 56.5732C46.2392 56.5501 46.2392 56.5271 46.2392 56.5041C46.2392 56.481 46.2392 56.458 46.2392 56.4351C46.2392 56.4121 46.2392 56.3892 46.2392 56.3663C46.2392 56.3434 46.2392 56.3206 46.2392 56.2977C46.2392 56.2749 46.2392 56.2521 46.2392 56.2293C46.2392 56.2066 46.2392 56.1838 46.2392 56.1611C46.2392 56.1384 46.2392 56.1158 46.2392 56.0931C46.2392 56.0705 46.2392 56.0479 46.2392 56.0254C46.2392 56.0028 46.2392 55.9803 46.2392 55.9578C46.2392 55.9353 46.2392 55.9128 46.2392 55.8904C46.2392 55.8679 46.2392 55.8455 46.2392 55.8232C46.2392 55.8008 46.2392 55.7785 46.2392 55.7562C46.2392 55.7339 46.2392 55.7116 46.2392 55.6894C46.2392 55.6671 46.2392 55.645 46.2392 55.6228C46.2392 55.6006 46.2392 55.5785 46.2392 55.5564C46.2392 55.5343 46.2392 55.5122 46.2392 55.4902C46.2392 55.4682 46.2392 55.4462 46.2392 55.4242C46.2392 55.4023 46.2392 55.3804 46.2392 55.3585C46.2392 55.3366 46.2392 55.3147 46.2392 55.2929C46.2392 55.2711 46.2392 55.2493 46.2392 55.2275C46.2392 55.2058 46.2392 55.1841 46.2392 55.1624C46.2392 55.1407 46.2392 55.1191 46.2392 55.0974C46.2392 55.0758 46.2392 55.0542 46.2392 55.0327C46.2392 55.0112 46.2392 54.9896 46.2392 54.9682C46.2392 54.9467 46.2392 54.9253 46.2392 54.9039C46.2392 54.8825 46.2392 54.8611 46.2392 54.8397C46.2392 54.8184 46.2392 54.7971 46.2392 54.7759C46.2392 54.7546 46.2392 54.7334 46.2392 54.7122C46.2392 54.691 46.2392 54.6698 46.2392 54.6487C46.2392 54.6276 46.2392 54.6065 46.2392 54.5854C46.2392 54.5644 46.2392 54.5434 46.2392 54.5224C46.2392 54.5014 46.2392 54.4805 46.2392 54.4596C46.2392 54.4387 46.2392 54.4178 46.2392 54.397C46.2392 54.3761 46.2392 54.3553 46.2392 54.3346C46.2392 54.3138 46.2392 54.2931 46.2392 54.2724C46.2392 54.2517 46.2392 54.231 46.2392 54.2104C46.2392 54.1898 46.2392 54.1692 46.2392 54.1487C46.2392 54.1281 46.2392 54.1076 46.2392 54.0871C46.2392 54.0667 46.2392 54.0462 46.2392 54.0258C46.2392 54.0054 46.2392 53.9851 46.2392 53.9647C46.2392 53.9444 46.2392 53.9241 46.2392 53.9039C46.2392 53.8836 46.2392 53.8634 46.2392 53.8432C46.2392 53.8231 46.2392 53.8029 46.2392 53.7828C46.2392 53.7627 46.2392 53.7426 46.2392 53.7226C46.2392 53.7026 46.2392 53.6826 46.2392 53.6626C46.2392 53.6427 46.2392 53.6228 46.2392 53.6029C46.2392 53.583 46.2392 53.5632 46.2392 53.5434C46.2392 53.5235 46.2392 53.5038 46.2392 53.484C46.2392 53.4643 46.2392 53.4446 46.2392 53.425C46.2392 53.4053 46.2392 53.3857 46.2392 53.3661C46.2392 53.3465 46.2392 53.327 46.2392 53.3075C46.2392 53.288 46.2392 53.2685 46.2392 53.2491C46.2392 53.2297 46.2392 53.2103 46.2392 53.1909C46.2392 53.1716 46.2392 53.1523 46.2392 53.133C46.2392 53.1137 46.2392 53.0945 46.2392 53.0753C46.2392 53.0561 46.2392 53.037 46.2392 53.0178C46.2392 52.9987 46.2392 52.9796 46.2392 52.9606C46.2392 52.9416 46.2392 52.9225 46.2392 52.9036C46.2392 52.8846 46.2392 52.8657 46.2392 52.8468C46.2392 52.8279 46.2392 52.8091 46.2392 52.7903C46.2392 52.7715 46.2392 52.7527 46.2392 52.734C46.2392 52.7152 46.2392 52.6965 46.2392 52.6779C46.2392 52.6592 46.2392 52.6406 46.2392 52.6221C46.2392 52.6035 46.2392 52.5849 46.2392 52.5664C46.2392 52.548 46.2392 52.5295 46.2392 52.5111C46.2392 52.4927 46.2392 52.4743 46.2392 52.456C46.2392 52.4376 46.2392 52.4193 46.2392 52.4011C46.2392 52.3828 46.2392 52.3646 46.2392 52.3464C46.2392 52.3282 46.2392 52.3101 46.2392 52.292C46.2392 52.2739 46.2392 52.2559 46.2392 52.2378C46.2392 52.2198 46.2392 52.2019 46.2392 52.1839C46.2392 52.166 46.2392 52.1481 46.2392 52.1302C46.2392 52.1124 46.2392 52.0946 46.2392 52.0768C46.2392 52.059 46.2392 52.0413 46.2392 52.0236C46.2392 52.0059 46.2392 51.9883 46.2392 51.9706C46.2392 51.953 46.2392 51.9355 46.2392 51.9179C46.2392 51.9004 46.2392 51.8829 46.2392 51.8655C46.2392 51.848 46.2392 51.8306 46.2392 51.8132C46.2392 51.7959 46.2392 51.7786 46.2392 51.7613C46.2392 51.744 46.2392 51.7267 46.2392 51.7095C46.2392 51.6923 46.2392 51.6752 46.2392 51.6581C46.2392 51.641 46.2392 51.6239 46.2392 51.6068C46.2392 51.5898 46.2392 51.5728 46.2392 51.5559C46.2392 51.5389 46.2392 51.522 46.2392 51.5051C46.2392 51.4883 46.2392 51.4714 46.2392 51.4547C46.2392 51.4379 46.2392 51.4211 46.2392 51.4044C46.2392 51.3877 46.2392 51.3711 46.2392 51.3544C46.2392 51.3378 46.2392 51.3213 46.2392 51.3047C46.2392 51.2882 46.2392 51.2717 46.2392 51.2553C46.2392 51.2388 46.2392 51.2224 46.2392 51.206C46.2392 51.1897 46.2392 51.1734 46.2392 51.1571C46.2392 51.1408 46.2392 51.1246 46.2392 51.1084C46.2392 51.0922 46.2392 51.076 46.2392 51.0599C46.2392 51.0438 46.2392 51.0278 46.2392 51.0117C46.2392 50.9957 46.2392 50.9797 46.2392 50.9638C46.2392 50.9479 46.2392 50.932 46.2392 50.9161C46.2392 50.9003 46.2392 50.8845 46.2392 50.8687C46.2392 50.8529 46.2392 50.8372 46.2392 50.8215C46.2392 50.8059 46.2392 50.7902 46.2392 50.7746C46.2392 50.7591 46.2392 50.7435 46.2392 50.728C46.2392 50.7125 46.2392 50.697 46.2392 50.6816C46.2392 50.6662 46.2392 50.6508 46.2392 50.6355C46.2392 50.6202 46.2392 50.6049 46.2392 50.5897C46.2392 50.5744 46.2392 50.5592 46.2392 50.5441C46.2392 50.5289 46.2392 50.5138 46.2392 50.4987C46.2392 50.4837 46.2392 50.4687 46.2392 50.4537C46.2392 50.4387 46.2392 50.4238 46.2392 50.4089C46.2392 50.394 46.2392 50.3792 46.2392 50.3644C46.2392 50.3496 46.2392 50.3348 46.2392 50.3201C46.2392 50.3054 46.2392 50.2907 46.2392 50.2761C46.2392 50.2615 46.2392 50.2469 46.2392 50.2324C46.2392 50.2179 46.2392 50.2034 46.2392 50.1889C46.2392 50.1745 46.2392 50.1601 46.2392 50.1458C46.2392 50.1314 46.2392 50.1171 46.2392 50.1028C46.2392 50.0886 46.2392 50.0744 46.2392 50.0602C46.2392 50.046 46.2392 50.0319 46.2392 50.0178H44.2392C44.2392 50.0319 44.2392 50.046 44.2392 50.0602C44.2392 50.0744 44.2392 50.0886 44.2392 50.1028C44.2392 50.1171 44.2392 50.1314 44.2392 50.1458C44.2392 50.1601 44.2392 50.1745 44.2392 50.1889C44.2392 50.2034 44.2392 50.2179 44.2392 50.2324C44.2392 50.2469 44.2392 50.2615 44.2392 50.2761C44.2392 50.2907 44.2392 50.3054 44.2392 50.3201C44.2392 50.3348 44.2392 50.3496 44.2392 50.3644C44.2392 50.3792 44.2392 50.394 44.2392 50.4089C44.2392 50.4238 44.2392 50.4387 44.2392 50.4537C44.2392 50.4687 44.2392 50.4837 44.2392 50.4987C44.2392 50.5138 44.2392 50.5289 44.2392 50.5441C44.2392 50.5592 44.2392 50.5744 44.2392 50.5897C44.2392 50.6049 44.2392 50.6202 44.2392 50.6355C44.2392 50.6508 44.2392 50.6662 44.2392 50.6816C44.2392 50.697 44.2392 50.7125 44.2392 50.728C44.2392 50.7435 44.2392 50.7591 44.2392 50.7746C44.2392 50.7902 44.2392 50.8059 44.2392 50.8215C44.2392 50.8372 44.2392 50.8529 44.2392 50.8687C44.2392 50.8845 44.2392 50.9003 44.2392 50.9161C44.2392 50.932 44.2392 50.9479 44.2392 50.9638C44.2392 50.9797 44.2392 50.9957 44.2392 51.0117C44.2392 51.0278 44.2392 51.0438 44.2392 51.0599C44.2392 51.076 44.2392 51.0922 44.2392 51.1084C44.2392 51.1246 44.2392 51.1408 44.2392 51.1571C44.2392 51.1734 44.2392 51.1897 44.2392 51.206C44.2392 51.2224 44.2392 51.2388 44.2392 51.2553C44.2392 51.2717 44.2392 51.2882 44.2392 51.3047C44.2392 51.3213 44.2392 51.3378 44.2392 51.3544C44.2392 51.3711 44.2392 51.3877 44.2392 51.4044C44.2392 51.4211 44.2392 51.4379 44.2392 51.4547C44.2392 51.4714 44.2392 51.4883 44.2392 51.5051C44.2392 51.522 44.2392 51.5389 44.2392 51.5559C44.2392 51.5728 44.2392 51.5898 44.2392 51.6068C44.2392 51.6239 44.2392 51.641 44.2392 51.6581C44.2392 51.6752 44.2392 51.6923 44.2392 51.7095C44.2392 51.7267 44.2392 51.744 44.2392 51.7613C44.2392 51.7786 44.2392 51.7959 44.2392 51.8132C44.2392 51.8306 44.2392 51.848 44.2392 51.8655C44.2392 51.8829 44.2392 51.9004 44.2392 51.9179C44.2392 51.9355 44.2392 51.953 44.2392 51.9706C44.2392 51.9883 44.2392 52.0059 44.2392 52.0236C44.2392 52.0413 44.2392 52.059 44.2392 52.0768C44.2392 52.0946 44.2392 52.1124 44.2392 52.1302C44.2392 52.1481 44.2392 52.166 44.2392 52.1839C44.2392 52.2019 44.2392 52.2198 44.2392 52.2378C44.2392 52.2559 44.2392 52.2739 44.2392 52.292C44.2392 52.3101 44.2392 52.3282 44.2392 52.3464C44.2392 52.3646 44.2392 52.3828 44.2392 52.4011C44.2392 52.4193 44.2392 52.4376 44.2392 52.456C44.2392 52.4743 44.2392 52.4927 44.2392 52.5111C44.2392 52.5295 44.2392 52.548 44.2392 52.5664C44.2392 52.5849 44.2392 52.6035 44.2392 52.6221C44.2392 52.6406 44.2392 52.6592 44.2392 52.6779C44.2392 52.6965 44.2392 52.7152 44.2392 52.734C44.2392 52.7527 44.2392 52.7715 44.2392 52.7903C44.2392 52.8091 44.2392 52.8279 44.2392 52.8468C44.2392 52.8657 44.2392 52.8846 44.2392 52.9036C44.2392 52.9225 44.2392 52.9416 44.2392 52.9606C44.2392 52.9796 44.2392 52.9987 44.2392 53.0178C44.2392 53.037 44.2392 53.0561 44.2392 53.0753C44.2392 53.0945 44.2392 53.1137 44.2392 53.133C44.2392 53.1523 44.2392 53.1716 44.2392 53.1909C44.2392 53.2103 44.2392 53.2297 44.2392 53.2491C44.2392 53.2685 44.2392 53.288 44.2392 53.3075C44.2392 53.327 44.2392 53.3465 44.2392 53.3661C44.2392 53.3857 44.2392 53.4053 44.2392 53.425C44.2392 53.4446 44.2392 53.4643 44.2392 53.484C44.2392 53.5038 44.2392 53.5235 44.2392 53.5434C44.2392 53.5632 44.2392 53.583 44.2392 53.6029C44.2392 53.6228 44.2392 53.6427 44.2392 53.6626C44.2392 53.6826 44.2392 53.7026 44.2392 53.7226C44.2392 53.7426 44.2392 53.7627 44.2392 53.7828C44.2392 53.8029 44.2392 53.8231 44.2392 53.8432C44.2392 53.8634 44.2392 53.8836 44.2392 53.9039C44.2392 53.9241 44.2392 53.9444 44.2392 53.9647C44.2392 53.9851 44.2392 54.0054 44.2392 54.0258C44.2392 54.0462 44.2392 54.0667 44.2392 54.0871C44.2392 54.1076 44.2392 54.1281 44.2392 54.1487C44.2392 54.1692 44.2392 54.1898 44.2392 54.2104C44.2392 54.231 44.2392 54.2517 44.2392 54.2724C44.2392 54.2931 44.2392 54.3138 44.2392 54.3346C44.2392 54.3553 44.2392 54.3761 44.2392 54.397C44.2392 54.4178 44.2392 54.4387 44.2392 54.4596C44.2392 54.4805 44.2392 54.5014 44.2392 54.5224C44.2392 54.5434 44.2392 54.5644 44.2392 54.5854C44.2392 54.6065 44.2392 54.6276 44.2392 54.6487C44.2392 54.6698 44.2392 54.691 44.2392 54.7122C44.2392 54.7334 44.2392 54.7546 44.2392 54.7759C44.2392 54.7971 44.2392 54.8184 44.2392 54.8397C44.2392 54.8611 44.2392 54.8825 44.2392 54.9039C44.2392 54.9253 44.2392 54.9467 44.2392 54.9682C44.2392 54.9896 44.2392 55.0112 44.2392 55.0327C44.2392 55.0542 44.2392 55.0758 44.2392 55.0974C44.2392 55.1191 44.2392 55.1407 44.2392 55.1624C44.2392 55.1841 44.2392 55.2058 44.2392 55.2275C44.2392 55.2493 44.2392 55.2711 44.2392 55.2929C44.2392 55.3147 44.2392 55.3366 44.2392 55.3585C44.2392 55.3804 44.2392 55.4023 44.2392 55.4242C44.2392 55.4462 44.2392 55.4682 44.2392 55.4902C44.2392 55.5122 44.2392 55.5343 44.2392 55.5564C44.2392 55.5785 44.2392 55.6006 44.2392 55.6228C44.2392 55.645 44.2392 55.6671 44.2392 55.6894C44.2392 55.7116 44.2392 55.7339 44.2392 55.7562C44.2392 55.7785 44.2392 55.8008 44.2392 55.8232C44.2392 55.8455 44.2392 55.8679 44.2392 55.8904C44.2392 55.9128 44.2392 55.9353 44.2392 55.9578C44.2392 55.9803 44.2392 56.0028 44.2392 56.0254C44.2392 56.0479 44.2392 56.0705 44.2392 56.0931C44.2392 56.1158 44.2392 56.1384 44.2392 56.1611C44.2392 56.1838 44.2392 56.2066 44.2392 56.2293C44.2392 56.2521 44.2392 56.2749 44.2392 56.2977C44.2392 56.3206 44.2392 56.3434 44.2392 56.3663C44.2392 56.3892 44.2392 56.4121 44.2392 56.4351C44.2392 56.458 44.2392 56.481 44.2392 56.5041C44.2392 56.5271 44.2392 56.5501 44.2392 56.5732C44.2392 56.5963 44.2392 56.6194 44.2392 56.6426C44.2392 56.6658 44.2392 56.6889 44.2392 56.7122C44.2392 56.7354 44.2392 56.7586 44.2392 56.7819C44.2392 56.8052 44.2392 56.8285 44.2392 56.8518C44.2392 56.8752 44.2392 56.8986 44.2392 56.922C44.2392 56.9454 44.2392 56.9688 44.2392 56.9923C44.2392 57.0158 44.2392 57.0393 44.2392 57.0628C44.2392 57.0863 44.2392 57.1099 44.2392 57.1335C44.2392 57.1571 44.2392 57.1807 44.2392 57.2044C44.2392 57.2281 44.2392 57.2517 44.2392 57.2755C44.2392 57.2992 44.2392 57.3229 44.2392 57.3467C44.2392 57.3705 44.2392 57.3943 44.2392 57.4182C44.2392 57.442 44.2392 57.4659 44.2392 57.4898C44.2392 57.5137 44.2392 57.5377 44.2392 57.5616C44.2392 57.5856 44.2392 57.6096 44.2392 57.6336C44.2392 57.6577 44.2392 57.6817 44.2392 57.7058C44.2392 57.7299 44.2392 57.754 44.2392 57.7782C44.2392 57.8024 44.2392 57.8265 44.2392 57.8508C44.2392 57.875 44.2392 57.8992 44.2392 57.9235C44.2392 57.9478 44.2392 57.9721 44.2392 57.9964C44.2392 58.0207 44.2392 58.0451 44.2392 58.0695C44.2392 58.0939 44.2392 58.1183 44.2392 58.1428C44.2392 58.1672 44.2392 58.1917 44.2392 58.2162C44.2392 58.2407 44.2392 58.2653 44.2392 58.2899C44.2392 58.3144 44.2392 58.339 44.2392 58.3637C44.2392 58.3883 44.2392 58.413 44.2392 58.4376C44.2392 58.4623 44.2392 58.4871 44.2392 58.5118C44.2392 58.5366 44.2392 58.5613 44.2392 58.5861C44.2392 58.611 44.2392 58.6358 44.2392 58.6607C44.2392 58.6855 44.2392 58.7104 44.2392 58.7353C44.2392 58.7603 44.2392 58.7852 44.2392 58.8102C44.2392 58.8352 44.2392 58.8602 44.2392 58.8852C44.2392 58.9103 44.2392 58.9353 44.2392 58.9604C44.2392 58.9855 44.2392 59.0107 44.2392 59.0358C44.2392 59.061 44.2392 59.0861 44.2392 59.1114C44.2392 59.1366 44.2392 59.1618 44.2392 59.1871C44.2392 59.2123 44.2392 59.2376 44.2392 59.263C44.2392 59.2883 44.2392 59.3136 44.2392 59.339C44.2392 59.3644 44.2392 59.3898 44.2392 59.4152C44.2392 59.4407 44.2392 59.4661 44.2392 59.4916C44.2392 59.5171 44.2392 59.5426 44.2392 59.5682C44.2392 59.5937 44.2392 59.6193 44.2392 59.6449C44.2392 59.6705 44.2392 59.6961 44.2392 59.7218C44.2392 59.7474 44.2392 59.7731 44.2392 59.7988C44.2392 59.8245 44.2392 59.8503 44.2392 59.876C44.2392 59.9018 44.2392 59.9276 44.2392 59.9534C44.2392 59.9792 44.2392 60.0051 44.2392 60.031C44.2392 60.0568 44.2392 60.0827 44.2392 60.1087C44.2392 60.1346 44.2392 60.1605 44.2392 60.1865C44.2392 60.2125 44.2392 60.2385 44.2392 60.2645C44.2392 60.2906 44.2392 60.3166 44.2392 60.3427C44.2392 60.3688 44.2392 60.3949 44.2392 60.4211C44.2392 60.4472 44.2392 60.4734 44.2392 60.4996C44.2392 60.5258 44.2392 60.552 44.2392 60.5782C44.2392 60.6045 44.2392 60.6307 44.2392 60.657C44.2392 60.6833 44.2392 60.7097 44.2392 60.736C44.2392 60.7624 44.2392 60.7887 44.2392 60.8151C44.2392 60.8415 44.2392 60.868 44.2392 60.8944C44.2392 60.9209 44.2392 60.9473 44.2392 60.9739C44.2392 61.0004 44.2392 61.0269 44.2392 61.0534C44.2392 61.08 44.2392 61.1066 44.2392 61.1332C44.2392 61.1598 44.2392 61.1864 44.2392 61.2131C44.2392 61.2397 44.2392 61.2664 44.2392 61.2931C44.2392 61.3198 44.2392 61.3466 44.2392 61.3733C44.2392 61.4001 44.2392 61.4269 44.2392 61.4537C44.2392 61.4805 44.2392 61.5073 44.2392 61.5342C44.2392 61.561 44.2392 61.5879 44.2392 61.6148C44.2392 61.6417 44.2392 61.6687 44.2392 61.6956C44.2392 61.7226 44.2392 61.7495 44.2392 61.7766C44.2392 61.8036 44.2392 61.8306 44.2392 61.8576C44.2392 61.8847 44.2392 61.9118 44.2392 61.9389C44.2392 61.966 44.2392 61.9931 44.2392 62.0203C44.2392 62.0474 44.2392 62.0746 44.2392 62.1018C44.2392 62.129 44.2392 62.1562 44.2392 62.1835C44.2392 62.2107 44.2392 62.238 44.2392 62.2653C44.2392 62.2926 44.2392 62.3199 44.2392 62.3472C44.2392 62.3746 44.2392 62.4019 44.2392 62.4293C44.2392 62.4567 44.2392 62.4841 44.2392 62.5116C44.2392 62.539 44.2392 62.5665 44.2392 62.5939C44.2392 62.6214 44.2392 62.6489 44.2392 62.6765C44.2392 62.704 44.2392 62.7315 44.2392 62.7591C44.2392 62.7867 44.2392 62.8143 44.2392 62.8419C44.2392 62.8695 44.2392 62.8972 44.2392 62.9249C44.2392 62.9525 44.2392 62.9802 44.2392 63.0079C44.2392 63.0356 44.2392 63.0634 44.2392 63.0911C44.2392 63.1189 44.2392 63.1467 44.2392 63.1745C44.2392 63.2023 44.2392 63.2301 44.2392 63.258C44.2392 63.2858 44.2392 63.3137 44.2392 63.3416C44.2392 63.3695 44.2392 63.3974 44.2392 63.4253C44.2392 63.4533 44.2392 63.4812 44.2392 63.5092C44.2392 63.5372 44.2392 63.5652 44.2392 63.5932C44.2392 63.6213 44.2392 63.6493 44.2392 63.6774C44.2392 63.7055 44.2392 63.7336 44.2392 63.7617C44.2392 63.7898 44.2392 63.8179 44.2392 63.8461C44.2392 63.8742 44.2392 63.9024 44.2392 63.9306C44.2392 63.9588 44.2392 63.987 44.2392 64.0153C44.2392 64.0435 44.2392 64.0718 44.2392 64.1001C44.2392 64.1284 44.2392 64.1567 44.2392 64.185C44.2392 64.2133 44.2392 64.2417 44.2392 64.2701C44.2392 64.2984 44.2392 64.3268 44.2392 64.3552C44.2392 64.3837 44.2392 64.4121 44.2392 64.4406C44.2392 64.469 44.2392 64.4975 44.2392 64.526C44.2392 64.5545 44.2392 64.583 44.2392 64.6115C44.2392 64.6401 44.2392 64.6686 44.2392 64.6972C44.2392 64.7258 44.2392 64.7544 44.2392 64.783C44.2392 64.8116 44.2392 64.8403 44.2392 64.8689C44.2392 64.8976 44.2392 64.9263 44.2392 64.955C44.2392 64.9837 44.2392 65.0124 44.2392 65.0412C44.2392 65.0699 44.2392 65.0987 44.2392 65.1275C44.2392 65.1562 44.2392 65.185 44.2392 65.2139C44.2392 65.2427 44.2392 65.2715 44.2392 65.3004C44.2392 65.3292 44.2392 65.3581 44.2392 65.387C44.2392 65.4159 44.2392 65.4449 44.2392 65.4738C44.2392 65.5027 44.2392 65.5317 44.2392 65.5607C44.2392 65.5897 44.2392 65.6187 44.2392 65.6477C44.2392 65.6767 44.2392 65.7057 44.2392 65.7348C44.2392 65.7638 44.2392 65.7929 44.2392 65.822C44.2392 65.8511 44.2392 65.8802 44.2392 65.9094C44.2392 65.9385 44.2392 65.9676 44.2392 65.9968C44.2392 66.026 44.2392 66.0552 44.2392 66.0844C44.2392 66.1136 44.2392 66.1428 44.2392 66.1721C44.2392 66.2013 44.2392 66.2306 44.2392 66.2598C44.2392 66.2891 44.2392 66.3184 44.2392 66.3477C44.2392 66.3771 44.2392 66.4064 44.2392 66.4358C44.2392 66.4651 44.2392 66.4945 44.2392 66.5239C44.2392 66.5533 44.2392 66.5827 44.2392 66.6121C44.2392 66.6415 44.2392 66.671 44.2392 66.7005C44.2392 66.7299 44.2392 66.7594 44.2392 66.7889C44.2392 66.8184 44.2392 66.8479 44.2392 66.8775C44.2392 66.907 44.2392 66.9365 44.2392 66.9661C44.2392 66.9957 44.2392 67.0253 44.2392 67.0549C44.2392 67.0845 44.2392 67.1141 44.2392 67.1438C44.2392 67.1734 44.2392 67.2031 44.2392 67.2327C44.2392 67.2624 44.2392 67.2921 44.2392 67.3218C44.2392 67.3515 44.2392 67.3812 44.2392 67.411C44.2392 67.4407 44.2392 67.4705 44.2392 67.5003C44.2392 67.53 44.2392 67.5598 44.2392 67.5897C44.2392 67.6195 44.2392 67.6493 44.2392 67.6791C44.2392 67.709 44.2392 67.7388 44.2392 67.7687C44.2392 67.7986 44.2392 67.8285 44.2392 67.8584C44.2392 67.8883 44.2392 67.9182 44.2392 67.9482C44.2392 67.9781 44.2392 68.0081 44.2392 68.0381C44.2392 68.068 44.2392 68.098 44.2392 68.1281C44.2392 68.1581 44.2392 68.1881 44.2392 68.2181C44.2392 68.2482 44.2392 68.2782 44.2392 68.3083C44.2392 68.3384 44.2392 68.3685 44.2392 68.3986C44.2392 68.4287 44.2392 68.4588 44.2392 68.4889C44.2392 68.5191 44.2392 68.5492 44.2392 68.5794C44.2392 68.6095 44.2392 68.6397 44.2392 68.6699C44.2392 68.7001 44.2392 68.7303 44.2392 68.7606C44.2392 68.7908 44.2392 68.821 44.2392 68.8513C44.2392 68.8816 44.2392 68.9118 44.2392 68.9421C44.2392 68.9724 44.2392 69.0027 44.2392 69.033C44.2392 69.0634 44.2392 69.0937 44.2392 69.124C44.2392 69.1544 44.2392 69.1848 44.2392 69.2151C44.2392 69.2455 44.2392 69.2759 44.2392 69.3063C44.2392 69.3367 44.2392 69.3672 44.2392 69.3976C44.2392 69.428 44.2392 69.4585 44.2392 69.489C44.2392 69.5194 44.2392 69.5499 44.2392 69.5804C44.2392 69.6109 44.2392 69.6414 44.2392 69.6719C44.2392 69.7025 44.2392 69.733 44.2392 69.7635C44.2392 69.7941 44.2392 69.8247 44.2392 69.8552C44.2392 69.8858 44.2392 69.9164 44.2392 69.947C44.2392 69.9776 44.2392 70.0083 44.2392 70.0389C44.2392 70.0695 44.2392 70.1002 44.2392 70.1308C44.2392 70.1615 44.2392 70.1922 44.2392 70.2229C44.2392 70.2536 44.2392 70.2843 44.2392 70.315C44.2392 70.3457 44.2392 70.3764 44.2392 70.4072C44.2392 70.4379 44.2392 70.4687 44.2392 70.4994C44.2392 70.5302 44.2392 70.561 44.2392 70.5918C44.2392 70.6226 44.2392 70.6534 44.2392 70.6842C44.2392 70.7151 44.2392 70.7459 44.2392 70.7767C44.2392 70.8076 44.2392 70.8384 44.2392 70.8693C44.2392 70.9002 44.2392 70.9311 44.2392 70.962C44.2392 70.9929 44.2392 71.0238 44.2392 71.0547C44.2392 71.0856 44.2392 71.1166 44.2392 71.1475C44.2392 71.1785 44.2392 71.2094 44.2392 71.2404C44.2392 71.2714 44.2392 71.3024 44.2392 71.3334C44.2392 71.3644 44.2392 71.3954 44.2392 71.4264C44.2392 71.4574 44.2392 71.4885 44.2392 71.5195C44.2392 71.5506 44.2392 71.5816 44.2392 71.6127C44.2392 71.6438 44.2392 71.6748 44.2392 71.7059C44.2392 71.737 44.2392 71.7681 44.2392 71.7992C44.2392 71.8304 44.2392 71.8615 44.2392 71.8926C44.2392 71.9238 44.2392 71.9549 44.2392 71.9861C44.2392 72.0172 44.2392 72.0484 44.2392 72.0796C44.2392 72.1108 44.2392 72.142 44.2392 72.1732C44.2392 72.2044 44.2392 72.2356 44.2392 72.2669C44.2392 72.2981 44.2392 72.3293 44.2392 72.3606C44.2392 72.3918 44.2392 72.4231 44.2392 72.4544C44.2392 72.4856 44.2392 72.5169 44.2392 72.5482C44.2392 72.5795 44.2392 72.6108 44.2392 72.6421C44.2392 72.6735 44.2392 72.7048 44.2392 72.7361C44.2392 72.7675 44.2392 72.7988 44.2392 72.8302C44.2392 72.8615 44.2392 72.8929 44.2392 72.9243C44.2392 72.9557 44.2392 72.987 44.2392 73.0184C44.2392 73.0498 44.2392 73.0813 44.2392 73.1127C44.2392 73.1441 44.2392 73.1755 44.2392 73.207C44.2392 73.2384 44.2392 73.2698 44.2392 73.3013C44.2392 73.3328 44.2392 73.3642 44.2392 73.3957C44.2392 73.4272 44.2392 73.4587 44.2392 73.4902C44.2392 73.5217 44.2392 73.5532 44.2392 73.5847C44.2392 73.6162 44.2392 73.6477 44.2392 73.6793C44.2392 73.7108 44.2392 73.7424 44.2392 73.7739C44.2392 73.8055 44.2392 73.837 44.2392 73.8686C44.2392 73.9002 44.2392 73.9318 44.2392 73.9633C44.2392 73.9949 44.2392 74.0265 44.2392 74.0581C44.2392 74.0898 44.2392 74.1214 44.2392 74.153C44.2392 74.1846 44.2392 74.2163 44.2392 74.2479C44.2392 74.2795 44.2392 74.3112 44.2392 74.3429C44.2392 74.3745 44.2392 74.4062 44.2392 74.4379C44.2392 74.4695 44.2392 74.5012 44.2392 74.5329C44.2392 74.5646 44.2392 74.5963 44.2392 74.628C44.2392 74.6597 44.2392 74.6915 44.2392 74.7232C44.2392 74.7549 44.2392 74.7867 44.2392 74.8184C44.2392 74.8501 44.2392 74.8819 44.2392 74.9137C44.2392 74.9454 44.2392 74.9772 44.2392 75.009C44.2392 75.0407 44.2392 75.0725 44.2392 75.1043C44.2392 75.1361 44.2392 75.1679 44.2392 75.1997C44.2392 75.2315 44.2392 75.2633 44.2392 75.2951C44.2392 75.3269 44.2392 75.3588 44.2392 75.3906C44.2392 75.4224 44.2392 75.4543 44.2392 75.4861C44.2392 75.518 44.2392 75.5498 44.2392 75.5817C44.2392 75.6136 44.2392 75.6454 44.2392 75.6773C44.2392 75.7092 44.2392 75.7411 44.2392 75.773C44.2392 75.8049 44.2392 75.8368 44.2392 75.8687C44.2392 75.9006 44.2392 75.9325 44.2392 75.9644C44.2392 75.9963 44.2392 76.0282 44.2392 76.0602C44.2392 76.0921 44.2392 76.124 44.2392 76.156C44.2392 76.1879 44.2392 76.2199 44.2392 76.2518C44.2392 76.2838 44.2392 76.3158 44.2392 76.3477C44.2392 76.3797 44.2392 76.4117 44.2392 76.4437C44.2392 76.4756 44.2392 76.5076 44.2392 76.5396C44.2392 76.5716 44.2392 76.6036 44.2392 76.6356C44.2392 76.6676 44.2392 76.6996 44.2392 76.7317C44.2392 76.7637 44.2392 76.7957 44.2392 76.8277C44.2392 76.8597 44.2392 76.8918 44.2392 76.9238C44.2392 76.9559 44.2392 76.9879 44.2392 77.02C44.2392 77.052 44.2392 77.0841 44.2392 77.1161C44.2392 77.1482 44.2392 77.1802 44.2392 77.2123C44.2392 77.2444 44.2392 77.2765 44.2392 77.3085C44.2392 77.3406 44.2392 77.3727 44.2392 77.4048C44.2392 77.4369 44.2392 77.469 44.2392 77.5011C44.2392 77.5332 44.2392 77.5653 44.2392 77.5974C44.2392 77.6295 44.2392 77.6616 44.2392 77.6938C44.2392 77.7259 44.2392 77.758 44.2392 77.7901C44.2392 77.8223 44.2392 77.8544 44.2392 77.8865C44.2392 77.9187 44.2392 77.9508 44.2392 77.983C44.2392 78.0151 44.2392 78.0473 44.2392 78.0794C44.2392 78.1116 44.2392 78.1437 44.2392 78.1759C44.2392 78.208 44.2392 78.2402 44.2392 78.2724C44.2392 78.3046 44.2392 78.3367 44.2392 78.3689C44.2392 78.4011 44.2392 78.4333 44.2392 78.4655C44.2392 78.4976 44.2392 78.5298 44.2392 78.562C44.2392 78.5942 44.2392 78.6264 44.2392 78.6586C44.2392 78.6908 44.2392 78.723 44.2392 78.7552C44.2392 78.7874 44.2392 78.8196 44.2392 78.8519C44.2392 78.8841 44.2392 78.9163 44.2392 78.9485C44.2392 78.9807 44.2392 79.0129 44.2392 79.0452C44.2392 79.0774 44.2392 79.1096 44.2392 79.1419C44.2392 79.1741 44.2392 79.2063 44.2392 79.2386C44.2392 79.2708 44.2392 79.303 44.2392 79.3353C44.2392 79.3675 44.2392 79.3998 44.2392 79.432C44.2392 79.4643 44.2392 79.4965 44.2392 79.5288C44.2392 79.561 44.2392 79.5933 44.2392 79.6255C44.2392 79.6578 44.2392 79.6901 44.2392 79.7223C44.2392 79.7546 44.2392 79.7868 44.2392 79.8191C44.2392 79.8514 44.2392 79.8837 44.2392 79.9159C44.2392 79.9482 44.2392 79.9805 44.2392 80.0127C44.2392 80.045 44.2392 80.0773 44.2392 80.1096C44.2392 80.1418 44.2392 80.1741 44.2392 80.2064C44.2392 80.2387 44.2392 80.271 44.2392 80.3033C44.2392 80.3355 44.2392 80.3678 44.2392 80.4001C44.2392 80.4324 44.2392 80.4647 44.2392 80.497C44.2392 80.5293 44.2392 80.5616 44.2392 80.5939C44.2392 80.6262 44.2392 80.6584 44.2392 80.6907C44.2392 80.723 44.2392 80.7553 44.2392 80.7876C44.2392 80.8199 44.2392 80.8522 44.2392 80.8845C44.2392 80.9168 44.2392 80.9491 44.2392 80.9814C44.2392 81.0137 44.2392 81.046 44.2392 81.0783C44.2392 81.1106 44.2392 81.1429 44.2392 81.1752C44.2392 81.2075 44.2392 81.2398 44.2392 81.2721C44.2392 81.3045 44.2392 81.3368 44.2392 81.3691C44.2392 81.4014 44.2392 81.4337 44.2392 81.466C44.2392 81.4983 44.2392 81.5306 44.2392 81.5629C44.2392 81.5952 44.2392 81.6275 44.2392 81.6598C44.2392 81.6921 44.2392 81.7244 44.2392 81.7567C44.2392 81.789 44.2392 81.8213 44.2392 81.8536C44.2392 81.8859 44.2392 81.9182 44.2392 81.9506C44.2392 81.9829 44.2392 82.0152 44.2392 82.0475C44.2392 82.0798 44.2392 82.1121 44.2392 82.1444C44.2392 82.1767 44.2392 82.209 44.2392 82.2413C44.2392 82.2736 44.2392 82.3059 44.2392 82.3382C44.2392 82.3705 44.2392 82.4028 44.2392 82.4351C44.2392 82.4674 44.2392 82.4997 44.2392 82.532C44.2392 82.5643 44.2392 82.5965 44.2392 82.6288C44.2392 82.6611 44.2392 82.6934 44.2392 82.7257C44.2392 82.758 44.2392 82.7903 44.2392 82.8226C44.2392 82.8549 44.2392 82.8872 44.2392 82.9194C44.2392 82.9517 44.2392 82.984 44.2392 83.0163C44.2392 83.0486 44.2392 83.0809 44.2392 83.1131C44.2392 83.1454 44.2392 83.1777 44.2392 83.21C44.2392 83.2422 44.2392 83.2745 44.2392 83.3068C44.2392 83.3391 44.2392 83.3713 44.2392 83.4036C44.2392 83.4359 44.2392 83.4681 44.2392 83.5004C44.2392 83.5326 44.2392 83.5649 44.2392 83.5972C44.2392 83.6294 44.2392 83.6617 44.2392 83.6939C44.2392 83.7262 44.2392 83.7584 44.2392 83.7907C44.2392 83.8229 44.2392 83.8552 44.2392 83.8874C44.2392 83.9197 44.2392 83.9519 44.2392 83.9841C44.2392 84.0164 44.2392 84.0486 44.2392 84.0808C44.2392 84.1131 44.2392 84.1453 44.2392 84.1775C44.2392 84.2098 44.2392 84.242 44.2392 84.2742C44.2392 84.3064 44.2392 84.3386 44.2392 84.3709C44.2392 84.4031 44.2392 84.4353 44.2392 84.4675C44.2392 84.4997 44.2392 84.5319 44.2392 84.5641C44.2392 84.5963 44.2392 84.6285 44.2392 84.6607C44.2392 84.6929 44.2392 84.7251 44.2392 84.7573C44.2392 84.7894 44.2392 84.8216 44.2392 84.8538C44.2392 84.886 44.2392 84.9182 44.2392 84.9503C44.2392 84.9825 44.2392 85.0147 44.2392 85.0468C44.2392 85.079 44.2392 85.1112 44.2392 85.1433C44.2392 85.1755 44.2392 85.2076 44.2392 85.2398C44.2392 85.2719 44.2392 85.3041 44.2392 85.3362C44.2392 85.3683 44.2392 85.4005 44.2392 85.4326C44.2392 85.4647 44.2392 85.4968 44.2392 85.529C44.2392 85.5611 44.2392 85.5932 44.2392 85.6253C44.2392 85.6574 44.2392 85.6895 44.2392 85.7216C44.2392 85.7537 44.2392 85.7858 44.2392 85.8179C44.2392 85.85 44.2392 85.8821 44.2392 85.9142C44.2392 85.9463 44.2392 85.9783 44.2392 86.0104C44.2392 86.0425 44.2392 86.0745 44.2392 86.1066C44.2392 86.1387 44.2392 86.1707 44.2392 86.2028C44.2392 86.2348 44.2392 86.2669 44.2392 86.2989C44.2392 86.331 44.2392 86.363 44.2392 86.395C44.2392 86.427 44.2392 86.4591 44.2392 86.4911C44.2392 86.5231 44.2392 86.5551 44.2392 86.5871C44.2392 86.6191 44.2392 86.6511 44.2392 86.6831C44.2392 86.7151 44.2392 86.7471 44.2392 86.7791C44.2392 86.8111 44.2392 86.843 44.2392 86.875C44.2392 86.907 44.2392 86.9389 44.2392 86.9709C44.2392 87.0029 44.2392 87.0348 44.2392 87.0668C44.2392 87.0987 44.2392 87.1306 44.2392 87.1626C44.2392 87.1945 44.2392 87.2264 44.2392 87.2583C44.2392 87.2903 44.2392 87.3222 44.2392 87.3541C44.2392 87.386 44.2392 87.4179 44.2392 87.4498C44.2392 87.4817 44.2392 87.5136 44.2392 87.5454C44.2392 87.5773 44.2392 87.6092 44.2392 87.641C44.2392 87.6729 44.2392 87.7048 44.2392 87.7366C44.2392 87.7685 44.2392 87.8003 44.2392 87.8321C44.2392 87.864 44.2392 87.8958 44.2392 87.9276C44.2392 87.9595 44.2392 87.9913 44.2392 88.0231C44.2392 88.0549 44.2392 88.0867 44.2392 88.1185C44.2392 88.1503 44.2392 88.182 44.2392 88.2138C44.2392 88.2456 44.2392 88.2774 44.2392 88.3091C44.2392 88.3409 44.2392 88.3726 44.2392 88.4044C44.2392 88.4361 44.2392 88.4679 44.2392 88.4996C44.2392 88.5313 44.2392 88.563 44.2392 88.5947C44.2392 88.6265 44.2392 88.6582 44.2392 88.6898C44.2392 88.7215 44.2392 88.7532 44.2392 88.7849C44.2392 88.8166 44.2392 88.8483 44.2392 88.8799C44.2392 88.9116 44.2392 88.9432 44.2392 88.9749C44.2392 89.0065 44.2392 89.0382 44.2392 89.0698C44.2392 89.1014 44.2392 89.133 44.2392 89.1646C44.2392 89.1962 44.2392 89.2278 44.2392 89.2594C44.2392 89.291 44.2392 89.3226 44.2392 89.3542C44.2392 89.3858 44.2392 89.4173 44.2392 89.4489C44.2392 89.4804 44.2392 89.512 44.2392 89.5435C44.2392 89.5751 44.2392 89.6066 44.2392 89.6381C44.2392 89.6696 44.2392 89.7011 44.2392 89.7326C44.2392 89.7641 44.2392 89.7956 44.2392 89.8271C44.2392 89.8586 44.2392 89.89 44.2392 89.9215C44.2392 89.953 44.2392 89.9844 44.2392 90.0158C44.2392 90.0473 44.2392 90.0787 44.2392 90.1101C44.2392 90.1416 44.2392 90.173 44.2392 90.2044C44.2392 90.2358 44.2392 90.2672 44.2392 90.2985C44.2392 90.3299 44.2392 90.3613 44.2392 90.3926C44.2392 90.424 44.2392 90.4554 44.2392 90.4867C44.2392 90.518 44.2392 90.5494 44.2392 90.5807C44.2392 90.612 44.2392 90.6433 44.2392 90.6746C44.2392 90.7059 44.2392 90.7372 44.2392 90.7685C44.2392 90.7997 44.2392 90.831 44.2392 90.8622C44.2392 90.8935 44.2392 90.9247 44.2392 90.956C44.2392 90.9872 44.2392 91.0184 44.2392 91.0496C44.2392 91.0808 44.2392 91.112 44.2392 91.1432C44.2392 91.1744 44.2392 91.2056 44.2392 91.2368C44.2392 91.2679 44.2392 91.2991 44.2392 91.3302C44.2392 91.3614 44.2392 91.3925 44.2392 91.4236C44.2392 91.4547 44.2392 91.4858 44.2392 91.5169C44.2392 91.548 44.2392 91.5791 44.2392 91.6102C44.2392 91.6412 44.2392 91.6723 44.2392 91.7033C44.2392 91.7344 44.2392 91.7654 44.2392 91.7965C44.2392 91.8275 44.2392 91.8585 44.2392 91.8895C44.2392 91.9205 44.2392 91.9515 44.2392 91.9825C44.2392 92.0134 44.2392 92.0444 44.2392 92.0753C44.2392 92.1063 44.2392 92.1372 44.2392 92.1682H46.2392ZM45.2785 51.0171C59.0717 50.4749 69.7973 53.9988 77.5268 59.9722C85.2586 65.9474 90.0642 74.4286 91.9226 83.93L93.8854 83.5461C91.9444 73.6218 86.9062 64.693 78.7498 58.3897C70.5909 52.0845 59.3838 48.4611 45.1999 49.0186L45.2785 51.0171ZM91.904 83.7381V120.024H93.904V83.7381H91.904ZM91.904 120.024V184.899H93.904V120.024H91.904ZM58.9057 120.893C68.0653 126.109 82.6853 129.243 93.5181 120.813L92.2898 119.235C82.3988 126.932 68.7591 124.202 59.8953 119.155L58.9057 120.893ZM107.187 184.899V121.555H105.187V184.899H107.187ZM120.454 184.899V92.2375H118.454V184.899H120.454ZM151.854 184.899V164.254H149.854V184.899H151.854ZM151.854 164.254C151.854 162.378 151.11 159.965 149.652 157.675C148.183 155.369 145.949 153.123 142.891 151.625L142.011 153.421C144.702 154.739 146.67 156.716 147.965 158.75C149.271 160.8 149.854 162.845 149.854 164.254H151.854Z" stroke-width="1" fill="white"/>
</svg>
