<svg width="179" height="260" viewBox="0 0 179 260" fill="none" xmlns="http://www.w3.org/2000/svg">
<path id="motionPath" d="M23.5713 45.1758C22.1064 45.1758 20.9346 44.834 20.0557 44.1504C19.1768 43.4668 18.4932 42.5553 18.0049 41.416C17.5492 40.3092 17.2399 39.0397 17.0771 37.6074C16.9144 36.1751 16.8005 34.7103 16.7354 33.2129C16.7028 31.7155 16.6702 30.2669 16.6377 28.8672C16.6377 27.4349 16.54 26.1816 16.3447 25.1074C16.1494 24.0332 15.8239 23.1868 15.3682 22.5684C14.945 21.9173 14.2777 21.6406 13.3662 21.7383C13.1383 22.1615 12.7965 22.7962 12.3408 23.6426C11.9176 24.4889 11.4131 25.4492 10.8271 26.5234C10.2412 27.5977 9.62272 28.737 8.97168 29.9414C8.35319 31.1458 7.75098 32.2852 7.16504 33.3594C6.5791 34.4336 6.04199 35.4102 5.55371 36.2891C5.09798 37.1354 4.75618 37.7702 4.52832 38.1934C4.2679 38.6491 4.08887 39.0072 3.99121 39.2676C3.89355 39.4954 3.77962 39.6908 3.64941 39.8535C3.55176 39.9837 3.40527 40.0651 3.20996 40.0977C3.0472 40.1302 2.78678 40.1465 2.42871 40.1465C1.77767 40.1465 1.32194 40.0488 1.06152 39.8535C0.801107 39.6257 0.670898 39.1862 0.670898 38.5352C1.22428 36.4518 1.95671 34.3848 2.86816 32.334C3.81217 30.2507 4.85384 28.1999 5.99316 26.1816C7.13249 24.1309 8.33691 22.1126 9.60645 20.127C10.876 18.1087 12.1292 16.123 13.3662 14.1699C14.1475 12.998 15.0589 11.6471 16.1006 10.1172C17.1423 8.55469 18.2979 7.08984 19.5674 5.72266C20.8695 4.32292 22.2692 3.15104 23.7666 2.20703C25.2965 1.26302 26.9242 0.791016 28.6494 0.791016C29.2679 0.758464 29.8376 0.85612 30.3584 1.08398C30.9118 1.2793 31.3675 1.58854 31.7256 2.01172C32.0837 2.4349 32.3441 2.92318 32.5068 3.47656C32.6696 4.02995 32.6859 4.63216 32.5557 5.2832C32.5557 6.87826 32.2139 8.42448 31.5303 9.92188C30.8792 11.3867 30.0492 12.7539 29.04 14.0234C28.0309 15.293 26.9404 16.4486 25.7686 17.4902C24.6292 18.5319 23.555 19.4271 22.5459 20.1758C21.5368 20.9245 20.6904 21.5267 20.0068 21.9824C19.3558 22.4056 19.0303 22.6335 19.0303 22.666C19.0303 23.0566 19.0303 23.8053 19.0303 24.9121C19.0628 25.9863 19.1117 27.2233 19.1768 28.623C19.2744 30.0228 19.4046 31.5039 19.5674 33.0664C19.7301 34.5964 19.9417 36.0449 20.2021 37.4121C20.4951 38.7467 20.8532 39.8861 21.2764 40.8301C21.7321 41.7741 22.2692 42.36 22.8877 42.5879C22.9854 42.6204 23.2132 42.6693 23.5713 42.7344C23.9294 42.7995 24.32 42.8646 24.7432 42.9297C25.1989 43.0273 25.6058 43.0924 25.9639 43.125C26.3545 43.1901 26.5986 43.2389 26.6963 43.2715C26.7614 43.304 26.8753 43.4017 27.0381 43.5645C27.2008 43.7272 27.2985 43.8411 27.3311 43.9062C26.5824 44.4922 25.9639 44.8503 25.4756 44.9805C24.9873 45.1107 24.3525 45.1758 23.5713 45.1758ZM15.2217 17.4414C15.2217 17.9297 15.3031 18.304 15.4658 18.5645C15.6286 18.7923 15.8564 18.9551 16.1494 19.0527C16.4424 19.1504 16.7679 19.2155 17.126 19.248C17.5166 19.248 17.9235 19.248 18.3467 19.248C19.6488 19.248 20.9508 18.7923 22.2529 17.8809C23.555 16.9368 24.7269 15.7975 25.7686 14.4629C26.8428 13.0957 27.7054 11.6471 28.3564 10.1172C29.0075 8.58724 29.333 7.23633 29.333 6.06445C29.333 5.73893 29.333 5.41341 29.333 5.08789C29.333 4.76237 29.3005 4.4694 29.2354 4.20898C29.1702 3.91602 29.04 3.68815 28.8447 3.52539C28.6494 3.36263 28.3402 3.28125 27.917 3.28125C27.1683 3.28125 26.3382 3.54167 25.4268 4.0625C24.5153 4.55078 23.5876 5.20182 22.6436 6.01562C21.6995 6.82943 20.7718 7.75716 19.8604 8.79883C18.9814 9.80794 18.2002 10.8496 17.5166 11.9238C16.833 12.9655 16.2796 13.9746 15.8564 14.9512C15.4333 15.9277 15.2217 16.7578 15.2217 17.4414ZM29.4795 37.4609C28.9261 36.224 28.682 35.0195 28.7471 33.8477C28.8122 32.6432 29.0726 31.5202 29.5283 30.4785C30.0166 29.4043 30.6351 28.444 31.3838 27.5977C32.165 26.7188 32.9951 25.9701 33.874 25.3516C34.7529 24.7005 35.6318 24.2122 36.5107 23.8867C37.4222 23.5612 38.2197 23.431 38.9033 23.4961C39.5869 23.5286 40.124 23.7728 40.5146 24.2285C40.9053 24.6842 41.0355 25.3841 40.9053 26.3281C40.9053 27.5977 40.4984 28.7044 39.6846 29.6484C38.9033 30.5924 38.0244 31.4388 37.0479 32.1875C36.1038 32.9362 35.2249 33.6198 34.4111 34.2383C33.6299 34.8242 33.2393 35.3776 33.2393 35.8984C33.2393 36.1914 33.402 36.4193 33.7275 36.582C34.0856 36.7448 34.4925 36.875 34.9482 36.9727C35.404 37.0378 35.8597 37.0866 36.3154 37.1191C36.7712 37.1517 37.0967 37.1842 37.292 37.2168C40.3519 36.5658 42.6468 36.1751 44.1768 36.0449C45.7067 35.8822 46.667 35.8984 47.0576 36.0938C47.4482 36.2565 47.3669 36.5332 46.8135 36.9238C46.2926 37.2819 45.4788 37.6725 44.3721 38.0957C43.2653 38.4863 41.9795 38.8444 40.5146 39.1699C39.0498 39.4954 37.6012 39.6908 36.1689 39.7559C34.7367 39.7884 33.402 39.6419 32.165 39.3164C30.9606 38.9909 30.0654 38.3724 29.4795 37.4609ZM38.0244 26.3281C37.3734 26.3281 36.7549 26.5072 36.1689 26.8652C35.583 27.2233 35.0459 27.679 34.5576 28.2324C34.1019 28.7533 33.7113 29.3392 33.3857 29.9902C33.0602 30.6087 32.8161 31.1947 32.6533 31.748C32.7184 31.7806 32.7673 31.7969 32.7998 31.7969H32.9463C33.402 31.7969 33.9229 31.6016 34.5088 31.2109C35.0947 30.8203 35.6481 30.3483 36.1689 29.7949C36.6898 29.209 37.1292 28.6068 37.4873 27.9883C37.8454 27.3698 38.0244 26.8164 38.0244 26.3281ZM46.0322 36.9238C46.0322 36.8262 46.0322 36.696 46.0322 36.5332C46.0648 36.3379 46.0811 36.224 46.0811 36.1914C46.1787 35.2148 46.2926 33.9779 46.4229 32.4805C46.5531 30.9505 46.6833 29.4857 46.8135 28.0859C46.9762 26.6862 47.1064 25.4818 47.2041 24.4727C47.3018 23.431 47.3506 22.9102 47.3506 22.9102L48.6689 21.6406C49.2223 21.8034 49.6292 22.0312 49.8896 22.3242C50.1501 22.5846 50.3291 22.8776 50.4268 23.2031C50.5244 23.5286 50.5732 23.8867 50.5732 24.2773C50.5732 24.668 50.5732 25.0586 50.5732 25.4492C50.5732 26.8164 50.443 28.151 50.1826 29.4531C49.9548 30.7227 49.8408 32.0247 49.8408 33.3594C49.8408 33.4245 49.8408 33.5872 49.8408 33.8477C49.8734 34.0755 49.8896 34.222 49.8896 34.2871L61.9014 21.6406C61.9339 21.6081 62.0153 21.5918 62.1455 21.5918C62.3083 21.5918 62.4222 21.5918 62.4873 21.5918C62.8128 21.5918 63.1221 21.6569 63.415 21.7871C63.708 21.9173 63.8545 22.194 63.8545 22.6172C63.8545 22.6497 63.8382 22.6823 63.8057 22.7148C63.8057 22.7148 63.8057 22.7311 63.8057 22.7637V22.9102C63.6429 23.1706 63.3499 23.5938 62.9268 24.1797C62.5361 24.7656 62.0967 25.4004 61.6084 26.084C61.1527 26.7676 60.7132 27.4186 60.29 28.0371C59.8669 28.623 59.5739 29.0299 59.4111 29.2578C58.8577 29.9414 58.2067 30.7552 57.458 31.6992C56.7419 32.6432 55.9606 33.6035 55.1143 34.5801C54.3005 35.5241 53.4378 36.4355 52.5264 37.3145C51.6475 38.1608 50.7686 38.8444 49.8896 39.3652C49.7269 39.4629 49.4827 39.5931 49.1572 39.7559C48.8643 39.9186 48.7015 40 48.6689 40C48.3109 40 47.9691 39.9023 47.6436 39.707C47.3506 39.4792 47.0739 39.2025 46.8135 38.877C46.5856 38.5514 46.3903 38.2259 46.2275 37.9004C46.0973 37.5423 46.0322 37.2168 46.0322 36.9238ZM65.2705 36.8262C65.2705 36.3704 65.3193 35.9798 65.417 35.6543C65.5146 35.2962 65.6937 34.8405 65.9541 34.2871C66.182 33.9616 66.5889 33.3431 67.1748 32.4316C67.7933 31.5202 68.4281 30.5599 69.0791 29.5508C69.7627 28.5417 70.3975 27.5977 70.9834 26.7188C71.6019 25.8073 72.0251 25.1725 72.2529 24.8145C72.5459 24.3913 72.7738 24.1634 72.9365 24.1309C73.0993 24.0983 73.4085 24.082 73.8643 24.082C74.1572 24.082 74.4665 24.0983 74.792 24.1309C75.1501 24.1634 75.3779 24.3913 75.4756 24.8145C75.0199 25.9212 74.4014 26.9792 73.6201 27.9883C72.8714 28.9648 72.1227 29.9414 71.374 30.918C70.6579 31.8945 70.0231 32.9036 69.4697 33.9453C68.9163 34.9544 68.6396 36.0449 68.6396 37.2168C68.7699 37.2168 68.9652 37.2331 69.2256 37.2656C69.5186 37.2982 69.8278 37.3307 70.1533 37.3633C70.4788 37.3958 70.7718 37.4284 71.0322 37.4609C71.3252 37.4935 71.5368 37.4935 71.667 37.4609C71.8623 37.4284 72.1878 37.3633 72.6436 37.2656C73.1318 37.1354 73.6364 37.0052 74.1572 36.875C74.7106 36.7448 75.2314 36.6146 75.7197 36.4844C76.208 36.3542 76.5498 36.2565 76.7451 36.1914C76.7451 36.2565 76.7451 36.3704 76.7451 36.5332C76.7777 36.6634 76.7939 36.7611 76.7939 36.8262C76.7939 37.4772 76.4847 38.0143 75.8662 38.4375C75.2803 38.8607 74.5804 39.2025 73.7666 39.4629C72.9854 39.6908 72.1715 39.8535 71.3252 39.9512C70.5114 40.0163 69.8766 40.0488 69.4209 40.0488C68.9326 40.0488 68.4281 40 67.9072 39.9023C67.4189 39.7721 66.9795 39.5768 66.5889 39.3164C66.1982 39.056 65.8727 38.7305 65.6123 38.3398C65.3844 37.9167 65.2705 37.4121 65.2705 36.8262ZM79.4795 8.21289C79.9027 8.21289 80.2933 8.22917 80.6514 8.26172C81.0094 8.29427 81.3187 8.37565 81.5791 8.50586C81.8395 8.63607 82.0511 8.83138 82.2139 9.0918C82.3766 9.35221 82.458 9.71029 82.458 10.166C82.458 10.3613 82.458 10.5729 82.458 10.8008C82.458 11.0286 82.4255 11.2565 82.3604 11.4844C82.3278 11.6797 82.2464 11.8587 82.1162 12.0215C81.986 12.1517 81.7744 12.2168 81.4814 12.2168C81.0257 12.2168 80.6514 12.054 80.3584 11.7285C80.098 11.403 79.9027 11.0286 79.7725 10.6055C79.6423 10.1497 79.5609 9.69401 79.5283 9.23828C79.4958 8.78255 79.4795 8.44076 79.4795 8.21289ZM76.8916 35.2637C76.8916 34.3197 77.0706 33.3757 77.4287 32.4316C77.7868 31.4876 78.21 30.5599 78.6982 29.6484C79.1865 28.7044 79.6748 27.7767 80.1631 26.8652C80.6839 25.9538 81.0745 25.0586 81.335 24.1797C80.7165 24.5378 80.1794 24.7493 79.7236 24.8145C79.3005 24.847 78.7796 24.8633 78.1611 24.8633C78.096 24.8633 77.8844 24.8633 77.5264 24.8633C77.2008 24.8307 76.9893 24.8145 76.8916 24.8145C77.0869 24.0983 77.445 23.4635 77.9658 22.9102C78.4867 22.3242 79.0726 21.8359 79.7236 21.4453C80.4072 21.0221 81.1071 20.6803 81.8232 20.4199C82.5719 20.127 83.2393 19.8991 83.8252 19.7363C84.8018 18.2064 85.5993 16.6764 86.2178 15.1465C86.8363 13.584 87.4548 12.0703 88.0732 10.6055C88.7243 9.10807 89.473 7.69206 90.3193 6.35742C91.1982 4.99023 92.3701 3.73698 93.835 2.59766L94.0791 4.45312L87.9756 18.7598C88.3337 18.6621 88.7731 18.5645 89.2939 18.4668C89.8148 18.3691 90.3356 18.2715 90.8564 18.1738C91.4098 18.0762 91.9307 17.9948 92.4189 17.9297C92.9398 17.832 93.3792 17.7344 93.7373 17.6367C93.7699 17.6367 93.8675 17.6367 94.0303 17.6367C94.193 17.6042 94.3232 17.5879 94.4209 17.5879C94.8766 17.5879 95.251 17.6693 95.5439 17.832C95.8369 17.9948 96.0811 18.3529 96.2764 18.9062C94.0628 19.5573 92.0609 20.2409 90.2705 20.957C88.4801 21.6732 86.9176 22.6172 85.583 23.7891C84.2809 24.9284 83.2067 26.3932 82.3604 28.1836C81.5465 29.9414 80.9769 32.2038 80.6514 34.9707C80.6514 35.5566 80.6839 36.0938 80.749 36.582C80.8141 37.0703 81.221 37.3633 81.9697 37.4609C82.7184 37.4609 83.4183 37.3145 84.0693 37.0215C84.7204 36.7285 85.3551 36.4193 85.9736 36.0938C86.5921 35.7357 87.2106 35.4102 87.8291 35.1172C88.4801 34.8242 89.18 34.6777 89.9287 34.6777C89.9287 35.459 89.5869 36.1751 88.9033 36.8262C88.2197 37.4772 87.3896 38.0469 86.4131 38.5352C85.4691 39.0234 84.4925 39.3978 83.4834 39.6582C82.4743 39.9186 81.6442 40.0488 80.9932 40.0488C80.3421 40.0488 79.7562 39.9186 79.2354 39.6582C78.7145 39.3978 78.2751 39.056 77.917 38.6328C77.5915 38.1771 77.3311 37.6562 77.1357 37.0703C76.973 36.4844 76.8916 35.8822 76.8916 35.2637ZM90.3682 36.8262C90.6611 34.9707 91.2145 33.2617 92.0283 31.6992C92.8421 30.1367 93.7699 28.7858 94.8115 27.6465C95.8857 26.4746 97.0413 25.5143 98.2783 24.7656C99.5153 24.0169 100.72 23.5449 101.892 23.3496C103.063 23.1217 104.138 23.1706 105.114 23.4961C106.123 23.8216 106.937 24.4727 107.556 25.4492C107.556 26.1979 107.377 26.9141 107.019 27.5977C106.693 28.2812 106.319 28.9648 105.896 29.6484C105.505 30.332 105.131 31.0319 104.772 31.748C104.447 32.4642 104.284 33.2292 104.284 34.043C104.284 34.8893 104.463 35.5729 104.821 36.0938C105.212 36.582 105.879 36.8262 106.823 36.8262C107.604 36.8262 108.353 36.7122 109.069 36.4844C109.818 36.2565 110.567 36.1426 111.315 36.1426C111.446 36.1426 111.657 36.1589 111.95 36.1914C112.276 36.1914 112.487 36.1914 112.585 36.1914C112.194 36.7448 111.69 37.2168 111.071 37.6074C110.453 37.998 109.802 38.3398 109.118 38.6328C108.435 38.8932 107.718 39.0885 106.97 39.2188C106.254 39.349 105.586 39.4141 104.968 39.4141C104.382 39.4141 103.861 39.2839 103.405 39.0234C102.95 38.763 102.559 38.4212 102.233 37.998C101.908 37.5749 101.647 37.1029 101.452 36.582C101.289 36.0286 101.208 35.4915 101.208 34.9707C100.72 35.5241 100.183 36.11 99.5967 36.7285C99.0433 37.3145 98.4411 37.8516 97.79 38.3398C97.1715 38.8281 96.488 39.235 95.7393 39.5605C95.0231 39.8861 94.2744 40.0488 93.4932 40.0488C92.6468 40.0488 91.9144 39.7396 91.2959 39.1211C90.6774 38.4701 90.3682 37.7051 90.3682 36.8262ZM93.5908 35.3125C93.5908 35.5729 93.5908 35.8659 93.5908 36.1914C93.6234 36.5169 93.835 36.7285 94.2256 36.8262C95.0394 36.6309 95.9671 36.2077 97.0088 35.5566C98.0505 34.873 99.027 34.0918 99.9385 33.2129C100.85 32.3014 101.615 31.3411 102.233 30.332C102.852 29.2904 103.161 28.2975 103.161 27.3535C103.161 27.2884 103.145 27.1908 103.112 27.0605C103.112 26.8978 103.112 26.7839 103.112 26.7188C102.006 26.7188 100.882 26.9466 99.7432 27.4023C98.6038 27.8581 97.5785 28.4928 96.667 29.3066C95.7555 30.0879 95.0068 30.9993 94.4209 32.041C93.8675 33.0827 93.5908 34.1732 93.5908 35.3125ZM110.876 35.5566C110.876 35.3288 110.892 34.987 110.925 34.5312C110.99 34.043 111.055 33.571 111.12 33.1152C111.185 32.6595 111.25 32.2526 111.315 31.8945C111.381 31.5039 111.446 31.2598 111.511 31.1621L120.397 13.3887C120.528 13.1283 120.772 12.7702 121.13 12.3145C121.521 11.8262 121.927 11.3379 122.351 10.8496C122.806 10.3288 123.246 9.85677 123.669 9.43359C124.125 8.97786 124.499 8.61979 124.792 8.35938C125.02 8.42448 125.183 8.53841 125.28 8.70117C125.378 8.86393 125.443 9.05924 125.476 9.28711C125.508 9.48242 125.508 9.67773 125.476 9.87305C125.476 10.0684 125.476 10.2311 125.476 10.3613C125.476 10.5241 125.476 10.752 125.476 11.0449C125.476 11.3379 125.459 11.4844 125.427 11.4844C125.101 12.3633 124.597 13.4049 123.913 14.6094C123.229 15.8138 122.465 17.0996 121.618 18.4668C120.772 19.834 119.893 21.2663 118.981 22.7637C118.103 24.2285 117.289 25.6934 116.54 27.1582C115.824 28.5905 115.222 29.974 114.733 31.3086C114.278 32.6432 114.05 33.8639 114.05 34.9707C114.05 35.5566 114.213 36.0286 114.538 36.3867C114.896 36.7122 115.271 37.0052 115.661 37.2656C116.052 37.526 116.41 37.7865 116.735 38.0469C117.093 38.3073 117.272 38.6654 117.272 39.1211C117.272 39.4141 117.142 39.6419 116.882 39.8047C116.621 39.9349 116.312 40 115.954 40C114.587 40 113.399 39.6257 112.39 38.877C111.381 38.0957 110.876 36.9889 110.876 35.5566ZM123.278 36.8262C123.278 36.3704 123.327 35.9798 123.425 35.6543C123.522 35.2962 123.701 34.8405 123.962 34.2871C124.19 33.9616 124.597 33.3431 125.183 32.4316C125.801 31.5202 126.436 30.5599 127.087 29.5508C127.771 28.5417 128.405 27.5977 128.991 26.7188C129.61 25.8073 130.033 25.1725 130.261 24.8145C130.554 24.3913 130.782 24.1634 130.944 24.1309C131.107 24.0983 131.416 24.082 131.872 24.082C132.165 24.082 132.474 24.0983 132.8 24.1309C133.158 24.1634 133.386 24.3913 133.483 24.8145C133.028 25.9212 132.409 26.9792 131.628 27.9883C130.879 28.9648 130.131 29.9414 129.382 30.918C128.666 31.8945 128.031 32.9036 127.478 33.9453C126.924 34.9544 126.647 36.0449 126.647 37.2168C126.778 37.2168 126.973 37.2331 127.233 37.2656C127.526 37.2982 127.836 37.3307 128.161 37.3633C128.487 37.3958 128.78 37.4284 129.04 37.4609C129.333 37.4935 129.545 37.4935 129.675 37.4609C129.87 37.4284 130.196 37.3633 130.651 37.2656C131.14 37.1354 131.644 37.0052 132.165 36.875C132.718 36.7448 133.239 36.6146 133.728 36.4844C134.216 36.3542 134.558 36.2565 134.753 36.1914C134.753 36.2565 134.753 36.3704 134.753 36.5332C134.785 36.6634 134.802 36.7611 134.802 36.8262C134.802 37.4772 134.493 38.0143 133.874 38.4375C133.288 38.8607 132.588 39.2025 131.774 39.4629C130.993 39.6908 130.179 39.8535 129.333 39.9512C128.519 40.0163 127.884 40.0488 127.429 40.0488C126.94 40.0488 126.436 40 125.915 39.9023C125.427 39.7721 124.987 39.5768 124.597 39.3164C124.206 39.056 123.881 38.7305 123.62 38.3398C123.392 37.9167 123.278 37.4121 123.278 36.8262ZM137.487 8.21289C137.91 8.21289 138.301 8.22917 138.659 8.26172C139.017 8.29427 139.326 8.37565 139.587 8.50586C139.847 8.63607 140.059 8.83138 140.222 9.0918C140.384 9.35221 140.466 9.71029 140.466 10.166C140.466 10.3613 140.466 10.5729 140.466 10.8008C140.466 11.0286 140.433 11.2565 140.368 11.4844C140.336 11.6797 140.254 11.8587 140.124 12.0215C139.994 12.1517 139.782 12.2168 139.489 12.2168C139.034 12.2168 138.659 12.054 138.366 11.7285C138.106 11.403 137.91 11.0286 137.78 10.6055C137.65 10.1497 137.569 9.69401 137.536 9.23828C137.504 8.78255 137.487 8.44076 137.487 8.21289ZM135.827 37.8027C135.827 37.7376 135.827 37.6725 135.827 37.6074C135.827 37.5423 135.843 37.4935 135.876 37.4609C136.82 36.4193 137.813 35.4264 138.854 34.4824C139.929 33.5059 141.052 32.5944 142.224 31.748L152.966 19.1016H152.282C151.599 19.1016 150.931 19.1829 150.28 19.3457C149.629 19.4759 148.978 19.6224 148.327 19.7852C147.676 19.9479 147.025 20.1107 146.374 20.2734C145.723 20.4036 145.056 20.4688 144.372 20.4688C143.428 20.3385 142.793 20.1432 142.468 19.8828C142.175 19.6224 142.093 19.3457 142.224 19.0527C142.354 18.7272 142.647 18.4017 143.103 18.0762C143.558 17.7507 144.095 17.474 144.714 17.2461C145.332 16.9857 145.983 16.8066 146.667 16.709C147.351 16.5788 147.969 16.5462 148.522 16.6113C149.792 16.2858 150.882 16.0905 151.794 16.0254C152.738 15.9277 153.796 15.8789 154.968 15.8789C155.912 15.8789 156.66 16.0579 157.214 16.416C157.767 16.7415 158.044 17.4414 158.044 18.5156C158.044 18.7435 157.751 19.2318 157.165 19.9805C156.612 20.6966 155.896 21.5755 155.017 22.6172C154.138 23.6263 153.161 24.7168 152.087 25.8887C151.045 27.0605 150.02 28.1999 149.011 29.3066C148.034 30.4134 147.155 31.4225 146.374 32.334C145.593 33.2129 145.039 33.8639 144.714 34.2871C144.746 34.3522 144.844 34.4661 145.007 34.6289C145.17 34.7917 145.284 34.9056 145.349 34.9707C146.228 35.2637 147.204 35.4753 148.278 35.6055C149.385 35.7031 150.492 35.7682 151.599 35.8008C152.705 35.8008 153.763 35.7845 154.772 35.752C155.782 35.6868 156.644 35.6217 157.36 35.5566C157.621 35.6868 157.8 35.8333 157.897 35.9961C157.995 36.1263 158.044 36.2891 158.044 36.4844C158.044 37.168 157.735 37.6725 157.116 37.998C156.498 38.3236 155.798 38.5514 155.017 38.6816C154.235 38.7793 153.47 38.8281 152.722 38.8281C151.973 38.7956 151.468 38.7793 151.208 38.7793C150.427 38.7793 149.678 38.7142 148.962 38.584C148.246 38.4538 147.53 38.3073 146.813 38.1445C146.097 37.9492 145.381 37.7865 144.665 37.6562C143.981 37.526 143.265 37.4609 142.517 37.4609C141.996 37.4609 141.54 37.6074 141.149 37.9004C140.791 38.1608 140.433 38.4538 140.075 38.7793C139.75 39.0723 139.424 39.3652 139.099 39.6582C138.806 39.9186 138.464 40.0488 138.073 40.0488C137.52 40.0488 136.999 39.8047 136.511 39.3164C136.055 38.8281 135.827 38.3236 135.827 37.8027ZM160.095 37.4609C159.541 36.224 159.297 35.0195 159.362 33.8477C159.427 32.6432 159.688 31.5202 160.144 30.4785C160.632 29.4043 161.25 28.444 161.999 27.5977C162.78 26.7188 163.61 25.9701 164.489 25.3516C165.368 24.7005 166.247 24.2122 167.126 23.8867C168.037 23.5612 168.835 23.431 169.519 23.4961C170.202 23.5286 170.739 23.7728 171.13 24.2285C171.521 24.6842 171.651 25.3841 171.521 26.3281C171.521 27.5977 171.114 28.7044 170.3 29.6484C169.519 30.5924 168.64 31.4388 167.663 32.1875C166.719 32.9362 165.84 33.6198 165.026 34.2383C164.245 34.8242 163.854 35.3776 163.854 35.8984C163.854 36.1914 164.017 36.4193 164.343 36.582C164.701 36.7448 165.108 36.875 165.563 36.9727C166.019 37.0378 166.475 37.0866 166.931 37.1191C167.386 37.1517 167.712 37.1842 167.907 37.2168C170.967 36.5658 173.262 36.1751 174.792 36.0449C176.322 35.8822 177.282 35.8984 177.673 36.0938C178.063 36.2565 177.982 36.5332 177.429 36.9238C176.908 37.2819 176.094 37.6725 174.987 38.0957C173.881 38.4863 172.595 38.8444 171.13 39.1699C169.665 39.4954 168.216 39.6908 166.784 39.7559C165.352 39.7884 164.017 39.6419 162.78 39.3164C161.576 38.9909 160.681 38.3724 160.095 37.4609ZM168.64 26.3281C167.989 26.3281 167.37 26.5072 166.784 26.8652C166.198 27.2233 165.661 27.679 165.173 28.2324C164.717 28.7533 164.326 29.3392 164.001 29.9902C163.675 30.6087 163.431 31.1947 163.269 31.748C163.334 31.7806 163.382 31.7969 163.415 31.7969H163.562C164.017 31.7969 164.538 31.6016 165.124 31.2109C165.71 30.8203 166.263 30.3483 166.784 29.7949C167.305 29.209 167.744 28.6068 168.103 27.9883C168.461 27.3698 168.64 26.8164 168.64 26.3281ZM42.5898 147.746C43.6315 146.053 44.8359 144.54 46.2031 143.205C47.5703 141.903 48.9701 140.666 50.4023 139.494C51.8672 138.322 53.3158 137.183 54.748 136.076C56.1803 134.969 57.4987 133.781 58.7031 132.512C59.9401 131.242 60.998 129.842 61.877 128.312C62.7559 126.75 63.3581 124.943 63.6836 122.893C63.6836 122.827 63.6673 122.73 63.6348 122.6C63.6348 122.437 63.6348 122.323 63.6348 122.258C62.8861 123.137 61.9746 124.13 60.9004 125.236C59.8587 126.343 58.7194 127.385 57.4824 128.361C56.278 129.338 55.0085 130.152 53.6738 130.803C52.3392 131.454 51.0371 131.779 49.7676 131.779C49.4421 131.779 49.0189 131.763 48.498 131.73C48.0098 131.665 47.5215 131.551 47.0332 131.389C46.5449 131.226 46.1217 130.998 45.7637 130.705C45.4056 130.412 45.2266 130.021 45.2266 129.533C45.2266 129.11 45.3405 128.459 45.5684 127.58C45.7962 126.701 46.1055 125.725 46.4961 124.65C46.8867 123.576 47.3262 122.486 47.8145 121.379C48.3027 120.272 48.8236 119.263 49.377 118.352C49.9303 117.44 50.4674 116.691 50.9883 116.105C51.5417 115.52 52.0462 115.227 52.502 115.227C52.9577 115.227 53.3483 115.324 53.6738 115.52C53.9993 115.715 54.1621 116.04 54.1621 116.496C54.1621 117.31 53.8691 118.124 53.2832 118.938C52.6973 119.751 52.0625 120.63 51.3789 121.574C50.6953 122.486 50.0605 123.479 49.4746 124.553C48.8887 125.627 48.5957 126.848 48.5957 128.215C50.7441 128.215 52.681 127.775 54.4062 126.896C56.1315 125.985 57.694 124.862 59.0938 123.527C60.4935 122.193 61.7305 120.744 62.8047 119.182C63.8789 117.619 64.8229 116.171 65.6367 114.836C66.4831 113.501 67.1992 112.395 67.7852 111.516C68.4036 110.604 68.9245 110.148 69.3477 110.148C69.9661 110.148 70.3242 110.344 70.4219 110.734C70.5521 111.092 70.6172 111.548 70.6172 112.102C70.3242 113.111 69.9173 114.299 69.3965 115.666C68.8757 117.001 68.3385 118.417 67.7852 119.914C67.2643 121.379 66.776 122.844 66.3203 124.309C65.8971 125.773 65.6204 127.108 65.4902 128.312C65.4902 128.345 65.4902 128.394 65.4902 128.459C65.5228 128.524 65.5391 128.573 65.5391 128.605C66.125 128.41 66.6784 128.068 67.1992 127.58C67.7201 127.092 68.2246 126.604 68.7129 126.115C69.2337 125.594 69.7546 125.139 70.2754 124.748C70.7962 124.325 71.3333 124.113 71.8867 124.113C71.9193 124.113 72.0332 124.341 72.2285 124.797C72.4564 125.253 72.4564 125.806 72.2285 126.457C71.9355 126.685 71.3984 127.076 70.6172 127.629C69.8685 128.182 69.071 128.768 68.2246 129.387C67.3783 129.973 66.5807 130.559 65.832 131.145C65.0833 131.698 64.5625 132.121 64.2695 132.414C63.8138 132.87 63.3418 133.521 62.8535 134.367C62.3652 135.214 61.877 136.158 61.3887 137.199C60.9004 138.273 60.4121 139.396 59.9238 140.568C59.4681 141.74 59.0124 142.88 58.5566 143.986C58.1009 145.126 57.6452 146.167 57.1895 147.111C56.7663 148.088 56.3757 148.885 56.0176 149.504C55.8548 149.764 55.513 150.269 54.9922 151.018C54.5039 151.799 53.9505 152.629 53.332 153.508C52.7461 154.387 52.1602 155.217 51.5742 155.998C51.0208 156.812 50.5977 157.382 50.3047 157.707C50.1745 157.87 49.8164 158.244 49.2305 158.83C48.6445 159.449 47.9772 160.116 47.2285 160.832C46.5124 161.581 45.7962 162.313 45.0801 163.029C44.3314 163.745 43.7617 164.283 43.3711 164.641C42.9805 164.868 42.4596 165.145 41.8086 165.471C41.1576 165.829 40.4902 166.122 39.8066 166.35C39.0905 166.577 38.4069 166.724 37.7559 166.789C37.0723 166.854 36.5189 166.708 36.0957 166.35C35.6725 166.024 35.4284 165.454 35.3633 164.641C35.2656 163.859 35.4447 162.736 35.9004 161.271C36.3236 159.839 37.0723 158.016 38.1465 155.803C39.2207 153.589 40.7018 150.904 42.5898 147.746ZM57.9219 137.248C57.8568 137.248 57.7428 137.264 57.5801 137.297C57.4499 137.362 57.3522 137.411 57.2871 137.443C57.222 137.508 57.0755 137.622 56.8477 137.785C56.6198 137.948 56.3594 138.127 56.0664 138.322C55.806 138.518 55.5456 138.713 55.2852 138.908C55.0573 139.104 54.8945 139.25 54.7969 139.348C53.8854 139.999 52.8438 140.91 51.6719 142.082C50.5 143.286 49.2793 144.605 48.0098 146.037C46.7728 147.502 45.5521 149.032 44.3477 150.627C43.1432 152.255 42.069 153.801 41.125 155.266C40.1484 156.763 39.3672 158.13 38.7812 159.367C38.1953 160.604 37.8861 161.597 37.8535 162.346C37.821 163.094 38.1302 163.534 38.7812 163.664C39.4323 163.794 40.5391 163.485 42.1016 162.736C42.4271 162.443 42.8991 162.004 43.5176 161.418C44.1035 160.865 44.6895 160.279 45.2754 159.66C45.8939 159.074 46.4473 158.521 46.9355 158C47.4238 157.512 47.7168 157.202 47.8145 157.072C47.9772 156.844 48.2376 156.486 48.5957 155.998C48.9538 155.51 49.3444 154.956 49.7676 154.338C50.1908 153.719 50.6302 153.068 51.0859 152.385C51.5417 151.701 51.9648 151.034 52.3555 150.383C52.7786 149.764 53.1367 149.211 53.4297 148.723C53.7552 148.234 53.9831 147.86 54.1133 147.6C54.4062 147.079 54.7643 146.33 55.1875 145.354C55.6432 144.41 56.0664 143.417 56.457 142.375C56.8477 141.366 57.1895 140.389 57.4824 139.445C57.7754 138.501 57.9219 137.769 57.9219 137.248ZM72.1797 128.898C72.1797 128.768 72.1797 128.508 72.1797 128.117C72.2122 127.694 72.2285 127.417 72.2285 127.287C73.2702 124.911 74.6048 122.714 76.2324 120.695C77.86 118.677 79.6992 116.887 81.75 115.324C81.8151 115.324 81.9128 115.308 82.043 115.275C82.2057 115.21 82.3197 115.178 82.3848 115.178C83.2637 115.178 83.9798 115.373 84.5332 115.764C85.1191 116.122 85.5749 116.61 85.9004 117.229C86.2585 117.814 86.5026 118.482 86.6328 119.23C86.763 119.947 86.8281 120.646 86.8281 121.33C86.8281 122.6 86.5352 123.934 85.9492 125.334C85.3633 126.701 84.5658 127.971 83.5566 129.143C82.5801 130.282 81.457 131.226 80.1875 131.975C78.918 132.691 77.5996 133.049 76.2324 133.049C74.8652 133.049 73.8398 132.691 73.1562 131.975C72.5052 131.226 72.1797 130.201 72.1797 128.898ZM75.9883 128.312C75.9883 128.671 76.1348 128.915 76.4277 129.045C76.7207 129.175 77.0137 129.24 77.3066 129.24C78.1204 129.24 78.9017 129.029 79.6504 128.605C80.4316 128.15 81.1152 127.596 81.7012 126.945C82.3197 126.262 82.8079 125.513 83.166 124.699C83.5241 123.885 83.7031 123.104 83.7031 122.355C83.7031 121.997 83.6706 121.607 83.6055 121.184C83.5729 120.728 83.4753 120.337 83.3125 120.012C83.1497 119.654 82.8893 119.377 82.5312 119.182C82.2057 118.986 81.7337 118.954 81.1152 119.084C80.6595 119.182 80.1387 119.605 79.5527 120.354C78.9668 121.102 78.3971 121.981 77.8438 122.99C77.3229 123.967 76.8835 124.96 76.5254 125.969C76.1673 126.945 75.9883 127.727 75.9883 128.312ZM88.9277 130.559C88.9277 130.07 89.0742 129.387 89.3672 128.508C89.6602 127.596 90.0345 126.62 90.4902 125.578C90.9785 124.536 91.5156 123.479 92.1016 122.404C92.7201 121.33 93.3385 120.354 93.957 119.475C94.5755 118.596 95.1615 117.88 95.7148 117.326C96.2682 116.773 96.7565 116.496 97.1797 116.496C98.0911 116.496 98.5469 116.936 98.5469 117.814C98.5469 118.205 98.4655 118.531 98.3027 118.791C98.1725 119.051 98.0098 119.296 97.8145 119.523C97.6191 119.751 97.4076 119.979 97.1797 120.207C96.9518 120.402 96.7565 120.646 96.5938 120.939C96.3008 121.428 95.9427 122.095 95.5195 122.941C95.0964 123.788 94.6732 124.618 94.25 125.432C93.8594 126.213 93.5176 126.913 93.2246 127.531C92.9316 128.15 92.7852 128.492 92.7852 128.557V129.191C94.0547 128.964 95.2754 128.426 96.4473 127.58C97.6191 126.701 98.7259 125.676 99.7676 124.504C100.842 123.332 101.851 122.111 102.795 120.842C103.771 119.54 104.683 118.352 105.529 117.277C106.376 116.171 107.173 115.259 107.922 114.543C108.671 113.827 109.37 113.469 110.021 113.469C110.021 114.673 109.777 115.764 109.289 116.74C108.801 117.717 108.264 118.677 107.678 119.621C107.124 120.565 106.604 121.542 106.115 122.551C105.627 123.527 105.383 124.634 105.383 125.871C105.383 126.392 105.692 126.864 106.311 127.287C106.962 127.678 107.694 128.02 108.508 128.312C109.354 128.573 110.168 128.785 110.949 128.947C111.73 129.11 112.268 129.208 112.561 129.24V130.51C111.812 130.542 110.884 130.559 109.777 130.559C108.671 130.526 107.564 130.396 106.457 130.168C105.35 129.94 104.341 129.566 103.43 129.045C102.551 128.492 101.965 127.694 101.672 126.652C100.826 127.206 100.012 127.857 99.2305 128.605C98.4492 129.354 97.6354 130.054 96.7891 130.705C95.9753 131.356 95.1126 131.91 94.2012 132.365C93.2897 132.821 92.2969 133.049 91.2227 133.049C90.5716 133.049 90.0182 132.772 89.5625 132.219C89.1393 131.665 88.9277 131.112 88.9277 130.559ZM123.107 129.24C123.107 128.264 123.303 127.368 123.693 126.555C124.117 125.708 124.572 124.911 125.061 124.162C125.549 123.413 125.988 122.665 126.379 121.916C126.802 121.167 127.014 120.37 127.014 119.523C127.014 119.328 126.997 119.1 126.965 118.84C126.965 118.547 126.932 118.27 126.867 118.01C126.835 117.749 126.737 117.538 126.574 117.375C126.444 117.18 126.265 117.082 126.037 117.082C126.005 117.082 125.939 117.098 125.842 117.131C125.777 117.131 125.744 117.147 125.744 117.18C125.288 117.798 124.735 118.498 124.084 119.279C123.465 120.028 122.798 120.777 122.082 121.525C121.366 122.274 120.666 122.99 119.982 123.674C119.299 124.357 118.68 124.927 118.127 125.383C117.736 125.741 117.199 126.229 116.516 126.848C115.865 127.466 115.197 128.085 114.514 128.703C113.863 129.289 113.277 129.81 112.756 130.266C112.268 130.721 111.991 130.949 111.926 130.949L109.68 129.045C109.973 129.045 110.266 128.98 110.559 128.85C110.819 128.719 111.079 128.573 111.34 128.41C113.293 127.108 115.051 125.611 116.613 123.918C118.208 122.225 119.771 120.402 121.301 118.449C121.366 118.352 121.529 118.075 121.789 117.619C122.082 117.131 122.391 116.594 122.717 116.008C123.042 115.389 123.368 114.787 123.693 114.201C124.019 113.583 124.263 113.094 124.426 112.736C124.621 112.313 124.735 111.971 124.768 111.711C124.833 111.451 124.882 111.255 124.914 111.125C124.979 110.962 125.077 110.848 125.207 110.783C125.337 110.718 125.614 110.686 126.037 110.686C126.102 110.686 126.249 110.702 126.477 110.734C126.737 110.767 126.9 110.799 126.965 110.832C127.388 111.711 127.762 112.492 128.088 113.176C128.413 113.859 128.69 114.51 128.918 115.129C129.146 115.715 129.309 116.317 129.406 116.936C129.536 117.554 129.602 118.238 129.602 118.986C129.178 120.061 128.706 121.167 128.186 122.307C127.665 123.413 127.225 124.471 126.867 125.48C126.509 126.49 126.281 127.401 126.184 128.215C126.118 129.029 126.298 129.68 126.721 130.168C127.176 130.624 127.925 130.868 128.967 130.9C130.041 130.933 131.555 130.656 133.508 130.07C134.029 130.331 134.077 130.656 133.654 131.047C133.231 131.405 132.58 131.747 131.701 132.072C130.855 132.398 129.911 132.674 128.869 132.902C127.86 133.098 127.014 133.146 126.33 133.049C125.712 133.049 125.191 132.951 124.768 132.756C124.377 132.528 124.051 132.235 123.791 131.877C123.563 131.519 123.384 131.112 123.254 130.656C123.156 130.201 123.107 129.729 123.107 129.24ZM39.5625 221.557C39.5625 221.133 39.6602 220.661 39.8555 220.141C40.0833 219.587 40.4251 219.229 40.8809 219.066C40.946 219.034 41.0273 219.018 41.125 219.018C41.2552 218.985 41.3691 218.952 41.4668 218.92C41.597 218.887 41.7109 218.871 41.8086 218.871V221.557C42.0039 221.361 42.2969 221.003 42.6875 220.482C43.1107 219.962 43.5339 219.408 43.957 218.822C44.4128 218.204 44.8197 217.618 45.1777 217.064C45.5684 216.511 45.8288 216.104 45.959 215.844L57.3359 193.676C57.3359 193.676 57.4173 193.578 57.5801 193.383C57.7754 193.188 57.987 193.057 58.2148 192.992C58.4753 192.895 58.752 192.927 59.0449 193.09C59.3379 193.253 59.6146 193.676 59.875 194.359L52.9414 208.324V208.91C53.8529 209.04 54.6992 209.236 55.4805 209.496C56.2617 209.724 56.929 210.066 57.4824 210.521C58.0684 210.977 58.5241 211.547 58.8496 212.23C59.1751 212.882 59.3379 213.679 59.3379 214.623C59.3379 216.218 58.9147 217.715 58.0684 219.115C57.2546 220.482 56.1966 221.687 54.8945 222.729C53.5924 223.738 52.1439 224.551 50.5488 225.17C48.9863 225.756 47.4727 226.049 46.0078 226.049C45.3568 226.049 44.6569 225.967 43.9082 225.805C43.1595 225.609 42.4596 225.333 41.8086 224.975C41.1901 224.584 40.653 224.112 40.1973 223.559C39.7741 222.973 39.5625 222.305 39.5625 221.557ZM53.4785 211.986C53.0228 211.986 52.5182 212.198 51.9648 212.621C51.444 213.044 50.9232 213.598 50.4023 214.281C49.8815 214.932 49.377 215.681 48.8887 216.527C48.4004 217.341 47.9609 218.155 47.5703 218.969C47.2122 219.783 46.9193 220.548 46.6914 221.264C46.4635 221.98 46.3496 222.549 46.3496 222.973C47.2611 222.973 48.2865 222.761 49.4258 222.338C50.5651 221.915 51.623 221.361 52.5996 220.678C53.6087 219.962 54.4388 219.148 55.0898 218.236C55.7734 217.292 56.1152 216.316 56.1152 215.307C56.1152 214.428 55.9362 213.663 55.5781 213.012C55.2201 212.328 54.5202 211.986 53.4785 211.986ZM61.9258 223.461C61.3724 222.224 61.1283 221.02 61.1934 219.848C61.2585 218.643 61.5189 217.52 61.9746 216.479C62.4629 215.404 63.0814 214.444 63.8301 213.598C64.6113 212.719 65.4414 211.97 66.3203 211.352C67.1992 210.701 68.0781 210.212 68.957 209.887C69.8685 209.561 70.666 209.431 71.3496 209.496C72.0332 209.529 72.5703 209.773 72.9609 210.229C73.3516 210.684 73.4818 211.384 73.3516 212.328C73.3516 213.598 72.9447 214.704 72.1309 215.648C71.3496 216.592 70.4707 217.439 69.4941 218.188C68.5501 218.936 67.6712 219.62 66.8574 220.238C66.0762 220.824 65.6855 221.378 65.6855 221.898C65.6855 222.191 65.8483 222.419 66.1738 222.582C66.5319 222.745 66.9388 222.875 67.3945 222.973C67.8503 223.038 68.306 223.087 68.7617 223.119C69.2174 223.152 69.543 223.184 69.7383 223.217C72.7982 222.566 75.0931 222.175 76.623 222.045C78.153 221.882 79.1133 221.898 79.5039 222.094C79.8945 222.257 79.8132 222.533 79.2598 222.924C78.7389 223.282 77.9251 223.673 76.8184 224.096C75.7116 224.486 74.4258 224.844 72.9609 225.17C71.4961 225.495 70.0475 225.691 68.6152 225.756C67.1829 225.788 65.8483 225.642 64.6113 225.316C63.4069 224.991 62.5117 224.372 61.9258 223.461ZM70.4707 212.328C69.8197 212.328 69.2012 212.507 68.6152 212.865C68.0293 213.223 67.4922 213.679 67.0039 214.232C66.5482 214.753 66.1576 215.339 65.832 215.99C65.5065 216.609 65.2624 217.195 65.0996 217.748C65.1647 217.781 65.2135 217.797 65.2461 217.797H65.3926C65.8483 217.797 66.3691 217.602 66.9551 217.211C67.541 216.82 68.0944 216.348 68.6152 215.795C69.1361 215.209 69.5755 214.607 69.9336 213.988C70.2917 213.37 70.4707 212.816 70.4707 212.328ZM78.7715 222.826C79.0645 220.971 79.6178 219.262 80.4316 217.699C81.2454 216.137 82.1732 214.786 83.2148 213.646C84.2891 212.475 85.4447 211.514 86.6816 210.766C87.9186 210.017 89.123 209.545 90.2949 209.35C91.4668 209.122 92.541 209.171 93.5176 209.496C94.5267 209.822 95.3405 210.473 95.959 211.449C95.959 212.198 95.7799 212.914 95.4219 213.598C95.0964 214.281 94.722 214.965 94.2988 215.648C93.9082 216.332 93.5339 217.032 93.1758 217.748C92.8503 218.464 92.6875 219.229 92.6875 220.043C92.6875 220.889 92.8665 221.573 93.2246 222.094C93.6152 222.582 94.2826 222.826 95.2266 222.826C96.0078 222.826 96.7565 222.712 97.4727 222.484C98.2214 222.257 98.9701 222.143 99.7188 222.143C99.849 222.143 100.061 222.159 100.354 222.191C100.679 222.191 100.891 222.191 100.988 222.191C100.598 222.745 100.093 223.217 99.4746 223.607C98.8561 223.998 98.2051 224.34 97.5215 224.633C96.8379 224.893 96.1217 225.089 95.373 225.219C94.6569 225.349 93.9896 225.414 93.3711 225.414C92.7852 225.414 92.2643 225.284 91.8086 225.023C91.3529 224.763 90.9622 224.421 90.6367 223.998C90.3112 223.575 90.0508 223.103 89.8555 222.582C89.6927 222.029 89.6113 221.492 89.6113 220.971C89.123 221.524 88.5859 222.11 88 222.729C87.4466 223.314 86.8444 223.852 86.1934 224.34C85.5749 224.828 84.8913 225.235 84.1426 225.561C83.4264 225.886 82.6777 226.049 81.8965 226.049C81.0501 226.049 80.3177 225.74 79.6992 225.121C79.0807 224.47 78.7715 223.705 78.7715 222.826ZM81.9941 221.312C81.9941 221.573 81.9941 221.866 81.9941 222.191C82.0267 222.517 82.2383 222.729 82.6289 222.826C83.4427 222.631 84.3704 222.208 85.4121 221.557C86.4538 220.873 87.4303 220.092 88.3418 219.213C89.2533 218.301 90.0182 217.341 90.6367 216.332C91.2552 215.29 91.5645 214.298 91.5645 213.354C91.5645 213.288 91.5482 213.191 91.5156 213.061C91.5156 212.898 91.5156 212.784 91.5156 212.719C90.4089 212.719 89.2858 212.947 88.1465 213.402C87.0072 213.858 85.9818 214.493 85.0703 215.307C84.1589 216.088 83.4102 216.999 82.8242 218.041C82.2708 219.083 81.9941 220.173 81.9941 221.312ZM99.8652 223.559C99.8652 223.07 100.012 222.387 100.305 221.508C100.598 220.596 100.972 219.62 101.428 218.578C101.916 217.536 102.453 216.479 103.039 215.404C103.658 214.33 104.276 213.354 104.895 212.475C105.513 211.596 106.099 210.88 106.652 210.326C107.206 209.773 107.694 209.496 108.117 209.496C109.029 209.496 109.484 209.936 109.484 210.814C109.484 211.205 109.403 211.531 109.24 211.791C109.11 212.051 108.947 212.296 108.752 212.523C108.557 212.751 108.345 212.979 108.117 213.207C107.889 213.402 107.694 213.646 107.531 213.939C107.238 214.428 106.88 215.095 106.457 215.941C106.034 216.788 105.611 217.618 105.188 218.432C104.797 219.213 104.455 219.913 104.162 220.531C103.869 221.15 103.723 221.492 103.723 221.557V222.191C104.992 221.964 106.213 221.426 107.385 220.58C108.557 219.701 109.663 218.676 110.705 217.504C111.779 216.332 112.788 215.111 113.732 213.842C114.709 212.54 115.62 211.352 116.467 210.277C117.313 209.171 118.111 208.259 118.859 207.543C119.608 206.827 120.308 206.469 120.959 206.469C120.959 207.673 120.715 208.764 120.227 209.74C119.738 210.717 119.201 211.677 118.615 212.621C118.062 213.565 117.541 214.542 117.053 215.551C116.564 216.527 116.32 217.634 116.32 218.871C116.32 219.392 116.63 219.864 117.248 220.287C117.899 220.678 118.632 221.02 119.445 221.312C120.292 221.573 121.105 221.785 121.887 221.947C122.668 222.11 123.205 222.208 123.498 222.24V223.51C122.749 223.542 121.822 223.559 120.715 223.559C119.608 223.526 118.501 223.396 117.395 223.168C116.288 222.94 115.279 222.566 114.367 222.045C113.488 221.492 112.902 220.694 112.609 219.652C111.763 220.206 110.949 220.857 110.168 221.605C109.387 222.354 108.573 223.054 107.727 223.705C106.913 224.356 106.05 224.91 105.139 225.365C104.227 225.821 103.234 226.049 102.16 226.049C101.509 226.049 100.956 225.772 100.5 225.219C100.077 224.665 99.8652 224.112 99.8652 223.559ZM123.01 221.264C123.01 220.32 123.189 219.376 123.547 218.432C123.905 217.488 124.328 216.56 124.816 215.648C125.305 214.704 125.793 213.777 126.281 212.865C126.802 211.954 127.193 211.059 127.453 210.18C126.835 210.538 126.298 210.749 125.842 210.814C125.419 210.847 124.898 210.863 124.279 210.863C124.214 210.863 124.003 210.863 123.645 210.863C123.319 210.831 123.107 210.814 123.01 210.814C123.205 210.098 123.563 209.464 124.084 208.91C124.605 208.324 125.191 207.836 125.842 207.445C126.525 207.022 127.225 206.68 127.941 206.42C128.69 206.127 129.357 205.899 129.943 205.736C130.92 204.206 131.717 202.676 132.336 201.146C132.954 199.584 133.573 198.07 134.191 196.605C134.842 195.108 135.591 193.692 136.438 192.357C137.316 190.99 138.488 189.737 139.953 188.598L140.197 190.453L134.094 204.76C134.452 204.662 134.891 204.564 135.412 204.467C135.933 204.369 136.454 204.271 136.975 204.174C137.528 204.076 138.049 203.995 138.537 203.93C139.058 203.832 139.497 203.734 139.855 203.637C139.888 203.637 139.986 203.637 140.148 203.637C140.311 203.604 140.441 203.588 140.539 203.588C140.995 203.588 141.369 203.669 141.662 203.832C141.955 203.995 142.199 204.353 142.395 204.906C140.181 205.557 138.179 206.241 136.389 206.957C134.598 207.673 133.036 208.617 131.701 209.789C130.399 210.928 129.325 212.393 128.479 214.184C127.665 215.941 127.095 218.204 126.77 220.971C126.77 221.557 126.802 222.094 126.867 222.582C126.932 223.07 127.339 223.363 128.088 223.461C128.837 223.461 129.536 223.314 130.188 223.021C130.839 222.729 131.473 222.419 132.092 222.094C132.71 221.736 133.329 221.41 133.947 221.117C134.598 220.824 135.298 220.678 136.047 220.678C136.047 221.459 135.705 222.175 135.021 222.826C134.338 223.477 133.508 224.047 132.531 224.535C131.587 225.023 130.611 225.398 129.602 225.658C128.592 225.919 127.762 226.049 127.111 226.049C126.46 226.049 125.874 225.919 125.354 225.658C124.833 225.398 124.393 225.056 124.035 224.633C123.71 224.177 123.449 223.656 123.254 223.07C123.091 222.484 123.01 221.882 123.01 221.264ZM132.971 240.746C134.012 239.053 135.217 237.54 136.584 236.205C137.951 234.903 139.351 233.666 140.783 232.494C142.248 231.322 143.697 230.183 145.129 229.076C146.561 227.969 147.88 226.781 149.084 225.512C150.321 224.242 151.379 222.842 152.258 221.312C153.137 219.75 153.739 217.943 154.064 215.893C154.064 215.827 154.048 215.73 154.016 215.6C154.016 215.437 154.016 215.323 154.016 215.258C153.267 216.137 152.355 217.13 151.281 218.236C150.24 219.343 149.1 220.385 147.863 221.361C146.659 222.338 145.389 223.152 144.055 223.803C142.72 224.454 141.418 224.779 140.148 224.779C139.823 224.779 139.4 224.763 138.879 224.73C138.391 224.665 137.902 224.551 137.414 224.389C136.926 224.226 136.503 223.998 136.145 223.705C135.786 223.412 135.607 223.021 135.607 222.533C135.607 222.11 135.721 221.459 135.949 220.58C136.177 219.701 136.486 218.725 136.877 217.65C137.268 216.576 137.707 215.486 138.195 214.379C138.684 213.272 139.204 212.263 139.758 211.352C140.311 210.44 140.848 209.691 141.369 209.105C141.923 208.52 142.427 208.227 142.883 208.227C143.339 208.227 143.729 208.324 144.055 208.52C144.38 208.715 144.543 209.04 144.543 209.496C144.543 210.31 144.25 211.124 143.664 211.938C143.078 212.751 142.443 213.63 141.76 214.574C141.076 215.486 140.441 216.479 139.855 217.553C139.27 218.627 138.977 219.848 138.977 221.215C141.125 221.215 143.062 220.775 144.787 219.896C146.512 218.985 148.075 217.862 149.475 216.527C150.874 215.193 152.111 213.744 153.186 212.182C154.26 210.619 155.204 209.171 156.018 207.836C156.864 206.501 157.58 205.395 158.166 204.516C158.785 203.604 159.305 203.148 159.729 203.148C160.347 203.148 160.705 203.344 160.803 203.734C160.933 204.092 160.998 204.548 160.998 205.102C160.705 206.111 160.298 207.299 159.777 208.666C159.257 210.001 158.719 211.417 158.166 212.914C157.645 214.379 157.157 215.844 156.701 217.309C156.278 218.773 156.001 220.108 155.871 221.312C155.871 221.345 155.871 221.394 155.871 221.459C155.904 221.524 155.92 221.573 155.92 221.605C156.506 221.41 157.059 221.068 157.58 220.58C158.101 220.092 158.605 219.604 159.094 219.115C159.615 218.594 160.135 218.139 160.656 217.748C161.177 217.325 161.714 217.113 162.268 217.113C162.3 217.113 162.414 217.341 162.609 217.797C162.837 218.253 162.837 218.806 162.609 219.457C162.316 219.685 161.779 220.076 160.998 220.629C160.249 221.182 159.452 221.768 158.605 222.387C157.759 222.973 156.962 223.559 156.213 224.145C155.464 224.698 154.943 225.121 154.65 225.414C154.195 225.87 153.723 226.521 153.234 227.367C152.746 228.214 152.258 229.158 151.77 230.199C151.281 231.273 150.793 232.396 150.305 233.568C149.849 234.74 149.393 235.88 148.938 236.986C148.482 238.126 148.026 239.167 147.57 240.111C147.147 241.088 146.757 241.885 146.398 242.504C146.236 242.764 145.894 243.269 145.373 244.018C144.885 244.799 144.331 245.629 143.713 246.508C143.127 247.387 142.541 248.217 141.955 248.998C141.402 249.812 140.979 250.382 140.686 250.707C140.555 250.87 140.197 251.244 139.611 251.83C139.025 252.449 138.358 253.116 137.609 253.832C136.893 254.581 136.177 255.313 135.461 256.029C134.712 256.745 134.143 257.283 133.752 257.641C133.361 257.868 132.84 258.145 132.189 258.471C131.538 258.829 130.871 259.122 130.188 259.35C129.471 259.577 128.788 259.724 128.137 259.789C127.453 259.854 126.9 259.708 126.477 259.35C126.053 259.024 125.809 258.454 125.744 257.641C125.646 256.859 125.826 255.736 126.281 254.271C126.704 252.839 127.453 251.016 128.527 248.803C129.602 246.589 131.083 243.904 132.971 240.746ZM148.303 230.248C148.238 230.248 148.124 230.264 147.961 230.297C147.831 230.362 147.733 230.411 147.668 230.443C147.603 230.508 147.456 230.622 147.229 230.785C147.001 230.948 146.74 231.127 146.447 231.322C146.187 231.518 145.926 231.713 145.666 231.908C145.438 232.104 145.275 232.25 145.178 232.348C144.266 232.999 143.225 233.91 142.053 235.082C140.881 236.286 139.66 237.605 138.391 239.037C137.154 240.502 135.933 242.032 134.729 243.627C133.524 245.255 132.45 246.801 131.506 248.266C130.529 249.763 129.748 251.13 129.162 252.367C128.576 253.604 128.267 254.597 128.234 255.346C128.202 256.094 128.511 256.534 129.162 256.664C129.813 256.794 130.92 256.485 132.482 255.736C132.808 255.443 133.28 255.004 133.898 254.418C134.484 253.865 135.07 253.279 135.656 252.66C136.275 252.074 136.828 251.521 137.316 251C137.805 250.512 138.098 250.202 138.195 250.072C138.358 249.844 138.618 249.486 138.977 248.998C139.335 248.51 139.725 247.956 140.148 247.338C140.572 246.719 141.011 246.068 141.467 245.385C141.923 244.701 142.346 244.034 142.736 243.383C143.16 242.764 143.518 242.211 143.811 241.723C144.136 241.234 144.364 240.86 144.494 240.6C144.787 240.079 145.145 239.33 145.568 238.354C146.024 237.41 146.447 236.417 146.838 235.375C147.229 234.366 147.57 233.389 147.863 232.445C148.156 231.501 148.303 230.769 148.303 230.248Z" fill="white"/>
</svg>
