<svg width="194" height="197" viewBox="0 0 194 197" fill="none" xmlns="http://www.w3.org/2000/svg">
<path d="M25.5752 35.9198C50.2734 11.9859 104.61 -0.56942 142.892 40.2357M29.2799 111.252C30.5148 104.581 35.8661 96.2243 50.6851 91.6338C72.9135 84.748 86.9092 78.2938 79.088 49.6519M16.1077 46.5131C8.69843 55.1449 1.7002 73.1932 1.7002 85.7485V129.3C1.7002 154.41 23.5172 184.622 50.6853 184.229M130.131 158.334C121.899 172.851 100.082 196 79.4999 196C63.8577 196 48.6271 183.052 42.0409 177.167C36.7719 172.459 35.4547 165.266 35.4547 162.258C35.4547 150.088 34.6314 138.324 45.7456 124.592C54.8016 113.402 79.0882 106.151 93.0839 95.165C96.3646 92.5898 98.8728 90.0787 100.773 87.7103M98.4352 46.5131C101.179 50.9598 106.256 61.1087 106.256 67.7002C106.256 74.2918 106.256 75.1549 106.256 74.7626C106.256 77.7527 105.06 82.3687 100.773 87.7103M64.2693 124.592C60.5646 125.376 53.896 125.926 48.6271 124.984M97.2003 124.984C99.3957 125.899 106.256 127.181 116.136 124.984M68.7973 166.573C70.8555 168.535 79.0882 170.889 91.4374 167.358M100.773 87.7103C110.877 108.113 130.592 110.336 138.776 109.29C138.776 118.445 138.199 138.245 135.894 144.209M192.7 1L165.12 48.4748M165.12 48.4748L181.998 57.1066C183.233 57.8913 186.731 59.4608 184.879 62.992C183.233 66.1308 181.174 69.008 180.351 70.0543C179.241 71.4651 176.564 73.0362 172.942 70.839C169.319 68.6419 150.85 59.1992 142.069 54.7525M165.12 48.4748C161.004 46.5131 153.076 42.1461 149.89 40.6278C146.597 39.0584 143.865 41.1979 142.892 42.5895C141.919 43.9811 140.834 45.336 139.187 48.4748C137.621 51.4613 140.217 53.8147 142.069 54.7525M142.069 54.7525C137.266 59.1992 127.314 70.159 124.368 74.3702C123.682 75.2857 122.886 77.4306 125.192 78.6861C127.497 79.9417 150.027 91.503 161.004 97.1268C162.513 97.9115 165.981 98.3038 167.179 95.165C168.496 91.7123 172.667 78.8169 174.588 72.8008M144.127 74.3702L136.717 83.3944M156.476 80.2555L152.771 91.6338M163.474 99.4809V126.946C163.474 140.678 160.592 162.258 145.774 174.421C143.166 176.644 135.894 181.561 127.661 183.445C119.84 186.191 118.605 180.698 119.12 173.243" stroke="#F9F2F2" stroke-width="2" stroke-linecap="round" stroke-dasharray="0.1 0.1"/>
</svg>
